<?xml version="1.0" encoding="UTF-8"?>
<svg width="78px" height="78px" viewBox="0 0 78 78" version="1.1" xmlns="http://www.w3.org/2000/svg" xmlns:xlink="http://www.w3.org/1999/xlink">
    <!-- Generator: Sketch 45.2 (43514) - http://www.bohemiancoding.com/sketch -->
    <title>audit_benefit</title>
    <desc>Created with Sketch.</desc>
    <defs>
        <polygon id="path-1" points="0.0102189781 0.0681265207 0.0102189781 69.8300243 69.7618978 69.8300243 69.7618978 0.0681265207"></polygon>
    </defs>
    <g id="HomePage" stroke="none" stroke-width="1" fill="none" fill-rule="evenodd">
        <g id="jz_website2" transform="translate(-553.000000, -2607.000000)">
            <g id="audit_benefit" transform="translate(553.000000, 2607.000000)">
                <g id="005-folder" transform="translate(4.000000, 4.000000)">
                    <g id="Group-3">
                        <mask id="mask-2" fill="white">
                            <use xlink:href="#path-1"></use>
                        </mask>
                        <g id="Clip-2"></g>
                        <path d="M66.8431873,31.4608273 L62.7855718,31.4608273 L62.7855718,24.173163 C62.7855718,22.4221411 61.359854,20.9964234 59.6086618,20.9964234 L58.1344039,20.9964234 L58.1344039,0.0681265207 L11.6268127,0.0681265207 L11.6268127,2.39328467 L8.13856448,2.39328467 L8.13856448,4.7192944 L4.65116788,4.7192944 L4.65116788,12.8578589 L3.17673966,12.8578589 C1.42571776,12.8578589 0,14.2828954 0,16.0339173 L0,66.8287105 L0.00664233577,66.8287105 C0.00136253041,67.4834063 0.204890511,68.1241363 0.613990268,68.6596107 C1.18352798,69.4042336 2.04652068,69.8300243 2.98257908,69.8300243 L55.0234063,69.8300243 C56.3687348,69.8300243 57.5522628,68.9224088 57.8709246,67.7216788 L69.7618978,35.1219465 L69.7618978,34.9163747 C69.7618978,32.9139659 68.533747,31.4608273 66.8431873,31.4608273 Z M59.6086618,23.3222628 C60.0783942,23.3222628 60.4602433,23.7034307 60.4602433,24.173163 L60.4602433,31.4608273 L58.1344039,31.4608273 L58.1344039,23.3222628 L59.6086618,23.3222628 Z M55.8092457,2.39328467 L55.8092457,31.4608273 L14.8021898,31.4608273 C14.5313869,31.4608273 14.2706326,31.5061314 14.0185645,31.5745985 C13.9979562,31.5805596 13.9732603,31.5780049 13.9526521,31.5839659 L13.9526521,2.39328467 L55.8092457,2.39328467 Z M11.6268127,4.7192944 L11.6268127,34.4667397 L10.4644039,37.653528 L10.4644039,4.7192944 L11.6268127,4.7192944 Z M6.97632603,7.04445255 L8.13856448,7.04445255 L8.13856448,44.0296594 L6.97632603,47.2164477 L6.97632603,7.04445255 Z M2.32515815,16.0339173 C2.32515815,15.5641849 2.70768856,15.183017 3.17673966,15.183017 L4.65116788,15.183017 L4.65116788,53.4856204 L2.32515815,59.8285401 L2.32515815,16.0339173 Z M55.6554501,67.0203163 C55.5803406,67.3057664 55.3195864,67.5040146 55.0234063,67.5040146 L2.98257908,67.5040146 C2.69985401,67.5040146 2.53481752,67.3423844 2.46158151,67.2459854 C2.3883455,67.1507786 2.27525547,66.9486131 2.31851582,66.7716545 L4.65116788,60.3767883 L4.65116788,60.3779805 L11.6268127,41.2521411 L11.6268127,41.2553771 L13.873455,35.0921411 L13.9526521,34.8765207 L14.1382968,34.366253 L14.1687835,34.2710462 C14.2454258,33.9862774 14.5068613,33.7861557 14.8021898,33.7861557 L66.8431873,33.7861557 C67.2836253,33.7861557 67.3980779,34.4207543 67.4260097,34.7380535 L55.6554501,67.0203163 Z" id="Fill-1" fill="#6739B7" mask="url(#mask-2)"></path>
                    </g>
                    <path d="M20.9282968,19.8341849 L48.8329197,19.8341849 C49.4748418,19.8341849 49.9958394,19.3138686 49.9958394,18.6712652 C49.9958394,18.0284915 49.4748418,17.5081752 48.8329197,17.5081752 L20.9282968,17.5081752 C20.2868856,17.5081752 19.7660584,18.0284915 19.7660584,18.6712652 C19.7660584,19.3138686 20.2868856,19.8341849 20.9282968,19.8341849 Z" id="Fill-4" fill="#6739B7"></path>
                    <path d="M20.9282968,11.6949392 L32.5556204,11.6949392 C33.1970316,11.6949392 33.7180292,11.1753041 33.7180292,10.5325304 C33.7180292,9.88924574 33.1970316,9.36961071 32.5556204,9.36961071 L20.9282968,9.36961071 C20.2868856,9.36961071 19.7660584,9.88924574 19.7660584,10.5325304 C19.7660584,11.1753041 20.2868856,11.6949392 20.9282968,11.6949392 Z" id="Fill-5" fill="#6739B7"></path>
                    <path d="M20.9282968,27.9727494 L48.8329197,27.9727494 C49.4748418,27.9727494 49.9958394,27.4531144 49.9958394,26.8098297 C49.9958394,26.167056 49.4748418,25.6474209 48.8329197,25.6474209 L20.9282968,25.6474209 C20.2868856,25.6474209 19.7660584,26.167056 19.7660584,26.8098297 C19.7660584,27.4531144 20.2868856,27.9727494 20.9282968,27.9727494 Z" id="Fill-6" fill="#6739B7"></path>
                </g>
            </g>
        </g>
    </g>
</svg>