<?xml version="1.0" encoding="UTF-8"?>
<svg width="78px" height="79px" viewBox="0 0 78 79" version="1.1" xmlns="http://www.w3.org/2000/svg" xmlns:xlink="http://www.w3.org/1999/xlink">
    <!-- Generator: Sketch 45.2 (43514) - http://www.bohemiancoding.com/sketch -->
    <title>convenience_benefit</title>
    <desc>Created with Sketch.</desc>
    <defs></defs>
    <g id="HomePage" stroke="none" stroke-width="1" fill="none" fill-rule="evenodd">
        <g id="jz_website2" transform="translate(-123.000000, -2377.000000)" fill="#6739B7">
            <g id="employee_convenience_benefit" transform="translate(123.000000, 2377.000000)">
                <g id="010-smartphone-1" transform="translate(18.000000, 2.930020)">
                    <path d="M36.3761314,0 L5.41478345,0 C2.42993674,0 0,2.42993674 0,5.41406326 L0,68.3326083 C0,71.3181752 2.42993674,73.748292 5.41478345,73.748292 L36.3755912,73.748292 C39.3611582,73.748292 41.7910949,71.3181752 41.7910949,68.3333285 L41.7910949,5.41406326 C41.7910949,2.42993674 39.3611582,0 36.3761314,0 Z M2.45892457,56.5401411 L39.3321703,56.5401411 L39.3321703,9.83299757 L2.45892457,9.83299757 L2.45892457,56.5401411 Z M5.41478345,2.45802433 L36.3755912,2.45802433 C38.006472,2.45802433 39.3321703,3.78462287 39.3321703,5.41406326 L39.3321703,7.37497324 L2.45892457,7.37497324 L2.45892457,5.41406326 C2.45892457,3.78462287 3.78462287,2.45802433 5.41478345,2.45802433 Z M36.3761314,71.2893674 L5.41478345,71.2893674 C3.78462287,71.2893674 2.45892457,69.9636691 2.45892457,68.3333285 L2.45892457,58.9983455 L39.3321703,58.9983455 L39.3321703,68.3333285 C39.3321703,69.9636691 38.006472,71.2893674 36.3761314,71.2893674 Z" id="Fill-1"></path>
                    <path d="M20.9162287,60 C18.2048759,60 16,62.2048759 16,64.9160487 C16,67.6274015 18.2048759,69.8329976 20.9162287,69.8329976 C23.6275815,69.8329976 25.8331776,67.6274015 25.8331776,64.9160487 C25.8331776,62.2048759 23.6275815,60 20.9162287,60 Z M20.9162287,67.374253 C19.5602822,67.374253 18.4582044,66.2721752 18.4582044,64.9160487 C18.4582044,63.5608224 19.5602822,62.4580243 20.9162287,62.4580243 C22.2721752,62.4580243 23.374253,63.5608224 23.374253,64.9160487 C23.374253,66.2721752 22.2721752,67.374253 20.9162287,67.374253 Z" id="Fill-2"></path>
                    <path d="M18.2293723,6.45820438 L23.145601,6.45820438 C23.8249246,6.45820438 24.3749732,5.90887591 24.3749732,5.22955231 C24.3749732,4.54932847 23.8249246,4 23.145601,4 L18.2293723,4 C17.5493285,4 17,4.54932847 17,5.22955231 C17,5.90887591 17.5493285,6.45820438 18.2293723,6.45820438 Z" id="Fill-3"></path>
                </g>
            </g>
        </g>
    </g>
</svg>