<?xml version="1.0" encoding="UTF-8"?>
<svg width="78px" height="78px" viewBox="0 0 78 78" version="1.1" xmlns="http://www.w3.org/2000/svg" xmlns:xlink="http://www.w3.org/1999/xlink">
    <!-- Generator: Sketch 45.2 (43514) - http://www.bohemiancoding.com/sketch -->
    <title>future_benefit</title>
    <desc>Created with Sketch.</desc>
    <defs>
        <polygon id="path-1" points="0.0204608295 0.00568356375 51.9761905 0.00568356375 51.9761905 74 25.9983257 74 0.0204608295 74"></polygon>
    </defs>
    <g id="HomePage" stroke="none" stroke-width="1" fill="none" fill-rule="evenodd">
        <g id="jz_website2" transform="translate(-951.000000, -2838.000000)">
            <g id="future_benefit" transform="translate(951.000000, 2835.000000)">
                <g id="future" transform="translate(6.698500, 0.930020)">
                    <g id="Group-5" transform="translate(10.656682, 0.000000)">
                        <mask id="mask-2" fill="white">
                            <use xlink:href="#path-1"></use>
                        </mask>
                        <g id="Clip-2"></g>
                        <path d="M28.5303533,24.4961598 L17.1632258,24.4961598 L17.1632258,20.4892473 C14.3430415,18.598894 12.6163748,15.401321 12.6163748,11.9923195 C12.6163748,6.35081413 17.2052842,1.76190476 22.8467896,1.76190476 C28.4882949,1.76190476 33.0772043,6.35081413 33.0772043,11.9923195 C33.0772043,15.401321 31.3505376,18.598894 28.5303533,20.4892473 L28.5303533,24.4961598" id="Fill-1" fill="#F0B44D" mask="url(#mask-2)"></path>
                        <path d="M22.8467896,10.8556068 C23.474255,10.8556068 23.9835023,11.3648541 23.9835023,11.9923195 C23.9835023,12.6197849 23.474255,13.1290323 22.8467896,13.1290323 C22.2193241,13.1290323 21.7100768,12.6197849 21.7100768,11.9923195 C21.7100768,11.3648541 22.2193241,10.8556068 22.8467896,10.8556068 Z M38.2151459,24.4961598 L40.9421198,27.906298 L30.2126882,27.906298 L27.4857143,24.4961598 L38.2151459,24.4961598 Z M37.6240553,35.8632873 L26.2569278,35.8632873 L26.2569278,26.6002151 L29.1214439,30.1797235 L37.6240553,30.1797235 L37.6240553,35.8632873 Z M8.06952381,30.1797235 L21.1189862,30.1797235 L23.9835023,26.6002151 L23.9835023,35.8632873 L8.06952381,35.8632873 L8.06952381,30.1797235 Z M7.47843318,24.4961598 L22.7535791,24.4961598 L20.0266052,27.906298 L4.75145929,27.906298 L7.47843318,24.4961598 Z M21.7100768,15.1933026 L21.7100768,22.2227343 L6.38718894,22.2227343 L0.0204608295,30.1797235 L5.79609831,30.1797235 L5.79609831,38.1367127 L39.8974808,38.1367127 L39.8974808,30.1797235 L45.6731183,30.1797235 L39.3063902,22.2227343 L23.9835023,22.2227343 L23.9835023,15.1933026 C25.3032258,14.7227035 26.2569278,13.4723195 26.2569278,11.9923195 C26.2569278,10.1121966 24.7269124,8.58218126 22.8467896,8.58218126 C20.9666667,8.58218126 19.4366513,10.1121966 19.4366513,11.9923195 C19.4366513,13.4723195 20.3903533,14.7227035 21.7100768,15.1933026 L21.7100768,15.1933026 Z" id="Fill-3" fill="#6739B7" mask="url(#mask-2)"></path>
                        <path d="M48.9889094,31.3266667 C48.9889094,22.0317665 43.9816897,13.3597849 35.9201229,8.69698925 L34.7811367,10.6635023 C42.1436252,14.922765 46.7154839,22.841106 46.7154839,31.3278034 L46.7177573,35.4756682 C46.7245776,44.581874 42.2402458,53.1072197 34.7231644,58.2815361 L34.2309677,58.6202765 L34.2309677,72.2380952 L36.5043932,72.2380952 L36.5043932,59.8081413 C44.3420276,54.1791398 48.9980031,45.1286329 48.9911828,35.4733948 L48.9889094,31.3266667" id="Fill-4" stroke="#6739B7" fill="#6739B7" mask="url(#mask-2)"></path>
                    </g>
                    <path d="M10.7680799,49.7834716 L3.38626728,47.6691859 L10.0599078,35.733702 L9.99284178,35.338126 C9.49155146,32.378126 9.54270353,29.4306298 10.1497081,26.5797542 C11.5478648,19.9947773 15.7139171,14.2339171 21.5782181,10.7726267 L20.4210445,8.81407066 C14.0111214,12.5981874 9.45631336,18.9012596 7.92516129,26.1068817 C7.28746544,29.1112135 7.20789555,32.207619 7.68645161,35.3188018 L0,49.0650691 L8.4969278,51.4976344 L8.51511521,65.4178187 L19.881106,65.4178187 L19.881106,72.2380952 L22.1545315,72.2380952 L22.1545315,63.1443932 L10.7862673,63.1443932 L10.7680799,49.7834716" id="Fill-6" stroke="#6739B7" fill="#6739B7"></path>
                </g>
            </g>
        </g>
    </g>
</svg>