<?xml version="1.0" encoding="UTF-8"?>
<svg width="78px" height="78px" viewBox="0 0 78 78" version="1.1" xmlns="http://www.w3.org/2000/svg" xmlns:xlink="http://www.w3.org/1999/xlink">
    <!-- Generator: Sketch 45.2 (43514) - http://www.bohemiancoding.com/sketch -->
    <title>retention_benefit</title>
    <desc>Created with Sketch.</desc>
    <defs></defs>
    <g id="HomePage" stroke="none" stroke-width="1" fill="none" fill-rule="evenodd">
        <g id="jz_website2" transform="translate(-123.000000, -2838.000000)" fill="#6739B7">
            <g id="retention_benefit" transform="translate(123.000000, 2838.000000)">
                <g id="012-boy-broad-smile" transform="translate(6.000000, 2.000000)">
                    <path d="M18.4590293,42.8631463 C19.1401902,42.8631463 19.7796585,43.1282829 20.2612,43.6091024 C20.5333756,43.8810976 20.8900195,44.0179073 21.2468439,44.0171854 C21.6034878,44.0171854 21.9603122,43.8810976 22.2324878,43.6091024 C22.7773805,43.0647512 22.7773805,42.1819854 22.2324878,41.6378146 C21.2250049,40.6296098 19.8847024,40.0747902 18.4597512,40.0747902 C17.0342585,40.0747902 15.6939561,40.6296098 14.6864732,41.6378146 C14.1415805,42.1819854 14.1415805,43.0647512 14.6864732,43.6091024 C15.2308244,44.1539951 16.1134098,44.1532732 16.657761,43.6091024 C17.1385805,43.1282829 17.7787707,42.8631463 18.4590293,42.8631463 Z" id="Fill-1"></path>
                    <path d="M43.5545951,41.6378146 C43.0104244,42.1819854 43.0104244,43.0647512 43.5545951,43.6091024 C44.0989463,44.1532732 44.9817122,44.1532732 45.5258829,43.6091024 C46.5192878,42.6156976 48.1359171,42.6156976 49.1300439,43.6091024 C49.4022195,43.8810976 49.7588634,44.0171854 50.1156878,44.0171854 C50.4725122,44.0171854 50.8291561,43.8810976 51.1013317,43.6091024 C51.6456829,43.0647512 51.6456829,42.1819854 51.1013317,41.6378146 C49.0208488,39.5571512 45.6352585,39.5571512 43.5545951,41.6378146 Z" id="Fill-2"></path>
                    <g id="Group-6">
                        <path d="M47.3202927,55.3900829 C39.3652927,63.3449024 26.4217902,63.3449024 18.4667902,55.3900829 C17.9226195,54.8457317 17.0398537,54.8457317 16.4956829,55.3900829 C15.9506098,55.9344341 15.9506098,56.8177415 16.4956829,57.3620927 C21.0161805,61.8827707 26.9547707,64.1430195 32.8939024,64.1430195 C38.8323122,64.1430195 44.7709024,61.8827707 49.292122,57.3620927 C49.8364732,56.8177415 49.8364732,55.9351561 49.292122,55.3900829 C48.7479512,54.8457317 47.8644634,54.8457317 47.3202927,55.3900829 Z" id="Fill-3"></path>
                        <path d="M65.7870829,44.3648049 C65.7870829,40.5781707 63.0494439,37.4203561 59.4503366,36.7617561 L59.4503366,13.4400244 C59.4503366,10.4148683 57.9450683,7.6100878 55.4238341,5.93714634 C53.0556537,4.36636098 50.1164098,4.00953659 47.4583659,4.94662927 L38.7061512,1.97561951 C31.9808146,-0.307370732 24.901722,-0.541463415 18.2334195,1.29806829 C9.5044878,3.70649756 4.50028293,8.79950244 3.72743415,16.0388683 C3.0442878,16.9405854 2.50065854,17.9529415 2.13192195,19.0457951 L1.45310732,21.0551659 C1.08852195,22.133761 1.49046829,23.2674049 2.45282927,23.8760098 C3.41519024,24.4851561 4.61236585,24.3617024 5.4301561,23.5699024 C5.71009268,23.2991707 6.01529756,23.0715756 6.33674634,22.880439 L6.33674634,36.7617561 C2.73763902,37.4203561 0,40.5781707 0,44.3648049 C0,48.3037707 2.96108293,51.5610341 6.77316585,52.0348146 C7.73065366,57.321122 10.2462927,62.1979024 14.0928488,66.0995073 C19.1154634,71.194678 25.7920683,74 32.8939024,74 L32.8960683,74 C39.9886976,73.999278 46.6568195,71.2370927 51.6716732,66.222239 C55.589522,62.3043902 58.1318732,57.3783366 59.0583171,52.0292195 C62.8492829,51.5357659 65.7870829,48.2882488 65.7870829,44.3648049 Z M53.8826488,8.26092683 C55.648722,9.43265366 56.6619805,11.3207366 56.6619805,13.4400244 L56.6619805,31.6833707 C52.3351463,31.0108732 49.0123659,27.2601561 49.0123659,22.747961 L48.8973951,7.41985366 C50.5993951,6.97061951 52.3746732,7.26048293 53.8826488,8.26092683 Z M4.50226829,20.7400341 L4.77372195,19.9383073 C5.48303902,17.8374293 7.05941951,16.1318195 9.09766829,15.2589805 C11.1359171,14.3868634 13.4575317,14.422961 15.4676244,15.3591512 C19.6894146,17.3255659 24.7930683,16.2623122 27.8783268,12.7745659 L28.2237805,12.3839902 C28.7342,11.8071512 28.6798732,10.9260098 28.1039366,10.4161317 C27.5265561,9.9057122 26.6459561,9.96003902 26.1355366,10.5366976 L25.7900829,10.9272732 C23.5162976,13.497239 19.7556537,14.2803756 16.6451268,12.8316 C13.9172341,11.5611463 10.7664585,11.5118732 7.99994146,12.6962341 C7.74834146,12.8041659 7.5036,12.9247317 7.26246829,13.0508927 C8.88342927,8.73037561 12.8047073,5.68825366 18.9752244,3.98553171 C25.1026049,2.29490244 31.6156878,2.51275122 37.8100293,4.61597561 L46.109039,7.4324878 L46.2175122,14.6357561 C42.5225659,19.6598146 37.1332,23.0609268 30.9924634,24.2304878 C24.7035463,25.4276634 18.2884683,24.1608195 12.928161,20.6624244 C10.3082,18.9541073 7.00581463,19.0266634 4.50226829,20.7400341 Z M2.7883561,44.3648049 C2.7883561,42.1235073 4.28875122,40.2269415 6.33674634,39.6235707 L6.33674634,47.1800537 C6.33674634,47.8321561 6.36075122,48.4815512 6.40659512,49.1266146 C4.32250244,48.5456244 2.7883561,46.6315512 2.7883561,44.3648049 Z M49.7003854,64.2502293 C45.2121951,68.7384195 39.2441854,71.210922 32.8960683,71.2116439 L32.8939024,71.2116439 C26.5450634,71.2116439 20.572722,68.7010585 16.0789366,64.1422976 C11.5948976,59.5934634 9.12528293,53.5696829 9.12528293,47.1793317 L9.12528293,22.2232829 C9.91491707,22.2819415 10.6980537,22.5376927 11.4039415,22.9981171 C17.3712293,26.891961 24.5131317,28.3028341 31.5135317,26.9695707 C37.1960098,25.8873659 42.3003854,23.0898049 46.2238293,18.9647561 L46.2238293,22.747239 C46.2238293,28.7998976 50.7925171,33.8021171 56.6619805,34.4944683 L56.6619805,47.4430244 C56.6619805,53.7918634 54.1900195,59.7613171 49.7003854,64.2502293 Z M59.3960098,49.1217415 C59.4304829,48.565478 59.4503366,48.0056049 59.4503366,47.4430244 L59.4503366,39.6235707 C61.4990537,40.2269415 62.9994488,42.1235073 62.9994488,44.3648049 C62.9994488,46.6257756 61.4723415,48.5356976 59.3960098,49.1217415 Z" id="Fill-5"></path>
                    </g>
                </g>
            </g>
        </g>
    </g>
</svg>