<?xml version="1.0" encoding="UTF-8"?>
<svg width="78px" height="78px" viewBox="0 0 78 78" version="1.1" xmlns="http://www.w3.org/2000/svg" xmlns:xlink="http://www.w3.org/1999/xlink">
    <!-- Generator: Sketch 45.2 (43514) - http://www.bohemiancoding.com/sketch -->
    <title>savetime_benefit</title>
    <desc>Created with Sketch.</desc>
    <defs></defs>
    <g id="HomePage" stroke="none" stroke-width="1" fill="none" fill-rule="evenodd">
        <g id="jz_website2" transform="translate(-553.000000, -2377.000000)" fill="#6739B7">
            <g id="savetime_benefit" transform="translate(553.000000, 2377.000000)">
                <g id="020-hourglass" transform="translate(9.500000, 4.000000)">
                    <path d="M30.229781,27.2979075 C30.229781,27.94 29.709635,28.4608273 29.0675426,28.4608273 C28.4249392,28.4608273 27.9046229,27.94 27.9046229,27.2979075 C27.9046229,26.6559854 28.4249392,26.1356691 29.0675426,26.1356691 C29.709635,26.1356691 30.229781,26.6559854 30.229781,27.2979075 Z" id="Fill-1"></path>
                    <path d="M33.7180292,24.9727494 C33.7180292,25.6146715 33.1977129,26.1356691 32.5556204,26.1356691 C31.913017,26.1356691 31.3927007,25.6146715 31.3927007,24.9727494 C31.3927007,24.3306569 31.913017,23.8098297 32.5556204,23.8098297 C33.1977129,23.8098297 33.7180292,24.3306569 33.7180292,24.9727494 Z" id="Fill-2"></path>
                    <path d="M26.7417032,24.9727494 C26.7417032,25.6146715 26.2213869,26.1356691 25.5794647,26.1356691 C24.9373723,26.1356691 24.4163747,25.6146715 24.4163747,24.9727494 C24.4163747,24.3306569 24.9373723,23.8098297 25.5794647,23.8098297 C26.2213869,23.8098297 26.7417032,24.3306569 26.7417032,24.9727494 Z" id="Fill-3"></path>
                    <path d="M23.2541363,22.6474209 C23.2541363,23.2895134 22.733309,23.8098297 22.0912165,23.8098297 C21.4492944,23.8098297 20.9282968,23.2895134 20.9282968,22.6474209 C20.9282968,22.0054988 21.4492944,21.4845012 22.0912165,21.4845012 C22.733309,21.4845012 23.2541363,22.0054988 23.2541363,22.6474209 Z" id="Fill-4"></path>
                    <path d="M37.2061071,22.6474209 C37.2061071,23.2895134 36.6857908,23.8098297 36.0431873,23.8098297 C35.4010949,23.8098297 34.8809489,23.2895134 34.8809489,22.6474209 C34.8809489,22.0054988 35.4010949,21.4845012 36.0431873,21.4845012 C36.6857908,21.4845012 37.2061071,22.0054988 37.2061071,22.6474209 Z" id="Fill-5"></path>
                    <path d="M40.6943552,20.3222628 C40.6943552,20.9643552 40.1733577,21.4845012 39.5312652,21.4845012 C38.8893431,21.4845012 38.3690268,20.9643552 38.3690268,20.3222628 C38.3690268,19.6796594 38.8893431,19.1593431 39.5312652,19.1593431 C40.1733577,19.1593431 40.6943552,19.6796594 40.6943552,20.3222628 Z" id="Fill-6"></path>
                    <path d="M19.7660584,20.3222628 C19.7660584,20.9643552 19.2450608,21.4845012 18.6031387,21.4845012 C17.9610462,21.4845012 17.4400487,20.9643552 17.4400487,20.3222628 C17.4400487,19.6796594 17.9610462,19.1593431 18.6031387,19.1593431 C19.2450608,19.1593431 19.7660584,19.6796594 19.7660584,20.3222628 Z" id="Fill-7"></path>
                    <path d="M30.229781,22.6474209 C30.229781,23.2895134 29.709635,23.8098297 29.0675426,23.8098297 C28.4249392,23.8098297 27.9046229,23.2895134 27.9046229,22.6474209 C27.9046229,22.0054988 28.4249392,21.4845012 29.0675426,21.4845012 C29.709635,21.4845012 30.229781,22.0054988 30.229781,22.6474209 Z" id="Fill-8"></path>
                    <path d="M30.229781,41.0876399 C30.229781,41.729562 29.709635,42.2505596 29.0675426,42.2505596 C28.4249392,42.2505596 27.9046229,41.729562 27.9046229,41.0876399 C27.9046229,40.4455474 28.4249392,39.9254015 29.0675426,39.9254015 C29.709635,39.9254015 30.229781,40.4455474 30.229781,41.0876399 Z" id="Fill-10"></path>
                    <path d="M30.229781,44.5757178 C30.229781,45.2178102 29.709635,45.7388078 29.0675426,45.7388078 C28.4249392,45.7388078 27.9046229,45.2178102 27.9046229,44.5757178 C27.9046229,43.9337956 28.4249392,43.4127981 29.0675426,43.4127981 C29.709635,43.4127981 30.229781,43.9337956 30.229781,44.5757178 Z" id="Fill-11"></path>
                    <path d="M30.229781,48.0639659 C30.229781,48.7058881 29.709635,49.2268856 29.0675426,49.2268856 C28.4249392,49.2268856 27.9046229,48.7058881 27.9046229,48.0639659 C27.9046229,47.4218735 28.4249392,46.9010462 29.0675426,46.9010462 C29.709635,46.9010462 30.229781,47.4218735 30.229781,48.0639659 Z" id="Fill-12"></path>
                    <path d="M30.229781,51.5520438 C30.229781,52.1941363 29.709635,52.7144526 29.0675426,52.7144526 C28.4249392,52.7144526 27.9046229,52.1941363 27.9046229,51.5520438 C27.9046229,50.9101217 28.4249392,50.3891241 29.0675426,50.3891241 C29.709635,50.3891241 30.229781,50.9101217 30.229781,51.5520438 Z" id="Fill-13"></path>
                    <path d="M30.229781,55.040292 C30.229781,55.6822141 29.709635,56.2025304 29.0675426,56.2025304 C28.4249392,56.2025304 27.9046229,55.6822141 27.9046229,55.040292 C27.9046229,54.3981995 28.4249392,53.8773723 29.0675426,53.8773723 C29.709635,53.8773723 30.229781,54.3981995 30.229781,55.040292 Z" id="Fill-14"></path>
                    <path d="M56.9721655,67.5040146 L53.4839173,67.5040146 L53.4839173,62.8536983 L47.6706813,62.8536983 L47.6706813,50.9686861 C47.6706813,47.8292457 46.1097324,44.9132603 43.4972506,43.1714355 L31.1639659,34.9490754 L43.4972506,26.726545 C46.1097324,24.9848905 47.6706813,22.0689051 47.6706813,18.9292944 L47.6706813,7.04445255 L53.4839173,7.04445255 L53.4839173,2.39328467 L56.9721655,2.39328467 C57.6134063,2.39328467 58.1344039,1.87381995 58.1344039,1.23104623 C58.1344039,0.587761557 57.6134063,0.0681265207 56.9721655,0.0681265207 L1.16291971,0.0681265207 C0.520997567,0.0681265207 0,0.587761557 0,1.23104623 C0,1.87381995 0.520997567,2.39328467 1.16291971,2.39328467 L4.65116788,2.39328467 L4.65116788,7.04445255 L10.4644039,7.04445255 L10.4644039,18.9292944 C10.4644039,22.0689051 12.0246715,24.9848905 14.6371533,26.726545 L26.9711192,34.9490754 L14.6371533,43.1714355 C12.0246715,44.9132603 10.4644039,47.8292457 10.4644039,50.9686861 L10.4644039,62.8536983 L4.65116788,62.8536983 L4.65116788,67.5040146 L1.16291971,67.5040146 C0.520997567,67.5040146 0,68.0243309 0,68.6669343 C0,69.309708 0.520997567,69.8300243 1.16291971,69.8300243 L56.9721655,69.8300243 C57.6134063,69.8300243 58.1344039,69.309708 58.1344039,68.6669343 C58.1344039,68.0243309 57.6134063,67.5040146 56.9721655,67.5040146 Z M6.97632603,4.7192944 L51.1587591,4.7192944 L51.1587591,2.39328467 L6.97632603,2.39328467 L6.97632603,4.7192944 Z M15.926618,24.7919221 C13.9625304,23.4813382 12.7897324,21.2898783 12.7897324,18.9292944 L12.7897324,7.04445255 L45.3446715,7.04445255 L45.3446715,18.9292944 C45.3446715,21.2898783 44.1718735,23.4813382 42.2077859,24.7919221 L29.0675426,33.5512895 L15.926618,24.7919221 Z M12.7897324,50.9686861 C12.7897324,48.6082725 13.9625304,46.4168127 15.926618,45.1060584 L29.0675426,36.34618 L42.2077859,45.1060584 C44.1718735,46.4168127 45.3446715,48.6082725 45.3446715,50.9686861 L45.3446715,62.8536983 L12.7897324,62.8536983 L12.7897324,50.9686861 Z M6.97632603,67.5040146 L51.1587591,67.5040146 L51.1587591,65.1788564 L6.97632603,65.1788564 L6.97632603,67.5040146 Z" id="Fill-15"></path>
                </g>
            </g>
        </g>
    </g>
</svg>