<?xml version="1.0" encoding="UTF-8"?>
<svg width="78px" height="78px" viewBox="0 0 78 78" version="1.1" xmlns="http://www.w3.org/2000/svg" xmlns:xlink="http://www.w3.org/1999/xlink">
    <!-- Generator: Sketch 45.2 (43514) - http://www.bohemiancoding.com/sketch -->
    <title>savemoney_benefit</title>
    <desc>Created with Sketch.</desc>
    <defs></defs>
    <g id="HomePage" stroke="none" stroke-width="1" fill="none" fill-rule="evenodd">
        <g id="jz_website2" transform="translate(-951.000000, -2377.000000)" stroke="#FFFFFF" fill="#6739B7">
            <g id="savemoney_benefit" transform="translate(951.000000, 2377.000000)">
                <path d="M72.3525742,47.6527786 C70.59782,45.8980243 68.115129,45.2649732 65.8342725,45.7581265 C67.8627007,41.7126131 69.0061898,37.1509002 69.0061898,32.3261363 C69.0061898,15.7427543 55.5153236,2.25170803 38.9317616,2.25170803 C22.3490998,2.25170803 8.85805353,15.7427543 8.85805353,32.3254161 C8.85805353,38.7861022 10.9061071,44.7768613 14.3868078,49.6839075 C11.4835231,50.1136837 8.7939562,51.5463309 6.8170219,53.7645304 C4.63951338,56.208691 3.44038929,59.357382 3.44038929,62.6306667 L3.44038929,69.6552652 C3.44038929,70.7503212 4.24772749,71.6773917 5.33234063,71.8291727 L32.6673285,75.6418832 C34.3821119,75.8802676 36.0967153,76 37.8035766,76 C43.6981898,76 49.4892749,74.5821168 54.7900876,71.8144088 C56.5441217,70.8988613 58.2448613,69.8275718 59.8447737,68.6306083 C63.305129,66.043129 66.6318881,63.2052019 69.7326861,60.1978491 L72.2765937,57.7299221 C73.6474842,56.4006229 74.4098102,54.6163406 74.4245742,52.7067445 C74.4393382,50.7973285 73.7029392,49.0031436 72.3525742,47.6527786 Z M13.2474599,32.3261363 C13.2474599,18.1635085 24.769854,6.64111436 38.9317616,6.64111436 C53.0943893,6.64111436 64.6167835,18.1635085 64.6167835,32.3254161 C64.6167835,45.1609051 55.1530657,55.8273479 42.8371971,57.7137178 L42.5973723,57.7137178 L45.3396934,56.5145937 C45.3965888,56.4892068 45.452944,56.4625596 45.5078589,56.4323114 C49.1930949,54.4314307 50.6721946,49.8949246 48.875309,46.1054404 C48.6171192,45.5597129 48.2950122,45.0512555 47.924292,44.5842092 C48.5847105,43.2486083 48.9583114,41.7457421 48.9583114,40.1568127 C48.9583114,35.3828224 45.6027445,31.3794404 41.1267348,30.3758491 L41.1267348,19.3028564 C43.1474209,20.1602482 44.5689051,22.1647299 44.5689051,24.4947397 C44.5689051,25.7066472 45.5514307,26.6891727 46.7631582,26.6891727 C47.9757859,26.6891727 48.9583114,25.7066472 48.9583114,24.4947397 C48.9583114,19.7205693 45.6027445,15.7173674 41.1267348,14.7137762 L41.1267348,12.6480779 C41.1267348,11.4356302 40.1442092,10.4531046 38.9317616,10.4531046 C37.7200341,10.4531046 36.7375085,11.4356302 36.7375085,12.6480779 L36.7375085,14.7137762 C32.2614988,15.7173674 28.9061119,19.7205693 28.9061119,24.4947397 C28.9061119,29.26891 32.2614988,33.2713917 36.7375085,34.2757032 L36.7375085,43.1396788 L34.8525791,44.0406423 C33.8889586,43.0285888 33.2953382,41.6612993 33.2953382,40.1568127 C33.2953382,38.9450852 32.3128127,37.9625596 31.100365,37.9625596 C29.8886375,37.9625596 28.9061119,38.9450852 28.9061119,40.1568127 C28.9061119,42.33018 29.6030803,44.3422238 30.7816788,45.9858881 L23.3238832,49.5517518 L19.8944964,49.548871 C15.7659805,44.9893187 13.2474599,38.9465255 13.2474599,32.3261363 Z M44.5689051,40.1568127 C44.5689051,40.8046277 44.457635,41.4256156 44.2558005,42.0051922 C44.2122287,41.9904282 44.1686569,41.9735036 44.124365,41.9594599 C43.1503017,41.6506764 42.1312263,41.5410268 41.1267348,41.6189878 L41.1267348,34.9656496 C43.1474209,35.8230414 44.5689051,37.8268029 44.5689051,40.1568127 Z M36.7375085,19.3028564 L36.7375085,29.6859027 C34.7161022,28.8285109 33.2953382,26.8247494 33.2953382,24.4947397 C33.2953382,22.1647299 34.7161022,20.1602482 36.7375085,19.3028564 Z M69.2193674,54.5790706 L66.6754599,57.0469976 C63.7087981,59.9248954 60.526438,62.6396691 57.2158832,65.1153382 C55.8035815,66.1711436 54.3034161,67.116399 52.7582384,67.923017 C46.7379513,71.0668467 40.0001703,72.2315815 33.2735523,71.2940681 L7.82979562,67.745129 L7.82979562,62.6306667 C7.82979562,60.4355134 8.63443309,58.3242628 10.0944477,56.6847397 C11.6515085,54.9370073 13.8868127,53.9355766 16.2274453,53.9355766 L16.2344672,53.9355766 L23.8182968,53.9418783 L23.8202774,53.9418783 C24.148146,53.9418783 24.4709732,53.8687786 24.7669732,53.7272603 L39.8784574,46.503528 C39.9234696,46.4817421 39.9677616,46.4585158 40.0113333,46.4340292 C40.8694453,45.9500584 41.8589927,45.8467105 42.7986667,46.1441509 C43.7374404,46.4423114 44.4873431,47.0964282 44.9091971,47.9869489 C45.6961898,49.6453771 45.0696204,51.6264526 43.4850122,52.534438 L31.2227981,57.8979075 C30.2705207,58.3143601 29.7408175,59.3411776 29.9539951,60.3582725 C30.1664526,61.3751873 31.0630949,62.1038443 32.1019757,62.1038443 L46.6675523,62.1038443 C51.3200097,62.1038443 55.6939319,60.293455 58.9854015,57.0061265 L65.488219,50.7242287 C66.5341217,49.7141557 68.2213577,49.7289197 69.2488954,50.7571776 C69.7609538,51.269236 70.0400292,51.95 70.0344477,52.6745158 C70.0288662,53.3981314 69.739708,54.0747543 69.2193674,54.5790706 Z" id="003-profits"></path>
            </g>
        </g>
    </g>
</svg>