<?xml version="1.0" encoding="UTF-8"?>
<svg width="78px" height="78px" viewBox="0 0 78 78" version="1.1" xmlns="http://www.w3.org/2000/svg" xmlns:xlink="http://www.w3.org/1999/xlink">
    <!-- Generator: Sketch 45.2 (43514) - http://www.bohemiancoding.com/sketch -->
    <title>savepaper_benefit</title>
    <desc>Created with Sketch.</desc>
    <defs>
        <polygon id="path-1" points="0.0106403941 0.129458128 0.0106403941 72 72.6374376 72 72.6374376 0.129458128 0.0106403941 0.129458128"></polygon>
    </defs>
    <g id="HomePage" stroke="none" stroke-width="1" fill="none" fill-rule="evenodd">
        <g id="jz_website2" transform="translate(-553.000000, -2838.000000)">
            <g id="savepaper_benefit" transform="translate(553.000000, 2838.000000)">
                <g id="006-stack" transform="translate(2.500000, 3.000000)">
                    <mask id="mask-2" fill="white">
                        <use xlink:href="#path-1"></use>
                    </mask>
                    <g id="Clip-2"></g>
                    <path d="M71.7597044,47.0789557 L66.3251232,45.6824039 L67.6620887,44.8967882 C68.0708571,44.6563153 68.2959015,44.1943448 68.2279803,43.7226207 C68.2079409,43.5695764 68.146936,43.4296552 68.0715665,43.3014384 C68.201734,43.0797635 68.2661084,42.8185419 68.2279803,42.5505813 C68.1628966,42.0815172 67.8193892,41.696335 67.3607882,41.58 L67.0461872,41.4982463 L68.7504236,40.4992906 C69.1590148,40.2589951 69.3849458,39.7954286 69.3184433,39.3251232 C69.2962759,39.1692414 69.2359803,39.0314483 69.1597241,38.9025222 C69.2907783,38.6794286 69.3544433,38.4190936 69.3184433,38.1530837 C69.2512315,37.682601 68.9082562,37.2974187 68.4491232,37.179665 L67.6315862,36.9712906 L69.894798,35.6424828 C70.3048079,35.4021872 70.5293202,34.9395074 70.4628177,34.4683153 C70.442069,34.3131429 70.3803547,34.1753498 70.3055172,34.0464236 C70.4365714,33.8235074 70.5002365,33.5629951 70.4628177,33.2962759 C70.397734,32.8259704 70.0540493,32.4414975 69.5942069,32.3237438 L68.4982463,32.0417734 L69.8602167,31.2423251 C70.2688079,31.0018522 70.4947389,30.5384631 70.4268177,30.0681576 C70.406069,29.9129852 70.3457734,29.7750148 70.2702266,29.646266 C70.4003941,29.4231724 70.4642365,29.1626601 70.4268177,28.8954089 C70.361734,28.4256355 70.0180493,28.0411626 69.5594483,27.9241182 L67.1279409,27.2993498 L69.7160394,25.7807882 C70.1248079,25.5410246 70.3505616,25.0783448 70.2826404,24.6066207 C70.2618916,24.4521576 70.2015961,24.3136552 70.1262266,24.1847291 C70.2563941,23.9623448 70.3200591,23.7018325 70.2826404,23.4345813 C70.2175567,22.9640985 69.8740493,22.5796256 69.4154483,22.4632906 L67.8144236,22.0518621 L68.8335961,21.4533399 C69.2421872,21.212867 69.4681182,20.7501872 69.400197,20.2791724 C69.3794483,20.124532 69.3191527,19.9860296 69.2436059,19.8572808 C69.3737734,19.6348966 69.4376158,19.3736749 69.400197,19.1069557 C69.3351133,18.6366502 68.9914286,18.2521773 68.5321182,18.135133 L64.6244335,17.1306798 L68.7497143,14.7101675 C69.1584828,14.4698719 69.3842365,14.0070148 69.317734,13.536 C69.2955665,13.3808276 69.2352709,13.2430345 69.1597241,13.1141084 C69.290069,12.8910148 69.353734,12.6313892 69.317734,12.3639606 C69.2512315,11.8934778 68.9075468,11.5090049 68.4491232,11.3912512 L24.7625025,0.165635468 C24.6669163,0.141339901 24.5684926,0.129458128 24.4707783,0.129458128 C24.2962759,0.129458128 24.1230148,0.167586207 23.9630542,0.245970443 L6.22214778,8.77477833 C5.78642365,8.98545813 5.52325123,9.44051232 5.56120197,9.92411823 C5.57450246,10.09933 5.63958621,10.2607094 5.724,10.4070148 C5.60358621,10.610601 5.54187192,10.8489458 5.56262069,11.0947389 C5.59933005,11.5769261 5.93042365,11.9864039 6.39469951,12.1263251 L10.6847291,13.4134581 L6.3053202,15.5186601 C5.8688867,15.7284532 5.60695567,16.1843941 5.64366502,16.6664039 C5.6582069,16.8432118 5.7213399,17.0031724 5.80575369,17.1500099 C5.6853399,17.3543054 5.62362562,17.5919409 5.64366502,17.8386207 C5.67700493,18.2590936 5.94017734,18.613064 6.31365517,18.792532 L1.83706404,20.9447291 C1.40063054,21.1554089 1.13887685,21.6111724 1.17629557,22.094069 C1.19012808,22.2714089 1.25308374,22.4299507 1.33767488,22.5774975 C1.21708374,22.7812611 1.15625616,23.0196059 1.17629557,23.265399 C1.21371429,23.7475862 1.54409852,24.1584828 2.00819704,24.2976946 L6.84975369,25.7495764 C6.72029557,25.9574187 6.65308374,26.2019704 6.67241379,26.4562759 C6.68624631,26.6329064 6.74991133,26.792867 6.8337931,26.9404138 C6.71320197,27.144 6.65308374,27.3823448 6.67241379,27.6283153 C6.70983251,28.1112118 7.04021675,28.5205123 7.50431527,28.6597241 L8.76236453,29.0372808 L7.36723153,29.7072709 C6.93150739,29.917064 6.668867,30.3735369 6.70628571,30.8564335 C6.72029557,31.033064 6.78396059,31.1924926 6.86784236,31.3407488 C6.74725123,31.544335 6.68624631,31.7819704 6.70628571,32.0284729 C6.74370443,32.5113695 7.07426601,32.9208473 7.53907389,33.0600591 L8.65578325,33.3952315 L6.22214778,34.5612414 C5.78642365,34.7717438 5.52325123,35.2269754 5.56120197,35.7096946 C5.57450246,35.8870345 5.63816749,36.0464631 5.72275862,36.1947192 C5.60216749,36.3983054 5.54116256,36.6366502 5.56120197,36.8819113 C5.59862069,37.3646305 5.92918227,37.7741084 6.39328079,37.9140296 L6.95917241,38.0837438 L5.13310345,38.9599803 C4.69666995,39.1706601 4.43491626,39.6264236 4.47162562,40.1071921 C4.48616749,40.284532 4.54912315,40.4439606 4.63371429,40.5922167 C4.51312315,40.795803 4.45211823,41.0341478 4.47162562,41.2794089 C4.50975369,41.7621281 4.84013793,42.1723153 5.30423645,42.3115271 L6.60662069,42.7007882 L0.665024631,45.5596847 C0.228591133,45.7696552 -0.0333399015,46.2261281 0.00354679803,46.7083153 C0.01808867,46.8863645 0.081044335,47.044197 0.165635468,47.1931626 C0.045044335,47.3969261 -0.0159605911,47.6350936 0.00354679803,47.8796453 C0.0414975369,48.3632512 0.372059113,48.7725517 0.836157635,48.9124729 L7.63253202,50.949931 L7.33335961,51.0946404 C6.89763547,51.3046108 6.63499507,51.7603744 6.67170443,52.2425616 C6.68624631,52.4199015 6.74991133,52.5784433 6.8337931,52.7266995 C6.71320197,52.9297537 6.65237438,53.1680985 6.67170443,53.414601 C6.70983251,53.8974975 7.04021675,54.306266 7.50431527,54.4461872 L8.76236453,54.8237438 L7.36723153,55.494266 C6.93150739,55.7033498 6.66833498,56.1592906 6.70628571,56.6420099 C6.72029557,56.8193498 6.78325123,56.9787783 6.86784236,57.1263251 C6.74725123,57.3299113 6.68624631,57.5682562 6.70628571,57.8142266 C6.74370443,58.2964138 7.07426601,58.7057143 7.53836453,58.8456355 L51.2249852,71.9501675 C51.3344039,71.9826207 51.4486108,72 51.560867,72 C51.7672906,72 51.9722956,71.945202 52.1538916,71.837202 L69.894798,61.4301872 C70.3048079,61.1898916 70.5293202,60.7279212 70.4628177,60.2560197 C70.442069,60.1015567 70.3803547,59.9630542 70.3055172,59.8348374 C70.4365714,59.6119212 70.5002365,59.3514089 70.4628177,59.0839803 C70.397734,58.6149163 70.0540493,58.2299113 69.5942069,58.1121576 L68.4982463,57.8294778 L69.8602167,57.0293202 C70.2688079,56.7890246 70.4947389,56.3247488 70.4268177,55.8544433 C70.406069,55.6999803 70.3457734,55.5614778 70.2702266,55.4325517 C70.4003941,55.2101675 70.4642365,54.9491232 70.4268177,54.6824039 C70.361734,54.2119212 70.0180493,53.8274483 69.5594483,53.7104039 L67.3684138,53.1471724 L72.0595862,50.3957438 C72.4676453,50.1552709 72.693399,49.6925911 72.6254778,49.220867 C72.6047291,49.0664039 72.5444335,48.9277241 72.469064,48.8003941 C72.5992315,48.5765911 72.6636059,48.3167882 72.6254778,48.0493596 C72.5618128,47.5804729 72.2195468,47.196 71.7597044,47.0789557 Z M68.6312512,59.6402956 L67.9135567,60.0607685 L51.5622857,69.6537931 L9.37613793,57.0009458 L8.54281773,56.7516059 L7.87495567,56.5499704 L10.4277635,55.323133 L11.2105419,54.9477044 L11.9296552,54.602069 L12.5973399,54.8035271 L13.4294187,55.0509163 L51.1888079,66.3785025 C51.3003547,66.4102463 51.4133202,66.4262069 51.5255764,66.4262069 C51.7327094,66.4262069 51.9377143,66.3715862 52.118601,66.2662463 L64.2850049,59.1290246 L65.0019901,58.7092611 L65.6746404,58.3157438 L66.2586207,58.4647094 L67.0642759,58.6732611 L69.3031921,59.2474877 L68.6312512,59.6402956 Z M68.597202,55.2399606 L67.8796847,55.6618522 L65.4987192,57.0584039 L64.781734,57.4781675 L64.1097931,57.8731034 L64.0640394,57.8993498 L63.3906798,58.292867 L62.6744039,58.7133399 L51.5262857,65.2541675 L14.9962167,54.295803 L14.1628966,54.0464631 L13.4952118,53.8462463 L13.3309951,53.7969458 L12.663133,53.5969064 L9.34155665,52.6006108 L8.50947783,52.3505616 L7.84037438,52.1496355 L9.29793103,51.4493202 L10.0821281,51.0717635 L10.7991133,50.7268374 L11.4675074,50.9277635 L12.3008276,51.1771034 L14.7892611,51.9231724 L15.6211626,52.1725123 L16.2890246,52.3741478 L16.453064,52.4225616 L17.1216355,52.6234877 L17.9549557,52.8730049 L44.522069,60.8421281 C44.632197,60.8740493 44.7464039,60.8912512 44.8586601,60.8912512 C45.0643744,60.8912512 45.2695567,60.8366305 45.4516847,60.7305813 L48.6202167,58.8713498 L49.2520788,58.5021281 L49.806798,58.6675862 L50.5737931,58.8990148 L53.389064,59.7442167 C53.4999015,59.7759606 53.613399,59.7919212 53.7256552,59.7919212 C53.9320788,59.7919212 54.1370837,59.7373005 54.3193892,59.6319606 L58.6690049,57.0791527 L59.3409458,56.6858128 L59.3859901,56.6579704 L60.057931,56.2646305 L60.7756256,55.8434483 L63.1551724,54.4481379 L63.872867,54.027665 L64.5448079,53.6343251 L65.1287882,53.7831133 L65.9330246,53.991665 L69.2679015,54.8478621 L68.597202,55.2399606 Z M1.17274877,46.6168079 L8.2720197,43.2030148 L9.05533005,42.8261675 L9.77231527,42.4819507 L10.4408867,42.6835862 L11.2742069,42.9329261 L12.1587783,43.1982266 L11.4419704,43.5431527 L10.6590148,43.9192906 L9.5320197,44.4596453 C9.09629557,44.6710345 8.83365517,45.1260887 8.87107389,45.6089852 C8.88561576,45.7863251 8.94874877,45.9455764 9.0333399,46.0931232 C9.14204926,46.2842956 9.29988177,46.4387586 9.49814778,46.5426798 C9.56535961,46.5779704 9.62831527,46.618936 9.70244335,46.6389754 L13.9468966,47.9122759 L14.778798,48.1616158 L15.4471921,48.3625419 L15.6106995,48.4109557 L16.2799803,48.6125911 L17.1125911,48.861931 L19.6015567,49.608 L20.4336355,49.8582266 L21.1013202,50.0596847 L21.2655369,50.1075665 L21.933399,50.309202 L22.7667192,50.5585419 L47.7148966,58.0399803 L47.0837438,58.4106207 L44.856,59.7177931 L19.5226404,52.1198424 L18.6886108,51.8705025 L18.0207488,51.6709951 L17.856532,51.6211626 L17.1888473,51.4202365 L16.3567685,51.1708966 L13.867803,50.4241182 L13.0344828,50.1747783 L12.3666207,49.9752709 L12.2025813,49.9252611 L11.5340099,49.7257537 L10.7021084,49.4764138 L2.67534975,47.0670739 L1.84202956,46.817734 L1.17274877,46.6168079 Z M5.64029557,40.0185222 L8.62457143,38.583133 L9.40734975,38.2077044 L10.1257537,37.862069 L10.7934384,38.0637044 L11.6255172,38.3130443 L14.1588177,39.0729458 L14.9907192,39.3222857 L15.6585813,39.5217931 L15.822798,39.571803 L16.4904828,39.7713103 L17.3245123,40.0206502 L18.2092611,40.2887882 L19.0411626,40.5381281 L19.7090246,40.7369261 L19.873064,40.787468 L20.5416355,40.9869754 L21.3749557,41.2363153 L25.4835665,42.4688276 L37.6265616,46.1097931 L50.0756453,49.8449261 C50.1857734,49.878266 50.2987389,49.8942266 50.4124138,49.8942266 C50.6181281,49.8942266 50.823133,49.8394286 51.0052611,49.7321379 L51.9405517,49.1841576 L53.6453202,48.1844926 L54.3615961,47.7633103 L55.0335369,47.3690837 L55.0792906,47.3414187 L55.7512315,46.9479015 L56.4689261,46.5281379 L57.6500099,45.8354483 L58.3669951,45.414266 L59.038936,45.0207488 L59.0846897,44.9930837 L59.7580493,44.5995665 L62.828867,42.7977931 L63.5458522,42.3766108 L64.2177931,41.9830936 L64.801064,42.1334778 L65.6074286,42.3399015 L67.0635665,42.7146207 L66.392335,43.1081379 L65.6746404,43.5286108 L63.3213399,44.9099113 L62.6031133,45.3303842 L61.9304631,45.7267389 L61.8854187,45.7529852 L61.2148966,46.1465025 L60.497202,46.5669754 L59.3161182,47.259665 L58.5984236,47.6808473 L57.9264828,48.0743645 L57.8807291,48.1006108 L57.2094975,48.4962562 L56.491803,48.9160197 L54.7870345,49.9149754 L53.3986404,50.7296749 L53.353064,50.7573399 L52.6809458,51.1515665 L51.9634286,51.5725714 L49.5831724,52.9678818 L49.3219507,53.1202167 L44.2117241,51.5865813 L24.030266,45.5327291 L23.1969458,45.2833892 L22.5290837,45.0845911 L22.364867,45.0338719 L21.6971823,44.8350739 L20.8636847,44.5843153 L16.8887882,43.3929458 L16.055468,43.1434286 L15.3870739,42.9419704 L15.2235665,42.8940887 L14.5549951,42.6924532 L13.7216749,42.4424039 L12.8371034,42.1771034 L12.0037833,41.9277635 L11.3352118,41.7261281 L11.1717044,41.6777143 L10.5033103,41.4767882 L9.67123153,41.2274483 L6.30602956,40.2187389 L5.64029557,40.0185222 Z M6.72987192,35.6190739 L10.3210049,33.8919606 L11.105202,33.5144039 L11.8221872,33.1694778 L12.4907586,33.3696946 L13.3240788,33.6197438 L15.121064,34.1586798 L15.9536749,34.4087291 L16.6227783,34.6089458 L16.7869951,34.6582463 L17.4548571,34.8589951 L18.2881773,35.1085123 L24.8733399,37.0840788 L25.7052414,37.3335961 L26.3731034,37.5336355 L26.5373202,37.582936 L27.2057143,37.7838621 L32.4649064,39.3618325 L51.2242759,44.9890049 C51.3344039,45.0207488 51.4486108,45.0374187 51.560867,45.0374187 C51.7665813,45.0374187 51.9715862,44.9819113 52.1538916,44.8760394 L52.6942463,44.5587783 L53.4119409,44.1390148 L54.0838818,43.7447882 L54.1282167,43.7183645 L54.8001576,43.3228966 L55.5178522,42.9010049 L58.590798,41.1006502 L59.2627389,40.7057143 L59.3084926,40.6808867 L59.9804335,40.284532 L60.6981281,39.8640591 L63.4211823,38.2672906 L64.1388768,37.845399 L64.8108177,37.4520591 L65.394798,37.602266 L66.2004532,37.8101084 L68.1602365,38.3137537 L67.4868768,38.7079803 L66.7691823,39.1291626 L64.0473695,40.7257537 L63.3296749,41.1456946 L62.6563153,41.5418719 L62.6107389,41.5695369 L61.9395074,41.9630542 L61.2218128,42.3828177 L58.8670936,43.7648276 L58.149399,44.1845911 L57.4762167,44.5795271 L57.4318818,44.6071921 L56.7611823,45.0007094 L56.0429557,45.4218916 L54.8616946,46.1131626 L53.4720591,46.9285714 L53.4264828,46.9555271 L52.7564926,47.3504631 L52.038798,47.770936 L50.417202,48.7234286 L22.9468966,40.4826207 L22.113399,40.2332808 L21.4450049,40.033064 L21.2814975,39.9839409 L20.6122167,39.7830148 L19.7803153,39.5336749 L18.8957438,39.2683744 L18.0624236,39.0176158 L17.3938522,38.817399 L17.2303448,38.7680985 L16.5619507,38.5673498 L15.7291626,38.3178325 L13.1972808,37.557931 L12.36467,37.3085911 L11.6968079,37.1083744 L11.5318818,37.0592512 L10.864197,36.8583251 L10.0306995,36.6089852 L8.23389163,36.0700493 L7.40039409,35.820532 L6.72987192,35.6190739 Z M7.87495567,30.7615567 L11.2105419,29.1585813 L11.9296552,28.8141872 L13.4294187,29.2639212 L15.7770443,29.9683153 L17.2782266,30.4185813 L17.441734,30.4678818 L18.1101281,30.6688079 L18.9434483,30.9181478 L20.7397241,31.4570837 L21.5725123,31.7064236 L22.240197,31.9066404 L22.4044138,31.9564729 L23.0722759,32.1566897 L32.9360985,35.1154286 L51.1875665,40.5915074 C51.2984039,40.6232512 51.4119015,40.6392118 51.5241576,40.6392118 C51.7312906,40.6392118 51.9362956,40.5845911 52.1171823,40.4792512 L52.6304039,40.1779507 L53.3488079,39.7580099 L54.01933,39.3639606 L54.0650837,39.3368276 L54.7384433,38.9406502 L55.4561379,38.5201773 L58.1791921,36.9241182 L58.8961773,36.502936 L59.5675862,36.1087094 L59.6138719,36.0817537 L60.2858128,35.6882365 L61.0020887,35.2670542 L65.0005714,32.922266 L65.673931,32.5280394 L66.257202,32.6777143 L67.0635665,32.8855567 L69.3024828,33.461202 L68.6298325,33.8545419 L67.9121379,34.2750148 L64.6320591,36.2009261 L63.9136552,36.6206897 L63.2417143,37.0142069 L63.1959606,37.0404532 L62.5254384,37.4353892 L61.8077438,37.8558621 L58.3669951,39.8752315 L57.6950542,40.2699901 L57.6485911,40.2957044 L56.9766502,40.6897537 L56.2589557,41.110936 L53.9044138,42.4909951 L53.1867192,42.9121773 L52.5147783,43.306936 L52.469734,43.3333596 L51.7985025,43.7266995 L51.5587389,43.8687488 L46.8551527,42.4562365 L33.6640788,38.5001379 L32.7780887,38.2334187 L27.2695567,36.5818522 L26.4367685,36.331803 L19.8516059,34.3560591 L19.0182857,34.1067192 L18.350601,33.9065025 L18.1863842,33.8573793 L16.6844926,33.4071133 L14.0548966,32.6181281 L13.3863251,32.4179113 L13.2222857,32.3686108 L12.5537143,32.1678621 L11.7218128,31.9183448 L9.37542857,31.2132414 L8.54210837,30.9631921 L7.87495567,30.7615567 Z M7.84037438,26.3626404 L8.24630542,26.1673892 L9.03050246,25.7912512 L9.74748768,25.4468571 L10.4165911,25.6470739 L11.2493793,25.8964138 L13.7383448,26.6431921 L14.5702463,26.8927094 L15.2381084,27.0934581 L15.4023251,27.1427586 L16.0700099,27.3429754 L16.90333,27.5930246 L19.251133,28.2967094 L20.0837438,28.546936 L20.7523153,28.7471527 L20.9156453,28.7962759 L21.5842167,28.9964926 L22.4175369,29.2465419 L40.6315862,34.7102069 L45.693399,36.2278818 C45.8028177,36.259803 45.9164926,36.2770049 46.0301675,36.2770049 C46.1658325,36.2770049 46.2974187,36.2459704 46.4256355,36.1980887 C46.4921379,36.1737931 46.5607685,36.152335 46.6223054,36.116335 L47.9101478,35.3599803 L48.6008867,34.956 L49.1868177,34.613202 L49.2325714,34.586069 L49.7888867,34.7524138 L50.1318621,34.8556256 L50.5542857,34.9824236 L51.0433892,35.1285517 C51.1542266,35.1617143 51.2679015,35.1783842 51.3801576,35.1783842 C51.3821084,35.1783842 51.3835271,35.1769655 51.3856552,35.1769655 C51.5913695,35.1757241 51.7942463,35.1223448 51.9722956,35.0170049 L52.3214778,34.8127094 L52.9927094,34.4184828 L53.0384631,34.3922365 L53.7104039,33.9980099 L54.4280985,33.5775369 L57.7088867,31.6530443 L58.4265813,31.2318621 L59.0985222,30.8378128 L59.1428571,30.8106798 L60.533202,29.9966897 L62.9127488,28.6008473 L63.6304433,28.179665 L64.3023842,27.7856158 L64.8863645,27.936532 L65.690601,28.143665 L69.2657734,29.0629951 L68.5931232,29.4565123 L67.8761379,29.8769852 L65.4951724,31.2728276 L64.7781872,31.6940099 L64.1062463,32.0875271 L64.0604926,32.1144828 L63.3873103,32.5092414 L62.6710345,32.9304236 L59.3888276,34.8549163 L58.6725517,35.2753892 L58.0006108,35.6696158 L57.9548571,35.6958621 L57.2829163,36.090798 L53.8426995,38.1080394 L53.1250049,38.527803 L52.4518227,38.9225616 L52.406069,38.9504039 L51.7353695,39.3437438 L51.5213202,39.4698325 L47.3235074,38.2105419 L34.1331429,34.254266 L33.2471527,33.9875468 L23.1407291,30.9568079 L22.301202,30.7048079 L20.5049261,30.1658719 L19.6716059,29.9163547 L19.0030345,29.7154286 L18.8395271,29.6663054 L18.171133,29.4660887 L17.3385222,29.2167488 L14.9914286,28.5121773 L14.1581084,28.2628374 L13.4895369,28.0626207 L13.3254975,28.0127882 L12.6569261,27.8125714 L11.8250246,27.5632315 L9.34084729,26.8143251 L8.50823645,26.5642759 L7.84037438,26.3626404 Z M2.34425616,22.0011429 L7.94216749,19.3085911 L8.72565517,18.9331626 L9.44334975,18.5880591 L9.66431527,18.6552709 L8.94733005,19.0010837 L8.16384236,19.3772217 L7.18776355,19.8468177 C6.9190936,19.9764532 6.7284532,20.2036256 6.62187192,20.4682167 C6.55536946,20.6338522 6.51316256,20.8097734 6.52770443,20.9947389 C6.53320197,21.0474089 6.55253202,21.0958227 6.56299507,21.1470739 C6.58924138,21.2648276 6.63162562,21.375665 6.6897931,21.4781675 C6.79921182,21.6693399 6.95704433,21.823803 7.15531034,21.9284335 C7.22252217,21.9639015 7.28547783,22.0039803 7.35889655,22.0247291 L11.5457143,23.2813596 L12.3785025,23.5308768 L13.0461872,23.7316256 L13.2104039,23.7809261 L13.878266,23.9811429 L14.7122956,24.2304828 L17.1998424,24.9772611 L18.0326305,25.2273103 L18.7003153,25.4275271 L18.864532,25.4766502 L19.5331034,25.676867 L20.3657143,25.9269163 L22.7133399,26.6314877 L23.5466601,26.8808276 L24.337064,27.1177537 L24.3787389,27.1308768 L47.6996453,34.1262266 L47.5749754,34.198936 L47.0677833,34.4961576 L46.377931,34.90067 L46.0294581,35.1042562 L23.983803,28.4921379 L23.1504828,28.242798 L22.4826207,28.0425813 L22.3185813,27.9934581 L21.6507192,27.7932414 L20.817399,27.5430148 L18.469064,26.8386207 L17.6355665,26.5885714 L16.9678818,26.3883547 L16.803665,26.3390542 L16.135803,26.1390148 L15.3039015,25.8887882 L12.8156453,25.1427192 L11.9821478,24.89267 L11.3137537,24.6924532 L11.1495369,24.64333 L10.4811429,24.4431133 L9.64906404,24.193064 L3.84614778,22.4528276 L3.01194089,22.2027783 L2.34425616,22.0011429 Z M6.81233498,16.5757833 L12.3487094,13.9135567 L13.1314877,13.5374187 L13.8491823,13.193202 L14.5175764,13.3932414 L15.3496552,13.643468 L16.381064,13.9523941 L17.2129655,14.2024433 L17.8808276,14.4026601 L18.0450443,14.4517833 L18.2667192,14.5189951 L18.7129064,14.6527094 L19.0986207,14.768335 L19.546936,14.9027586 L19.7686108,14.9692611 L19.9321182,15.0185616 L20.6005123,15.2193103 L21.4338325,15.4688276 L25.4849852,16.6844926 L37.6279803,20.3254581 L50.0777734,24.0600591 C50.1871921,24.0925123 50.300867,24.1091823 50.4143645,24.1091823 C50.6200788,24.1091823 50.8252611,24.0545616 51.0066798,23.947803 L51.2242759,23.8195862 L51.9419704,23.3991133 L52.6139113,23.0057734 L53.3308966,22.5845911 L54.0028374,22.1903645 L54.0484138,22.1639409 L55.4373399,21.3494187 L55.5481773,21.284867 L56.2646305,20.8636847 L56.9365714,20.4703448 L56.9828571,20.4432118 L58.373202,19.6272709 L60.4111921,18.4316453 L61.1288867,18.0109951 L61.8008276,17.6176552 L62.3840985,17.76733 L63.1890443,17.9749951 L68.2405714,19.2725911 L67.5686305,19.6666404 L66.850936,20.0872906 L64.8141872,21.2814975 L64.0979113,21.7019704 L63.4247291,22.0969064 L63.3789754,22.1245714 L62.7070345,22.5180887 L61.9900493,22.9385616 L61.8792118,23.0036453 L61.162936,23.4241182 L60.4902857,23.8183448 L60.444532,23.8445911 L59.7725911,24.2388177 L59.0548966,24.6592906 L58.3843744,25.0533399 L57.6666798,25.4745222 L56.9940296,25.8680394 L56.9496946,25.8951724 L56.2791724,26.2885123 L53.179803,28.1055369 L52.4635271,28.5267192 L51.7915862,28.9202365 L51.7472512,28.9471921 L51.0738916,29.3407094 L50.4982463,29.6787192 L26.0038818,22.3302857 L25.7114483,22.2423251 L24.8032906,21.9708177 L23.9713892,21.7213005 L21.4824236,20.9745222 L20.6491034,20.7251823 L19.980532,20.5242562 L19.817734,20.4737143 L19.1491626,20.2734975 L18.3172611,20.0241576 L14.4012414,18.8499901 L13.5679212,18.5999409 L12.8993498,18.3997241 L12.7358424,18.3498916 L12.5141675,18.2833892 L12.0674483,18.1496749 L11.6815567,18.0338719 L11.2348374,17.900335 L11.0136946,17.8331232 L10.8489458,17.7838227 L10.1810837,17.5836059 L9.34918227,17.334266 L8.31759606,17.0246305 L7.48569458,16.7752906 L6.81233498,16.5757833 Z M68.4517833,23.9914286 L67.7340887,24.4119015 L64.9285714,26.0579704 L64.1277044,26.5268571 L63.4114286,26.94733 L62.738069,27.3415567 L62.6924926,27.3685123 L62.0205517,27.7620296 L61.3042759,28.1832118 L58.922601,29.5790542 L58.2063251,30.0023645 L57.5343842,30.3957044 L57.4893399,30.4235468 L56.8181084,30.8168867 L56.0997044,31.2375369 L52.8196256,33.1625616 L52.101931,33.5830345 L51.4299901,33.9765517 L51.3842365,34.0035074 L51.381399,34.0049261 L51.3336946,33.9910936 L51.1694778,33.9419704 L50.6145813,33.7749163 L50.4462857,33.7250837 L50.4026601,33.7119606 L49.8477635,33.5449064 L49.0809458,33.3156059 L21.9348177,25.1725123 L21.1013202,24.9231724 L20.4336355,24.7229557 L20.2687094,24.6731232 L19.6008473,24.4729064 L18.7689458,24.2235665 L16.2806897,23.4767882 L15.4471921,23.2274483 L14.778798,23.0265222 L14.6145813,22.9772217 L13.9461872,22.7764729 L13.1141084,22.5269557 L9.19737931,21.3520788 L8.36405911,21.1027389 L7.69566502,20.9018128 L9.82995074,19.8766108 L10.6127291,19.4997635 L11.3304236,19.1555468 L11.9981084,19.3557635 L12.8321379,19.6051034 L16.7481576,20.7799803 L17.5802365,21.0300296 L18.2479212,21.2302463 L18.4121379,21.2793695 L22.4022857,22.4757044 L23.2343645,22.7257537 L23.903468,22.9259704 L24.0676847,22.9752709 L24.7360788,23.176197 L25.5695764,23.4255369 L50.1602365,30.8018128 C50.2710739,30.834266 50.3845714,30.850936 50.4968276,30.850936 C50.7025419,30.850936 50.9082562,30.7961379 51.0898522,30.690266 L51.9653793,30.176867 L52.6830739,29.7563941 L53.3564335,29.3621675 L53.4007685,29.3352118 L54.0712906,28.9416946 L54.7889852,28.5212217 L57.1699507,27.12467 L57.8876453,26.7034877 L58.5588768,26.3099704 L58.6046305,26.2830148 L59.2765714,25.8894975 L59.994266,25.4690246 L60.6654975,25.074266 L61.3831921,24.6537931 L62.055133,24.2602759 L62.1008867,24.2331429 L62.7728276,23.839803 L63.4891034,23.4186207 L63.6006502,23.354069 L64.3169261,22.9335961 L64.988867,22.5395468 L65.5728473,22.6897537 L66.3777931,22.8968867 L69.121064,23.6014581 L68.4517833,23.9914286 Z M70.7960394,48.6056749 L70.0783448,49.0268571 L64.3688867,52.3762759 L63.6519015,52.7974581 L62.9785419,53.1909754 L62.9327882,53.2172217 L62.2608473,53.6114483 L61.5431527,54.0312118 L59.1636059,55.4277635 L58.445202,55.8489458 L57.7739704,56.2429951 L57.7282167,56.2701281 L57.0555665,56.6641773 L56.3380493,57.0841182 L53.7222857,58.6191724 L51.9508374,58.085734 L51.1840197,57.8564335 L50.6284138,57.6895567 L50.4179113,57.6278424 L49.8615961,57.4602562 L49.096197,57.2302463 L24.3336946,49.8027192 L22.831803,49.3524532 L22.6668768,49.30333 L21.9991921,49.1016946 L21.1671133,48.8523547 L18.6788571,48.1062857 L17.8455369,47.8560591 L17.1776749,47.6560197 L17.0136355,47.6067192 L15.5124532,47.1571626 L11.5380887,45.9656158 L10.7047685,45.7162759 L10.0363744,45.5146404 L12.3210443,44.4160197 L13.104532,44.0405911 L13.8215172,43.695665 L14.4899113,43.8964138 L15.3232315,44.145931 L19.2974187,45.3380099 L20.1316256,45.5880591 L20.7993103,45.7882759 L20.9635271,45.8375764 L21.6313892,46.0377931 L22.4647094,46.287133 L24.9529655,47.0346207 L29.8188177,48.4927094 L43.0118424,52.4511133 L43.8978325,52.7171232 L48.986601,54.2424236 C49.0981478,54.2757635 49.2111133,54.2917241 49.3233695,54.2917241 C49.4597438,54.2917241 49.5934581,54.259803 49.7216749,54.2119212 C49.7410049,54.2050049 49.759803,54.19667 49.779133,54.1890443 C49.8248867,54.1682956 49.8740099,54.1558818 49.9163941,54.1294581 L50.4774975,53.801202 L51.1951921,53.3807291 L53.5747389,51.9841773 L54.2929655,51.5629951 L54.9649064,51.1694778 L55.0106601,51.1418128 L55.6811823,50.7482956 L58.1038227,49.328867 L59.4920394,48.5141675 L59.5370837,48.4865025 L60.2090246,48.0929852 L60.9267192,47.671803 L62.8254975,46.5593498 L63.4967291,46.1651232 L64.08,46.3140887 L64.8863645,46.5226404 L71.4631921,48.2121576 L70.7960394,48.6056749 Z M68.157399,12.5287094 L67.4840394,12.9222266 L66.7663448,13.3426995 L61.622069,16.3610246 L60.9045517,16.7822069 L60.2326108,17.1769655 L60.1868571,17.2033892 L59.5149163,17.5974384 L58.7972217,18.0186207 L56.7618916,19.2122956 L56.044197,19.6334778 L55.3708374,20.0284138 L55.3259704,20.0553695 L54.6545616,20.4488867 L53.9375764,20.8693596 L53.8267389,20.9344433 L53.1097537,21.3549163 L52.4378128,21.7484335 L52.3922365,21.7753892 L51.7202956,22.1703251 L51.0038424,22.590798 L50.4143645,22.9364335 L38.8298128,19.4630542 L24.7479606,15.2381084 L23.0036453,14.715133 L22.1703251,14.4656158 L21.5017537,14.265399 L21.3375369,14.2162759 L20.6698522,14.0153498 L19.837064,13.7660099 L19.6153892,13.6995074 L19.4520591,13.6503842 L18.7834877,13.4494581 L17.9515862,13.1994089 L16.92,12.8904828 L16.0880985,12.6402562 L15.4202365,12.4400394 L15.2553103,12.3909163 L14.5869163,12.1906995 L13.7535961,11.9406502 L8.23318227,10.2850049 L7.39773399,10.0314089 L6.72916256,9.8306601 L24.470069,1.30025616 L68.157399,12.5287094 Z" id="Fill-1" stroke="#6739B7" stroke-width="0.5" fill="#6739B7" mask="url(#mask-2)"></path>
                </g>
            </g>
        </g>
    </g>
</svg>