<?xml version="1.0" encoding="UTF-8"?>
<svg width="78px" height="78px" viewBox="0 0 78 78" version="1.1" xmlns="http://www.w3.org/2000/svg" xmlns:xlink="http://www.w3.org/1999/xlink">
    <!-- Generator: Sketch 45.2 (43514) - http://www.bohemiancoding.com/sketch -->
    <title>security_benefit</title>
    <desc>Created with Sketch.</desc>
    <defs>
        <polygon id="path-1" points="0.0103708029 0.0690522628 0.0103708029 74 63.1466667 74 63.1466667 0.0690522628"></polygon>
    </defs>
    <g id="HomePage" stroke="none" stroke-width="1" fill="none" fill-rule="evenodd">
        <g id="jz_website2" transform="translate(-951.000000, -2607.000000)">
            <g id="security_benefit" transform="translate(951.000000, 2607.000000)">
                <g id="013-shield-1" transform="translate(7.000000, 2.000000)">
                    <g id="Group-3">
                        <mask id="mask-2" fill="white">
                            <use xlink:href="#path-1"></use>
                        </mask>
                        <g id="Clip-2"></g>
                        <path d="M60.2677318,13.2812535 C50.5267823,10.6123274 40.7286205,6.45588243 31.9329697,1.26235718 C31.4657651,0.986839513 30.8856915,0.986839513 30.4184868,1.26235718 C21.3684056,6.60504915 12.1001919,10.5366205 2.08251484,13.2812535 C1.43503105,13.4582486 0.986666667,14.0462731 0.986666667,14.7174369 L0.986666667,29.9339975 C0.986666667,45.6042807 8.21580769,55.9764664 14.2803075,61.9187636 C20.8094194,68.3161662 28.4146748,71.8539928 31.1753826,71.8539928 C33.9362632,71.8539928 41.5415186,68.3161662 48.0704576,61.9187636 C54.1349575,55.9771578 61.36358,45.6042807 61.36358,29.9339975 L61.36358,14.7174369 C61.36358,14.0462731 60.9152156,13.4582486 60.2677318,13.2812535 Z M58.3852582,29.9339975 C58.3852582,44.5699659 51.6428535,54.2486906 45.9862719,59.7911934 C39.5658807,66.0819496 32.7012734,68.8751525 31.1753826,68.8751525 C29.6501832,68.8751525 22.7848845,66.0819496 16.3646661,59.7911934 C10.7079116,54.2486906 3.96550696,44.5699659 3.96550696,29.9339975 L3.96550696,15.8476816 C13.5450176,13.1281113 22.466328,9.33222462 31.176074,4.2709271 C39.6678602,9.19774988 49.0345966,13.1827309 58.3852582,15.8469902 L58.3852582,29.9339975 Z" id="Fill-1" fill="#6739B7" mask="url(#mask-2)"></path>
                    </g>
                    <path d="M17.9749061,15.6815759 C17.6738071,14.9158649 16.8088821,14.5399233 16.0431712,14.8417137 C13.3830602,15.8895105 10.6519093,16.8543408 7.92749937,17.7097592 C7.30628827,17.9042118 6.88367805,18.4794456 6.88367805,19.1303864 L6.88367805,24.881688 C6.88367805,25.7039198 7.55086637,26.3711081 8.3730982,26.3711081 C9.19550287,26.3711081 9.86199981,25.7039198 9.86199981,24.881688 L9.86199981,20.2188021 C12.3067437,19.4282013 14.748895,18.5530783 17.1350439,17.6126194 C17.900582,17.3115204 18.2766964,16.4465954 17.9749061,15.6815759 Z" id="Fill-4" fill="#6739B7"></path>
                    <path d="M20.8038883,15.9638345 C21.0038719,15.9638345 21.2062754,15.9232156 21.4014194,15.8388664 L21.4285563,15.8267671 C22.1819951,15.4966299 22.5216389,14.6194328 22.1915017,13.865994 C21.8606731,13.1125551 20.9788091,12.77222 20.2260617,13.1016658 L20.2016903,13.1125551 C19.4482515,13.4413096 19.1079163,14.3176424 19.4366708,15.0712541 C19.681076,15.6309318 20.2293458,15.9638345 20.8038883,15.9638345 Z" id="Fill-5" fill="#6739B7"></path>
                    <path d="M48.919135,49.0767712 C48.2312051,48.627024 47.3082036,48.8209581 46.8579379,49.508888 C45.6303805,51.3872132 44.1909131,53.1865475 42.5779075,54.8550369 C41.2518275,56.2269213 39.8144343,57.5058141 38.306001,58.6555905 C37.6524675,59.1539075 37.5261166,60.0883169 38.0251251,60.7425417 C38.3181002,61.12678 38.7617978,61.3293563 39.2101621,61.3293563 C39.5254345,61.3293563 39.8427811,61.2294509 40.1120763,61.024109 C41.7392553,59.7830696 43.2888261,58.4044442 44.7189598,56.9250491 C46.4629832,55.1217394 48.0211963,53.1744483 49.3512518,51.1381411 C49.8016903,50.4500383 49.6079291,49.5270369 48.919135,49.0767712 Z" id="Fill-6" fill="#6739B7"></path>
                    <path d="M34.8476839,60.9910953 L34.7619519,61.0417394 C34.050342,61.4534602 33.8073195,62.3643624 34.2192132,63.0759724 C34.4952494,63.553375 34.9949493,63.8193861 35.5093411,63.8193861 C35.7625616,63.8193861 36.0192389,63.75526 36.2541376,63.6188839 L36.3526602,63.5608074 C37.0623689,63.1456296 37.3007245,62.2333446 36.8853738,61.5231175 C36.4695046,60.8134089 35.5567011,60.5757446 34.8476839,60.9910953 Z" id="Fill-7" fill="#6739B7"></path>
                    <path d="M21.024095,33.4153032 C20.1099087,32.5011169 18.8939321,31.9974416 17.6001744,31.9974416 C16.3065896,31.9974416 15.0906129,32.5011169 14.1757353,33.4153032 C12.2879035,35.3036535 12.2879035,38.375831 14.1757353,40.2643543 L22.9693119,49.0579309 C23.8841896,49.9721172 25.1001662,50.4757925 26.393751,50.4757925 C27.6875087,50.4757925 28.9034854,49.9721172 29.818363,49.0579309 L48.1758941,30.6997084 C50.0637259,28.8111852 50.0637259,25.7390077 48.1758941,23.8513487 C47.2610164,22.936471 46.0450398,22.4333143 44.7512821,22.4333143 C43.4576973,22.4333143 42.2417207,22.9371624 41.326843,23.8513487 L26.393751,38.7842678 L21.024095,33.4153032 Z M43.4333259,25.9571402 C43.785069,25.6053972 44.2529651,25.411636 44.7512821,25.411636 C45.2495992,25.411636 45.7174953,25.6053972 46.0699297,25.9571402 C46.7964045,26.6843064 46.7964045,27.8665779 46.0692383,28.593744 L27.7117073,46.9512751 C27.3599642,47.3037096 26.8920681,47.4967794 26.393751,47.4967794 C25.895434,47.4967794 25.4275379,47.3037096 25.0751035,46.9512751 L16.2815268,38.1583899 C15.5543607,37.4312237 15.5543607,36.2482608 16.2815268,35.5217861 C16.6332699,35.170043 17.1018573,34.9755905 17.6001744,34.9755905 C18.0984915,34.9755905 18.5663875,35.1693516 18.9181306,35.5217861 L25.3404232,41.9440786 C25.6200891,42.2230532 25.9987963,42.3803437 26.393751,42.3803437 C26.7887058,42.3803437 27.1675858,42.2230532 27.4463875,41.9440786 L43.4333259,25.9571402 Z" id="Fill-8" fill="#6739B7"></path>
                </g>
            </g>
        </g>
    </g>
</svg>