<?xml version="1.0" encoding="UTF-8"?>
<svg width="78px" height="78px" viewBox="0 0 78 78" version="1.1" xmlns="http://www.w3.org/2000/svg" xmlns:xlink="http://www.w3.org/1999/xlink">
    <!-- Generator: Sketch 45.2 (43514) - http://www.bohemiancoding.com/sketch -->
    <title>visitor_benefit</title>
    <desc>Created with Sketch.</desc>
    <defs>
        <polygon id="path-1" points="0.0112906387 0.114976338 0.0112906387 70.9430349 31.2477836 70.9430349 31.2477836 0.114976338 0.0112906387 0.114976338"></polygon>
        <path d="M15.6237977,18.8636465 C20.7928403,18.8636465 24.9982269,14.6582599 24.9982269,9.48921733 C24.9982269,4.32017474 20.7928403,0.114976338 15.6237977,0.114976338 C10.4549433,0.114976338 6.24955672,4.32017474 6.24955672,9.48921733 C6.24955672,14.6582599 10.4549433,18.8636465 15.6237977,18.8636465 Z M15.6237977,6.36453306 C17.3469374,6.36453306 18.7486702,7.76626586 18.7486702,9.48921733 C18.7486702,11.2121688 17.3469374,12.6140898 15.6237977,12.6140898 C13.9008462,12.6140898 12.4991134,11.2121688 12.4991134,9.48921733 C12.4991134,7.76626586 13.9008462,6.36453306 15.6237977,6.36453306 Z" id="path-3"></path>
        <path d="M15.6237977,20.7924639 C7.00885217,20.7924639 0,28.7570739 0,38.5467912 L0,50.3829381 C0,52.3434048 1.39891014,53.9339318 3.12468427,53.9339318 L6.24955672,53.9339318 L6.24955672,69.3210725 C6.24955672,71.2815392 7.64846686,72.8718524 9.37424099,72.8718524 C11.1002033,72.8718524 12.4991134,71.2815392 12.4991134,69.3210725 L12.4991134,50.3829381 C12.4991134,48.4218298 11.1002033,46.8321582 9.37424099,46.8321582 L6.24955672,46.8321582 L6.24955672,38.5467912 C6.24955672,32.6728753 10.4549433,27.8940238 15.6237977,27.8940238 C20.7928403,27.8940238 24.9982269,32.6728753 24.9982269,38.5467912 L24.9982269,46.8321582 L21.8733544,46.8321582 C20.1473921,46.8321582 18.7486702,48.4218298 18.7486702,50.3829381 L18.7486702,69.3210725 C18.7486702,71.2815392 20.1473921,72.8718524 21.8733544,72.8718524 C23.5993167,72.8718524 24.9982269,71.2815392 24.9982269,69.3210725 L24.9982269,53.9339318 L28.1229111,53.9339318 C29.8488735,53.9339318 31.2477836,52.3434048 31.2477836,50.3829381 L31.2477836,38.5467912 C31.2477836,28.7570739 24.2389314,20.7924639 15.6237977,20.7924639 Z" id="path-4"></path>
        <path d="M72.0241136,0.114976338 L38.6932071,0.114976338 C36.9672448,0.114976338 35.5685229,1.5136983 35.5685229,3.23966061 L35.5685229,67.8183506 C35.5685229,69.5435602 36.9672448,70.9430349 38.6932071,70.9430349 L72.0241136,70.9430349 C73.7493232,70.9430349 75.148986,69.5435602 75.148986,67.8183506 L75.148986,3.23966061 C75.148986,1.5136983 73.7493232,0.114976338 72.0241136,0.114976338 Z M41.8180796,64.6934782 L68.8994293,64.6934782 L68.8994293,6.36453306 L41.8180796,6.36453306 L41.8180796,64.6934782 Z" id="path-5"></path>
    </defs>
    <g id="HomePage" stroke="none" stroke-width="1" fill="none" fill-rule="evenodd">
        <g id="jz_website2" transform="translate(-123.000000, -2607.000000)">
            <g id="visitor_benefit" transform="translate(123.000000, 2607.000000)">
                <g id="009-people-1" transform="translate(1.388060, 3.000000)">
                    <g id="Group-4">
                        <mask id="mask-2" fill="white">
                            <use xlink:href="#path-1"></use>
                        </mask>
                        <g id="Clip-2"></g>
                        <g id="Fill-1" mask="url(#mask-2)">
                            <use fill="#6739B7" fill-rule="evenodd" xlink:href="#path-3"></use>
                            <path stroke="#FFFFFF" stroke-width="1.5" d="M15.6237977,18.1136465 C10.86913,18.1136465 6.99955672,14.2440195 6.99955672,9.48921733 C6.99955672,4.73445558 10.8690896,0.864976338 15.6237977,0.864976338 C20.3786672,0.864976338 24.2482269,4.73442877 24.2482269,9.48921733 C24.2482269,14.2440464 20.3786267,18.1136465 15.6237977,18.1136465 Z M15.6237977,5.61453306 C17.7611148,5.61453306 19.4986702,7.35201618 19.4986702,9.48921733 C19.4986702,11.6264403 17.761093,13.3640898 15.6237977,13.3640898 C13.4866545,13.3640898 11.7491134,11.6264042 11.7491134,9.48921733 C11.7491134,7.35205229 13.4866327,5.61453306 15.6237977,5.61453306 Z"></path>
                        </g>
                        <g id="Fill-3" mask="url(#mask-2)">
                            <use fill="#6739B7" fill-rule="evenodd" xlink:href="#path-4"></use>
                            <path stroke="#FFFFFF" stroke-width="1.5" d="M15.6237977,21.5424639 C7.44591836,21.5424639 0.75,29.1514671 0.75,38.5467912 L0.75,50.3829381 C0.75,51.9493034 1.83624639,53.1839318 3.12468427,53.1839318 L6.99955672,53.1839318 L6.99955672,69.3210725 C6.99955672,70.8873852 8.08575154,72.1218524 9.37424099,72.1218524 C10.6628974,72.1218524 11.7491134,70.8874124 11.7491134,69.3210725 L11.7491134,50.3829381 C11.7491134,48.8161958 10.6631159,47.5821582 9.37424099,47.5821582 L5.49955672,47.5821582 L5.49955672,38.5467912 C5.49955672,32.2785172 10.0178454,27.1440238 15.6237977,27.1440238 C21.2299065,27.1440238 25.7482269,32.2784821 25.7482269,38.5467912 L25.7482269,47.5821582 L21.8733544,47.5821582 C20.5845311,47.5821582 19.4986702,48.8161432 19.4986702,50.3829381 L19.4986702,69.3210725 C19.4986702,70.887465 20.5847496,72.1218524 21.8733544,72.1218524 C23.1620108,72.1218524 24.2482269,70.8874124 24.2482269,69.3210725 L24.2482269,53.1839318 L28.1229111,53.1839318 C29.411516,53.1839318 30.4977836,51.9493306 30.4977836,50.3829381 L30.4977836,38.5467912 C30.4977836,29.1514351 23.8018377,21.5424639 15.6237977,21.5424639 Z"></path>
                        </g>
                    </g>
                    <g id="Fill-5">
                        <use fill="#6739B7" fill-rule="evenodd" xlink:href="#path-5"></use>
                        <path stroke="#FFFFFF" stroke-width="1.5" d="M72.0241136,0.864976338 C73.3354474,0.864976338 74.398986,1.92824958 74.398986,3.23966061 L74.398986,67.8183506 C74.398986,69.1292968 73.3351595,70.1930349 72.0241136,70.1930349 L38.6932071,70.1930349 C37.3817463,70.1930349 36.3185229,69.1296346 36.3185229,67.8183506 L36.3185229,3.23966061 C36.3185229,1.92791186 37.3814584,0.864976338 38.6932071,0.864976338 L72.0241136,0.864976338 Z M41.0680796,65.4434782 L41.0680796,5.61453306 L69.6494293,5.61453306 L69.6494293,65.4434782 L41.0680796,65.4434782 Z"></path>
                    </g>
                    <path d="M51.1923206,38.6538781 C52.0148436,38.6538781 52.8211834,38.3200515 53.4026513,37.7393363 C53.9833665,37.1557985 54.3170048,36.3515287 54.3170048,35.5290056 C54.3170048,34.7057299 53.9833665,33.9001428 53.4026513,33.3186749 C52.8211834,32.737207 52.0148436,32.4043214 51.1923206,32.4043214 C50.3690448,32.4043214 49.5649632,32.737207 48.9819899,33.3186749 C48.400522,33.9001428 48.0676363,34.7057299 48.0676363,35.5290056 C48.0676363,36.3515287 48.400522,37.1557985 48.9819899,37.7393363 C49.5649632,38.3200515 50.3690448,38.6538781 51.1923206,38.6538781 Z" id="Fill-6" fill="#6739B7"></path>
                </g>
            </g>
        </g>
    </g>
</svg>