<?xml version="1.0" encoding="UTF-8"?>
<svg width="122px" height="122px" viewBox="0 0 122 122" version="1.1" xmlns="http://www.w3.org/2000/svg" xmlns:xlink="http://www.w3.org/1999/xlink">
    <!-- Generator: Sketch 45.2 (43514) - http://www.bohemiancoding.com/sketch -->
    <title>access_feature</title>
    <desc>Created with Sketch.</desc>
    <defs>
        <rect id="path-1" x="24.8149885" y="62.1342381" width="34.1112095" height="17.5609756"></rect>
        <path d="M24.8149885,62.1342381 L38.7159265,62.1342381 L38.7159265,62.1342381 C47.2534636,62.1342381 54.1745049,69.0552794 54.1745049,77.5928166 C54.1745049,78.2594407 54.1313844,78.9253668 54.0454136,79.5864241 L54.0454136,79.5864241 L24.8149885,79.7031424 L24.8149885,62.1342381 Z" id="path-2"></path>
        <rect id="path-3" x="15.6672479" y="2.78982692" width="30.5544527" height="56.8990004" rx="4"></rect>
        <path d="M2.99971472,9.69374521 L25.5541674,9.69374521 L25.5541674,9.69374521 C27.7633064,9.69374521 29.5541674,11.4846062 29.5541674,13.6937452 L29.5541674,19.4498428 L-1.00028528,19.4498428 L-1.00028528,13.6937452 L-1.00028528,13.6937452 C-1.00028528,11.4846062 0.79057572,9.69374521 2.99971472,9.69374521 Z" id="path-4"></path>
        <rect id="path-5" x="11.0011694" y="36.1577313" width="24.8878076" height="10.7317073" rx="5.36585366"></rect>
    </defs>
    <g id="HomePage" stroke="none" stroke-width="1" fill="none" fill-rule="evenodd">
        <g id="jz_website2" transform="translate(-259.000000, -976.000000)">
            <g id="access_feature" transform="translate(260.000000, 977.000000)">
                <circle id="Oval-5" stroke="#6739B7" stroke-width="2" fill="#FFFFFF" cx="60" cy="60" r="60"></circle>
                <g id="Group-15" transform="translate(28.780488, 20.000000)">
                    <path d="M29.3229828,64.3690881 L29.3229828,59.9790042 L12.0376562,43.7530494 L31.0338244,10.6899153 C33.2684197,8.09823355 35.5084131,7.69166736 37.7538048,9.47021673 C39.9991965,11.2487661 39.8689594,13.788029 37.3630937,17.0880054 C40.1030988,14.7818045 42.4836353,14.4511844 44.5047032,16.0961451 C46.4577798,18.0109536 46.2377654,20.4597209 43.8446601,23.442447 C46.8034825,21.2904238 49.1823432,21.0884846 50.9812421,22.8366294 C53.0595281,24.6731151 52.8775793,27.0701706 50.4353957,30.027796 C53.332762,27.8556627 55.7325707,27.7328151 57.6348219,29.6592534 C59.3568714,31.6126336 59.1564311,33.8981345 57.0335012,36.5157563 L54.7814452,41.8417785 C57.9106536,45.4958368 59.2770294,48.9384993 58.8805725,52.1697661 C58.4841157,55.4010329 57.1177399,57.604315 54.7814452,58.7796125 L54.7814452,64.3690881 L29.3229828,64.3690881 Z" id="Path-27" stroke="#6A5E94" fill="#9686D1" stroke-linecap="round" stroke-linejoin="round"></path>
                    <path d="M14.2845842,46.2605883 C19.1767609,47.4692152 22.2270153,48.1273981 23.4353474,48.2351369 C24.6436795,48.3428757 28.7458609,52.3478887 35.7418916,60.2501759 C38.4161818,62.1364337 40.8484741,62.2775597 43.0387684,60.6735539 C45.2290627,59.0695481 50.1095069,54.1130937 57.6801008,45.8041908 L55.6946584,41.8586027 L14.2845842,46.2605883 Z" id="Path-28" fill-opacity="0.200000018" fill="#000000"></path>
                    <path d="M24.8149885,62.683105 C27.1977064,62.2337734 32.6178857,61.9428611 41.0755266,61.8103682 C49.5331674,61.6778753 55.4833912,61.9687876 58.926198,62.683105 L24.8149885,62.683105 Z" id="Path-29" fill-opacity="0.200000018" fill="#000000"></path>
                    <g id="Rectangle-9">
                        <use fill="#E3DCF8" fill-rule="evenodd" xlink:href="#path-1"></use>
                        <rect stroke="#6A5E94" stroke-width="1" x="25.3149885" y="62.6342381" width="33.1112095" height="16.5609756"></rect>
                    </g>
                    <g id="Rectangle-9">
                        <use fill="#BAAAF4" fill-rule="evenodd" xlink:href="#path-2"></use>
                        <path stroke="#6A5E94" stroke-width="1" d="M25.3149885,62.6342381 L25.3149885,79.2011419 L53.5995717,79.0882004 C53.6494867,78.5913933 53.6745049,78.0923074 53.6745049,77.5928166 C53.6745049,69.3314218 46.9773212,62.6342381 38.7159265,62.6342381 L25.3149885,62.6342381 Z"></path>
                    </g>
                    <circle id="Oval-9" stroke="#6A5E94" fill="#6A5E94" cx="43.2379522" cy="71.8930364" r="3.41337055"></circle>
                    <g id="Rectangle-9" transform="translate(30.944474, 31.239327) rotate(-45.000000) translate(-30.944474, -31.239327) ">
                        <use fill="#E3DCF8" fill-rule="evenodd" xlink:href="#path-3"></use>
                        <rect stroke="#6A5E94" stroke-width="1" x="16.1672479" y="3.28982692" width="29.5544527" height="55.8990004" rx="4"></rect>
                    </g>
                    <path d="M48.0001831,10.4160827 L48.1366515,53.3452564 L48.1387583,53.3452497 C48.1440253,55.0020956 46.8051561,56.3495043 45.1483102,56.3547713 C45.1476077,56.3547735 45.1469051,56.3547755 45.1462026,56.3547772 L22.086902,56.4097741 L48.0001831,10.4160827 Z" id="Rectangle-9" fill="#FFFFFF" opacity="0.400000006" transform="translate(35.112928, 33.412928) rotate(-45.000000) translate(-35.112928, -33.412928) "></path>
                    <circle id="Oval-9" stroke="#6A5E94" fill="#9686D1" cx="44.7026305" cy="44.8459417" r="3.81016165"></circle>
                    <path d="M24.8780488,28.7804878 L41.4634146,28.7804878" id="Line-9" stroke="#FFFFFF" stroke-linecap="round" stroke-linejoin="round"></path>
                    <path d="M29.7560976,32.6829268 L39.5121951,32.6829268" id="Line-9" stroke="#FFFFFF" stroke-linecap="round" stroke-linejoin="round"></path>
                    <g id="Rectangle-9" transform="translate(14.276941, 14.571794) rotate(-45.000000) translate(-14.276941, -14.571794) ">
                        <use fill="#BAAAF4" fill-rule="evenodd" xlink:href="#path-4"></use>
                        <path stroke="#786D9E" stroke-width="1" d="M-0.50028528,18.9498428 L29.0541674,18.9498428 L29.0541674,13.6937452 C29.0541674,11.7607486 27.487164,10.1937452 25.5541674,10.1937452 L2.99971472,10.1937452 C1.0667181,10.1937452 -0.50028528,11.7607486 -0.50028528,13.6937452 L-0.50028528,18.9498428 Z"></path>
                    </g>
                    <rect id="Rectangle-9" fill="#6A5E94" transform="translate(14.977657, 15.232005) rotate(-45.000000) translate(-14.977657, -15.232005) " x="10.7150979" y="13.8709616" width="8.52511814" height="2.72208719" rx="1.3610436"></rect>
                    <g id="Rectangle-9">
                        <use fill="#BAAAF4" fill-rule="evenodd" xlink:href="#path-5"></use>
                        <rect stroke="#6A5E94" stroke-width="1" x="11.5011694" y="36.6577313" width="23.8878076" height="9.73170732" rx="4.86585366"></rect>
                    </g>
                    <path d="M25.6625099,63.1558208 C25.6625099,67.1416965 25.6625099,72.4115928 25.6625099,78.9655096 L45.7901998,78.9655096 C34.0660984,78.4321073 27.3568685,73.162211 25.6625099,63.1558208 Z" id="Path-30" fill-opacity="0.2" fill="#000000"></path>
                </g>
            </g>
        </g>
    </g>
</svg>