<?xml version="1.0" encoding="UTF-8"?>
<svg width="122px" height="122px" viewBox="0 0 122 122" version="1.1" xmlns="http://www.w3.org/2000/svg" xmlns:xlink="http://www.w3.org/1999/xlink">
    <!-- Generator: Sketch 45.2 (43514) - http://www.bohemiancoding.com/sketch -->
    <title>cab_feature</title>
    <desc>Created with Sketch.</desc>
    <defs>
        <path d="M23.0869466,4.16553836 L47.7594501,4.16553836 L47.7594501,4.16553836 C48.0550597,4.16553836 48.335522,4.29632828 48.5255254,4.52278758 L57.2236023,14.8897641 L57.2236023,14.8897641 C57.5785838,15.3128558 57.5233695,15.9436088 57.1002778,16.2985902 C56.9201841,16.449692 56.6926131,16.5325149 56.457527,16.5325149 L17.0690086,16.5325149 L17.0690086,16.5325149 C16.5167238,16.5325149 16.0690086,16.0847996 16.0690086,15.5325149 C16.0690086,15.3561804 16.1156356,15.1829813 16.2041618,15.030479 L22.2220999,4.66350246 L22.2220999,4.66350246 C22.4010381,4.35524921 22.7305214,4.16553836 23.0869466,4.16553836 Z" id="path-1"></path>
    </defs>
    <g id="HomePage" stroke="none" stroke-width="1" fill="none" fill-rule="evenodd">
        <g id="jz_website2" transform="translate(-1059.000000, -1336.000000)">
            <g id="cab_feature" transform="translate(1060.000000, 1337.000000)">
                <circle id="Oval-5" stroke="#6739B7" stroke-width="2" fill="#FFFFFF" cx="60" cy="60" r="60"></circle>
                <g id="bookcabicon" transform="translate(20.000000, 35.802469)">
                    <g id="bookcab" transform="translate(0.000000, 0.300625)">
                        <g id="Group-20" transform="translate(0.000000, -0.000000)">
                            <path d="M4.00975754,17.3417652 C4.0063644,17.3234429 4.97963175,17.3234429 6.92955961,17.3417652 C8.62678203,17.3574591 10.0188167,16.489811 11.1056635,14.7388208 C11.0737108,14.8028093 18.3400192,2.25517646 18.3679304,2.21523534 C19.2712583,0.922565318 20.7275844,0.276230307 22.7369088,0.276230307 L47.7302021,0.276230307 C50.1950515,0.276230307 52.0601893,1.11819671 53.3256154,2.80212952 C59.7203748,11.0620959 62.8989015,15.1664167 62.8611953,15.1150919 C64.4869062,16.8770631 66.1496619,17.6271346 67.8494623,17.3653061 L76.9688935,17.3464112 C78.4637834,17.7324061 79.2112284,18.8422675 79.2112284,20.6759954 C79.2112284,20.5843321 79.2112284,25.7131677 79.2112284,36.062502 L0.0246096128,36.062502 L0.0246096128,21.8038721 C0.0345809235,18.8448281 1.36296357,17.3574591 4.00975754,17.3417652 Z" id="Path-2" stroke="#89785C" fill="#FAD799" stroke-linecap="round" stroke-linejoin="round"></path>
                            <path d="M7.20345339,18.3470459 C9.22458148,17.9182607 10.778569,16.828373 11.8654158,15.0773828 C11.833463,15.1413713 19.0486014,2.81287579 19.0737609,2.77277814 C19.7914918,1.62890305 21.1565919,1.08944015 23.1690612,1.15438946 L46.9933326,1.12503808 C49.2657339,1.00223789 50.9868209,1.55148457 52.1565935,2.77277814 C58.7611676,11.235997 62.0446016,15.4419441 62.0068955,15.3906193 C63.6326064,17.1525905 65.2221515,18.1380661 66.775531,18.3470459 L7.20345339,18.3470459 Z" id="Path-2" fill="#F5B64C"></path>
                            <path d="M16.1059836,39.338341 C14.6018789,39.338341 13.3712915,38.1077535 13.3712915,36.6036488 C13.3712915,35.0995441 14.6018789,33.8689567 16.1059836,33.8689567 C17.6100883,33.8689567 18.8406758,35.0995441 18.8406758,36.6036488 C18.8406758,38.1077535 17.6100883,39.338341 16.1059836,39.338341 Z" id="Fill-2" fill="#777777"></path>
                            <g id="Rectangle-4">
                                <use fill="#FAD799" fill-rule="evenodd" xlink:href="#path-1"></use>
                                <path stroke="#89785C" stroke-width="1" d="M23.0869466,4.66553836 C22.908734,4.66553836 22.7439924,4.76039379 22.6545232,4.91452041 L16.6365852,15.2814969 C16.5923221,15.3577481 16.5690086,15.4443476 16.5690086,15.5325149 C16.5690086,15.8086573 16.7928662,16.0325149 17.0690086,16.0325149 L56.457527,16.0325149 C56.5750701,16.0325149 56.6888555,15.9911034 56.7789024,15.9155525 C56.9904482,15.7380618 57.0180554,15.4226853 56.8405647,15.2111395 L48.1424877,4.84416297 C48.047486,4.73093332 47.9072549,4.66553836 47.7594501,4.66553836 L23.0869466,4.66553836 Z"></path>
                            </g>
                            <path d="M36.6412904,5.10491834 L36.6412904,15.7976038" id="Path-8" stroke="#89785C"></path>
                            <circle id="Oval-2" stroke="#89785C" fill="#F5B64C" cx="17.3961999" cy="37.8261704" r="8.79227809"></circle>
                            <circle id="Oval-2" fill="#89785C" cx="17.3961999" cy="37.8261704" r="3.19719203"></circle>
                            <circle id="Oval-2" stroke="#89785C" fill="#F5B64C" cx="62.2237702" cy="37.8261704" r="8.79227809"></circle>
                            <circle id="Oval-2" fill="#89785C" cx="62.2237702" cy="37.8261704" r="3.19719203"></circle>
                        </g>
                        <path d="M0.525985713,23.8854269 L6.46618843,23.8854269" id="Path-9" stroke="#89785C" stroke-linecap="round" stroke-linejoin="round"></path>
                        <path d="M73.2472174,23.8854269 L79.1874201,23.8854269" id="Path-9" stroke="#89785C" stroke-linecap="round" stroke-linejoin="round"></path>
                        <path d="M40.8211157,22.2868309 L45.6169038,22.2868309" id="Path-9" stroke="#89785C" stroke-linecap="round" stroke-linejoin="round"></path>
                        <path d="M40.8211157,22.2868309 L40.8211157,25.484023" id="Path-10" stroke="#89785C" stroke-linecap="round" stroke-linejoin="round"></path>
                        <circle id="Oval-8" fill-opacity="0.799999952" fill="#FFFFFF" cx="65.3920867" cy="33.125294" r="1.76366843"></circle>
                        <path d="M24.6974288,12.1067618 L31.6402116,8.57942495" id="Line-6" stroke="#FFFFFF" opacity="0.799999952" stroke-linecap="round" stroke-linejoin="round"></path>
                        <path d="M39.6482196,12.1067618 L46.5910025,8.57942495" id="Line-6" stroke="#FFFFFF" opacity="0.799999952" stroke-linecap="round" stroke-linejoin="round"></path>
                    </g>
                </g>
            </g>
        </g>
    </g>
</svg>