<?xml version="1.0" encoding="UTF-8"?>
<svg width="122px" height="122px" viewBox="0 0 122 122" version="1.1" xmlns="http://www.w3.org/2000/svg" xmlns:xlink="http://www.w3.org/1999/xlink">
    <!-- Generator: Sketch 45.2 (43514) - http://www.bohemiancoding.com/sketch -->
    <title>offers_feature</title>
    <desc>Created with Sketch.</desc>
    <defs>
        <rect id="path-1" x="0" y="0" width="70" height="49.7251586" rx="4"></rect>
    </defs>
    <g id="HomePage" stroke="none" stroke-width="1" fill="none" fill-rule="evenodd">
        <g id="jz_website2" transform="translate(-659.000000, -1696.000000)">
            <g id="offers_feature" transform="translate(660.000000, 1697.000000)">
                <circle id="Oval-5" stroke="#6739B7" stroke-width="2" fill="#FFFFFF" cx="60" cy="60" r="60"></circle>
                <g id="offersicon" transform="translate(25.000000, 34.210526)">
                    <g id="offers" transform="translate(0.000000, 0.385557)">
                        <g id="Rectangle-3">
                            <use fill="#FAD799" fill-rule="evenodd" xlink:href="#path-1"></use>
                            <rect stroke="#89785C" stroke-width="1" x="0.5" y="0.5" width="69" height="48.7251586" rx="4"></rect>
                        </g>
                        <path d="M1.55391121,1.55391121 L32.7399577,1.55391121 L32.7399577,1.55391121 C34.396812,1.55391121 35.7399577,2.89705696 35.7399577,4.55391121 L35.7399577,45.1712474 L35.7399577,45.1712474 C35.7399577,46.8281016 34.396812,48.1712474 32.7399577,48.1712474 L1.55391121,48.1712474 L1.55391121,1.55391121 Z" id="Rectangle-3" fill="#F5B64C" transform="translate(18.646934, 24.862579) scale(-1, 1) translate(-18.646934, -24.862579) "></path>
                        <circle id="Oval-19" fill="#FFFFFF" opacity="0.799999952" cx="62.6315789" cy="42.1756426" r="1.84210526"></circle>
                        <g id="Group-2" transform="translate(6.363636, 12.230722)">
                            <path d="M2.80812291,0.400820465 L22.0919881,0.400820465 L22.0919881,0.400820465 C23.1965576,0.400820465 24.0919881,1.29625096 24.0919881,2.40082046 L24.0919881,7.61134678 L24.0919881,7.61134678 C24.0919881,8.71591628 23.1965576,9.61134678 22.0919881,9.61134678 L2.80812291,9.61134678 L2.80812291,9.61134678 C1.70355342,9.61134678 0.808122915,8.71591628 0.808122915,7.61134678 L0.808122915,2.40082046 L0.808122915,2.40082046 C0.808122915,1.29625096 1.70355342,0.400820465 2.80812291,0.400820465 Z" id="Rectangle-3" fill="#FFFFFF" opacity="0.799999952"></path>
                            <path d="M23.2702031,23.3690858 L3.24051544,23.3690858 C2.66448305,23.3690858 2.19729349,23.8972207 2.19729349,24.5479582 C2.19729349,25.1988923 2.66448305,25.7268306 3.24051544,25.7268306 L23.2702031,25.7268306 C23.8460616,25.7268306 24.3134251,25.1988923 24.3134251,24.5479582 C24.3134251,23.8972207 23.8460616,23.3690858 23.2702031,23.3690858 Z" id="Fill-4" fill="#89785C"></path>
                            <path d="M3.75120469,18.269285 C3.75120469,18.9200226 4.27766562,19.4481574 4.92677803,19.4481574 C5.57569451,19.4481574 6.10235137,18.9200226 6.10235137,18.269285 L6.10235137,15.7541608 C6.10235137,15.1034232 5.57569451,14.5752884 4.92677803,14.5752884 C4.27766562,14.5752884 3.75120469,15.1034232 3.75120469,15.7541608 L3.75120469,18.269285 Z" id="Fill-6" fill="#89785C"></path>
                            <path d="M7.51284344,15.7541608 L7.51284344,18.269285 C7.51284344,18.9200226 8.0395003,19.4481574 8.68841678,19.4481574 C9.33733326,19.4481574 9.86399012,18.9200226 9.86399012,18.269285 L9.86399012,15.7541608 C9.86399012,15.1034232 9.33733326,14.5752884 8.68841678,14.5752884 C8.0395003,14.5752884 7.51284344,15.1034232 7.51284344,15.7541608 Z" id="Fill-7" fill="#89785C"></path>
                            <path d="M11.2744822,15.7541608 L11.2744822,18.269285 C11.2744822,18.9200226 11.801139,19.4481574 12.4500555,19.4481574 C13.0991679,19.4481574 13.6256289,18.9200226 13.6256289,18.269285 L13.6256289,15.7541608 C13.6256289,15.1034232 13.0991679,14.5752884 12.4500555,14.5752884 C11.801139,14.5752884 11.2744822,15.1034232 11.2744822,15.7541608 Z" id="Fill-8" fill="#89785C"></path>
                            <path d="M17.6472817,18.269285 L17.6472817,15.7541608 C17.6472817,15.1034232 17.1206249,14.5752884 16.4717084,14.5752884 C15.8227919,14.5752884 15.296135,15.1034232 15.296135,15.7541608 L15.296135,18.269285 C15.296135,18.9200226 15.8227919,19.4481574 16.4717084,19.4481574 C17.1206249,19.4481574 17.6472817,18.9200226 17.6472817,18.269285 Z" id="Fill-10" fill="#89785C"></path>
                            <path d="M21.4089205,18.269285 L21.4089205,15.7541608 C21.4089205,15.1034232 20.8824595,14.5752884 20.2333471,14.5752884 C19.5844307,14.5752884 19.0577738,15.1034232 19.0577738,15.7541608 L19.0577738,18.269285 C19.0577738,18.9200226 19.5844307,19.4481574 20.2333471,19.4481574 C20.8824595,19.4481574 21.4089205,18.9200226 21.4089205,18.269285 Z" id="Fill-11" fill="#89785C"></path>
                        </g>
                        <g id="Group" transform="translate(40.121307, 12.431290)" fill="#89785C">
                            <path d="M19.7325224,3.85059758 C19.3186679,3.43558167 18.6484496,3.43558167 18.2345951,3.85059758 L2.41454799,19.715041 C2.0006935,20.1298799 2.0006935,20.8021561 2.41454799,21.217172 C2.62147524,21.4246799 2.89249343,21.5284339 3.16351163,21.5284339 C3.43470638,21.5284339 3.70643082,21.4246799 3.91265183,21.217172 L19.7325224,5.35272854 C20.1463769,4.93859791 20.1463769,4.26561349 19.7325224,3.85059758 Z" id="Fill-16"></path>
                            <path d="M6.18447006,10.7953764 C8.94956189,10.7953764 11.1992778,8.54005526 11.1992778,5.76738072 C11.1992778,2.99470618 8.94956189,0.738499809 6.18447006,0.738499809 C3.4195548,0.738499809 1.17054517,2.99470618 1.17054517,5.76738072 C1.17054517,8.54005526 3.4195548,10.7953764 6.18447006,10.7953764 Z M6.18447006,2.86315463 C7.78109387,2.86315463 9.08056873,4.16627626 9.08056873,5.76738072 C9.08056873,7.36848518 7.78109387,8.67072153 6.18447006,8.67072153 C4.58784626,8.67072153 3.28925419,7.36848518 3.28925419,5.76738072 C3.28925419,4.16627626 4.58784626,2.86315463 6.18447006,2.86315463 Z" id="Fill-17"></path>
                            <path d="M17.3878134,13.3586103 C14.6228982,13.3586103 12.3738885,15.6148167 12.3738885,18.3874912 C12.3738885,21.1601658 14.6228982,23.4154869 17.3878134,23.4154869 C20.1529053,23.4154869 22.4026211,21.1601658 22.4026211,18.3874912 C22.4026211,15.6148167 20.1529053,13.3586103 17.3878134,13.3586103 Z M17.3878134,21.2908321 C15.7911896,21.2908321 14.4925976,19.9885957 14.4925976,18.3874912 C14.4925976,16.7863868 15.7911896,15.4832651 17.3878134,15.4832651 C18.9844372,15.4832651 20.2839121,16.7863868 20.2839121,18.3874912 C20.2839121,19.9885957 18.9844372,21.2908321 17.3878134,21.2908321 Z" id="Fill-18"></path>
                        </g>
                    </g>
                </g>
            </g>
        </g>
    </g>
</svg>