<?xml version="1.0" encoding="UTF-8"?>
<svg width="122px" height="122px" viewBox="0 0 122 122" version="1.1" xmlns="http://www.w3.org/2000/svg" xmlns:xlink="http://www.w3.org/1999/xlink">
    <!-- Generator: Sketch 45.2 (43514) - http://www.bohemiancoding.com/sketch -->
    <title>phonebook_feature</title>
    <desc>Created with Sketch.</desc>
    <defs>
        <rect id="path-1" x="9.20258621" y="0" width="51.5948276" height="65.1724138" rx="2"></rect>
        <rect id="path-2" x="5.58189655" y="4.82758621" width="51.5948276" height="65.1724138" rx="2"></rect>
    </defs>
    <g id="HomePage" stroke="none" stroke-width="1" fill="none" fill-rule="evenodd">
        <g id="jz_website2" transform="translate(-259.000000, -1336.000000)">
            <g id="phonebook_feature" transform="translate(260.000000, 1337.000000)">
                <circle id="Oval-5" stroke="#6739B7" stroke-width="2" fill="#FFFFFF" cx="60" cy="60" r="60"></circle>
                <g id="Group-10" transform="translate(29.224138, 25.000000)">
                    <g id="Group-9" transform="translate(0.240306, 19.762931)"></g>
                    <g id="Rectangle-13">
                        <use fill="#508643" fill-rule="evenodd" xlink:href="#path-1"></use>
                        <rect stroke="#437336" stroke-width="1" x="9.70258621" y="0.5" width="50.5948276" height="64.1724138" rx="2"></rect>
                    </g>
                    <path d="M53.3062714,5.49979322 L56.2059408,8.97391378 L56.8280154,65.8930712 C57.049503,63.629107 57.7491555,62.7728755 58.9269728,63.3243767 C58.8248625,35.7537144 58.7738073,15.1023957 58.7738073,1.37042075 C58.7738073,1.32939266 57.4950791,1.32939266 54.9376227,1.37042075 L53.3062714,5.49979322 Z" id="Path-25" fill="#EEFCEB"></path>
                    <path d="M10.2792252,1.34586286 C11.1076453,3.28296926 10.2335594,4.61174066 7.65696753,5.33217705 C3.79207966,6.41283163 46.6632357,5.94859364 55.6616958,5.94859364 C54.11156,3.16237857 54.9633544,1.62813497 58.217079,1.34586286 L10.2792252,1.34586286 Z" id="Path-25" fill="#B8DBB0"></path>
                    <g id="Rectangle-13">
                        <use fill="#84B673" fill-rule="evenodd" xlink:href="#path-2"></use>
                        <rect stroke="#437336" stroke-width="1" x="6.08189655" y="5.32758621" width="50.5948276" height="64.1724138" rx="2"></rect>
                    </g>
                    <path d="M1.5980645,23.8362069 L12.4601335,23.8362069" id="Line-5" stroke="#437336" stroke-linecap="round" stroke-linejoin="round"></path>
                    <path d="M1.5980645,50.9913793 L12.4601335,50.9913793" id="Line-5" stroke="#437336" stroke-linecap="round" stroke-linejoin="round"></path>
                    <path d="M40.0074624,44.1313064 C39.6231854,43.4093924 38.9809764,42.8800875 38.1997878,42.640704 C37.4179272,42.4029334 36.5894265,42.4822351 35.8669749,42.8670497 C35.2841749,43.1752509 34.6153528,43.2408428 33.9852406,43.0491747 C33.3635963,42.8585819 32.8317375,42.4197346 32.5262245,41.8463433 L28.6561691,34.5677951 C28.3416507,33.9776025 28.2760588,33.3003126 28.4718936,32.6607918 C28.6677284,32.0218086 29.1002584,31.4968047 29.6915262,31.1822863 C31.1653274,30.3978719 31.7266219,28.5607616 30.9431483,27.0869604 L29.5665253,24.4980972 C29.1958236,23.8018555 28.5768675,23.2915023 27.8233673,23.0604522 C27.0674478,22.8315527 26.2682483,22.9077629 25.5763077,23.2773893 L24.837055,23.6690589 C23.5045183,24.3794136 22.4176823,25.5224327 21.7776238,26.8880342 C20.7390409,29.1041795 20.8047672,31.7168332 21.9530284,33.8767953 L29.3323838,47.752032 C30.4837364,49.9172361 32.6201768,51.4361989 35.0453291,51.8141586 C35.3981543,51.8687289 35.7546085,51.8965517 36.1117348,51.8965517 C37.2520658,51.8965517 38.3923968,51.616711 39.4026193,51.0801479 L40.1487269,50.683774 C40.8453718,50.3130723 41.3551874,49.6941161 41.5851622,48.9395407 C41.8162123,48.1861749 41.7390612,47.3881852 41.3683595,46.6924811 L40.0074624,44.1313064 Z M39.9402576,48.4371176 C39.8436171,48.7516361 39.6315188,49.0099713 39.3433446,49.1633327 L38.5956241,49.5611851 C37.5949446,50.0921029 36.428807,50.2904915 35.3094439,50.1141461 C33.4166881,49.8189827 31.7496059,48.6340277 30.850809,46.9434238 L23.4719912,33.0681872 C22.5761512,31.3839006 22.5253444,29.3467889 23.3348934,27.6178783 C23.8190367,26.5872255 24.6396073,25.7245848 25.6445878,25.1884249 L26.3838406,24.797293 C26.5634118,24.7007869 26.7596498,24.6518618 26.959248,24.6518618 C27.0799478,24.6518618 27.2007821,24.6702759 27.3204066,24.7065665 C27.6343874,24.8019973 27.8932603,25.0157086 28.0471593,25.3056301 L29.4248576,27.8955685 C29.7623601,28.5314603 29.5193475,29.3252833 28.8819772,29.6633235 C27.8864054,30.1926284 27.1556204,31.0789253 26.8264514,32.1583687 C26.4971479,33.2372745 26.6069605,34.3802937 27.1372063,35.3757311 L31.0072617,42.655489 C31.5338785,43.641921 32.4117075,44.3665231 33.4828176,44.694617 C34.5550029,45.020157 35.6863284,44.9104788 36.6761207,44.3849373 C37.3297545,44.0362788 38.1419917,44.2872215 38.4890373,44.9393768 L39.8499344,47.4989387 L39.8499344,47.500014 C40.004371,47.789801 40.0363605,48.1231368 39.9402576,48.4371176 Z" id="Fill-1" fill="#FFFFFF"></path>
                    <path d="M38.5021123,10.6061681 L50.217057,10.6061681 L50.217057,10.6061681 C51.3216265,10.6061681 52.217057,11.5015986 52.217057,12.6061681 L52.217057,23.1194683" id="Path-17" stroke="#FFFFFF" opacity="0.799999952" stroke-linecap="round" stroke-linejoin="round"></path>
                </g>
            </g>
        </g>
    </g>
</svg>