<?xml version="1.0" encoding="UTF-8"?>
<svg width="565px" height="600px" viewBox="0 0 565 600" version="1.1" xmlns="http://www.w3.org/2000/svg" xmlns:xlink="http://www.w3.org/1999/xlink">
    <!-- Generator: Sketch 45.2 (43514) - http://www.bohemiancoding.com/sketch -->
    <title>banner2_image</title>
    <desc>Created with Sketch.</desc>
    <defs>
        <rect id="path-1" x="0" y="3" width="565" height="600"></rect>
        <filter x="-6.2%" y="-1.8%" width="112.4%" height="103.6%" filterUnits="objectBoundingBox" id="filter-3">
            <feOffset dx="0" dy="0" in="SourceAlpha" result="shadowOffsetOuter1"></feOffset>
            <feGaussianBlur stdDeviation="3" in="shadowOffsetOuter1" result="shadowBlurOuter1"></feGaussianBlur>
            <feColorMatrix values="0 0 0 0 0   0 0 0 0 0   0 0 0 0 0  0 0 0 0.5 0" type="matrix" in="shadowBlurOuter1" result="shadowMatrixOuter1"></feColorMatrix>
            <feMerge>
                <feMergeNode in="shadowMatrixOuter1"></feMergeNode>
                <feMergeNode in="SourceGraphic"></feMergeNode>
            </feMerge>
        </filter>
        <circle id="path-4" cx="50.2279852" cy="50.3553884" r="49.5867769"></circle>
        <filter x="-12.1%" y="-12.1%" width="124.2%" height="124.2%" filterUnits="objectBoundingBox" id="filter-5">
            <feOffset dx="0" dy="0" in="SourceAlpha" result="shadowOffsetOuter1"></feOffset>
            <feGaussianBlur stdDeviation="4" in="shadowOffsetOuter1" result="shadowBlurOuter1"></feGaussianBlur>
            <feColorMatrix values="0 0 0 0 0   0 0 0 0 0   0 0 0 0 0  0 0 0 0.5 0" type="matrix" in="shadowBlurOuter1"></feColorMatrix>
        </filter>
        <rect id="path-6" x="4.10304178" y="6.81773509" width="43.7793165" height="32.8344874"></rect>
        <path d="M50.2279852,99.9421652 C63.9209955,99.9421652 76.3176897,94.3919762 85.2911314,85.4185345 C94.264573,76.4450929 99.814762,64.0483987 99.814762,50.3553884 C99.814762,22.9693677 77.6140058,0.768611508 50.2279852,0.768611508 C22.8419645,0.768611508 0.641208321,22.9693677 0.641208321,50.3553884 C0.641208321,77.741409 22.8419645,99.9421652 50.2279852,99.9421652 Z" id="path-7"></path>
        <filter x="-6.0%" y="-6.1%" width="112.1%" height="112.1%" filterUnits="objectBoundingBox" id="filter-8">
            <feOffset dx="0" dy="0" in="SourceAlpha" result="shadowOffsetOuter1"></feOffset>
            <feGaussianBlur stdDeviation="2" in="shadowOffsetOuter1" result="shadowBlurOuter1"></feGaussianBlur>
            <feColorMatrix values="0 0 0 0 0   0 0 0 0 0   0 0 0 0 0  0 0 0 0.5 0" type="matrix" in="shadowBlurOuter1"></feColorMatrix>
        </filter>
        <rect id="path-9" x="0.437552311" y="2.66792658" width="48.0226784" height="42.6868253" rx="2"></rect>
        <path d="M2.43755231,2.66792658 L46.4602307,2.66792658 L46.4602307,2.66792658 C47.5648002,2.66792658 48.4602307,3.56335708 48.4602307,4.66792658 L48.4602307,13.3396329 L0.437552311,13.3396329 L0.437552311,4.66792658 L0.437552311,4.66792658 C0.437552311,3.56335708 1.33298281,2.66792658 2.43755231,2.66792658 Z" id="path-10"></path>
        <rect id="path-11" x="9.77529534" y="0" width="2.66792658" height="6.66981645"></rect>
        <rect id="path-12" x="36.4545611" y="0" width="2.66792658" height="6.66981645"></rect>
        <circle id="path-13" cx="50.2279852" cy="50.3553884" r="49.5867769"></circle>
        <filter x="-9.1%" y="-9.1%" width="118.2%" height="118.2%" filterUnits="objectBoundingBox" id="filter-14">
            <feOffset dx="0" dy="0" in="SourceAlpha" result="shadowOffsetOuter1"></feOffset>
            <feGaussianBlur stdDeviation="3" in="shadowOffsetOuter1" result="shadowBlurOuter1"></feGaussianBlur>
            <feColorMatrix values="0 0 0 0 0   0 0 0 0 0   0 0 0 0 0  0 0 0 0.5 0" type="matrix" in="shadowBlurOuter1"></feColorMatrix>
        </filter>
        <path d="M19.1800505,3.44259369 L39.3896854,3.44259369 L39.3896854,3.44259369 C39.6852951,3.44259369 39.9657574,3.5733836 40.1557607,3.7998429 L47.0530248,12.0204847 L47.0530248,12.0204847 C47.4080062,12.4435764 47.3527919,13.0743293 46.9297002,13.4293108 C46.7496065,13.5804126 46.5220355,13.6632354 46.2869494,13.6632354 L14.4080407,13.6632354 L14.4080407,13.6632354 C13.855756,13.6632354 13.4080407,13.2155202 13.4080407,12.6632354 C13.4080407,12.486901 13.4546677,12.3137018 13.543194,12.1611995 L18.3152037,3.94055779 L18.3152037,3.94055779 C18.494142,3.63230454 18.8236252,3.44259369 19.1800505,3.44259369 Z" id="path-15"></path>
        <circle id="path-16" cx="50.2279852" cy="50.3553884" r="49.5867769"></circle>
        <filter x="-6.0%" y="-6.1%" width="112.1%" height="112.1%" filterUnits="objectBoundingBox" id="filter-17">
            <feOffset dx="0" dy="0" in="SourceAlpha" result="shadowOffsetOuter1"></feOffset>
            <feGaussianBlur stdDeviation="2" in="shadowOffsetOuter1" result="shadowBlurOuter1"></feGaussianBlur>
            <feColorMatrix values="0 0 0 0 0   0 0 0 0 0   0 0 0 0 0  0 0 0 0.5 0" type="matrix" in="shadowBlurOuter1"></feColorMatrix>
        </filter>
        <path d="M1.54846501,0 L37.9410155,0 L37.9410155,-1.11022302e-16 C38.4933003,3.71174381e-15 38.9410155,0.44771525 38.9410155,1 L38.9410155,51.5557107 L1.54846501,51.5557107 L1.54846501,51.5557107 C0.996180258,51.5557107 0.548465008,51.1079955 0.548465008,50.5557107 L0.548465008,1 L0.548465008,1 C0.548465008,0.44771525 0.996180258,1.01453063e-16 1.54846501,0 Z" id="path-18"></path>
        <path d="M1.54846501,0 L37.9410155,0 L37.9410155,-1.11022302e-16 C38.4933003,-2.12475365e-16 38.9410155,0.44771525 38.9410155,1 L38.9410155,42.9234709 L30.4903272,51.5557107 L1.54846501,51.5557107 L1.54846501,51.5557107 C0.996180258,51.5557107 0.548465008,51.1079955 0.548465008,50.5557107 L0.548465008,1 L0.548465008,1 C0.548465008,0.44771525 0.996180258,1.01453063e-16 1.54846501,0 Z" id="path-19"></path>
        <circle id="path-20" cx="50.2279852" cy="50.3553884" r="49.5867769"></circle>
        <filter x="-6.0%" y="-6.1%" width="112.1%" height="112.1%" filterUnits="objectBoundingBox" id="filter-21">
            <feOffset dx="0" dy="0" in="SourceAlpha" result="shadowOffsetOuter1"></feOffset>
            <feGaussianBlur stdDeviation="2" in="shadowOffsetOuter1" result="shadowBlurOuter1"></feGaussianBlur>
            <feColorMatrix values="0 0 0 0 0   0 0 0 0 0   0 0 0 0 0  0 0 0 0.5 0" type="matrix" in="shadowBlurOuter1"></feColorMatrix>
        </filter>
        <rect id="path-22" x="7.60544315" y="0" width="42.6403534" height="53.861499" rx="2"></rect>
        <rect id="path-23" x="4.61313765" y="3.98974067" width="42.6403534" height="53.861499" rx="2"></rect>
        <circle id="path-24" cx="50.2279852" cy="50.3553884" r="49.5867769"></circle>
        <filter x="-6.0%" y="-6.1%" width="112.1%" height="112.1%" filterUnits="objectBoundingBox" id="filter-25">
            <feOffset dx="0" dy="0" in="SourceAlpha" result="shadowOffsetOuter1"></feOffset>
            <feGaussianBlur stdDeviation="2" in="shadowOffsetOuter1" result="shadowBlurOuter1"></feGaussianBlur>
            <feColorMatrix values="0 0 0 0 0   0 0 0 0 0   0 0 0 0 0  0 0 0 0.5 0" type="matrix" in="shadowBlurOuter1"></feColorMatrix>
        </filter>
        <rect id="path-26" x="0" y="41.9954654" width="61.5933493" height="8.39909308" rx="4.19954654"></rect>
        <circle id="path-27" cx="50.2279852" cy="50.3553884" r="49.5867769"></circle>
        <filter x="-6.0%" y="-6.1%" width="112.1%" height="112.1%" filterUnits="objectBoundingBox" id="filter-28">
            <feOffset dx="0" dy="0" in="SourceAlpha" result="shadowOffsetOuter1"></feOffset>
            <feGaussianBlur stdDeviation="2" in="shadowOffsetOuter1" result="shadowBlurOuter1"></feGaussianBlur>
            <feColorMatrix values="0 0 0 0 0   0 0 0 0 0   0 0 0 0 0  0 0 0 0.5 0" type="matrix" in="shadowBlurOuter1"></feColorMatrix>
        </filter>
        <rect id="path-29" x="0" y="0" width="57.8512397" height="41.0951724" rx="4"></rect>
    </defs>
    <g id="HomePage" stroke="none" stroke-width="1" fill="none" fill-rule="evenodd">
        <g id="banner2_image">
            <g id="Group-3">
                <mask id="mask-2" fill="white">
                    <use xlink:href="#path-1"></use>
                </mask>
                <use id="Mask" fill="#D8D8D8" opacity="0" xlink:href="#path-1"></use>
                <g mask="url(#mask-2)">
                    <g transform="translate(7.000000, 32.000000)">
                        <circle id="Oval-12" stroke="#FFFFFF" stroke-width="2" stroke-dasharray="4,8" cx="275" cy="274" r="224"></circle>
                        <circle id="Oval-12" stroke="#FFFFFF" stroke-width="2" opacity="0.5" stroke-dasharray="4,8" cx="275" cy="274" r="149.594907"></circle>
                        <g id="Group" filter="url(#filter-3)" stroke="none" stroke-width="1" fill-rule="evenodd" transform="translate(208.000000, 210.000000)">
                            <g id="Group-33" transform="translate(0.587226, 0.000000)">
                                <g id="Group-30">
                                    <path d="M15.7030973,217.453825 L16.1159134,192.84015 C16.1159134,192.84015 12.8237373,147.58308 11.6202295,122.491884 C11.6202295,122.491884 10.9602414,112.126188 13.2520825,103.589047 C13.2520825,103.589047 17.6817676,82.9262421 17.5044767,81.6761469 C17.5044767,81.6761469 19.866199,70.7345788 19.9541974,64.4206922 C19.9541974,64.4206922 21.0088843,61.3640413 19.0560959,54.7369839 C19.0560959,54.7369839 16.5688465,46.5194844 19.9671384,42.9024906 C19.9671384,42.9024906 23.554368,39.3670247 29.201796,43.0215473 C29.201796,43.0215473 34.1219429,45.2978593 37.509882,53.3458324 C37.509882,53.3458324 46.7354809,74.6906254 42.7483761,93.3747603 C42.7483761,93.3747603 42.9204907,109.085066 43.6205957,111.401495 L116.474228,3.48437529 C116.474228,3.48437529 121.720487,-1.76447159 128.465307,1.2171219 C128.465307,1.2171219 134.384494,3.53743316 134.481551,11.4495263 C134.481551,11.4495263 135.137657,14.2991222 128.673656,22.0520417 L77.9205677,98.3544355 L120.827562,161.657651 C120.827562,161.657651 115.54895,173.282501 97.8470332,185.813217 C97.8470332,185.813217 86.3179462,194.724351 77.1479934,196.414438 L77.5181044,218.408867 L15.7030973,217.453825" id="Fill-264" fill="#E5B97F"></path>
                                    <path d="M16.1159134,192.84015 C16.1159134,192.84015 12.8237373,147.58308 11.6202295,122.491884 C11.6202295,122.491884 10.9602414,112.126188 13.2520825,103.589047 C13.2520825,103.589047 17.6817676,82.9262421 17.5044767,81.6761469 C17.5044767,81.6761469 19.866199,70.7345788 19.9541974,64.4206922 C19.9541974,64.4206922 21.0088843,61.3640413 19.0560959,54.7369839 C19.0560959,54.7369839 16.5688465,46.5194844 19.9671384,42.9024906 C19.9671384,42.9024906 30.4788964,50.7280727 26.4917916,69.4122076 C26.4917916,69.4122076 17.5044767,109.290061 17.5044767,122.491884 C17.5044767,131.293099 19.1115237,161.953008 22.3256175,214.47161 L15.7030973,217.453825 L16.1159134,192.84015 Z" id="Fill-264" fill-opacity="0.100000001" fill="#000000"></path>
                                    <path d="M22.7953386,212.735074 C60.4559701,211.468294 73.4632031,212.849845 77.4454033,199.391519 L77.4454033,217.124873 L15.3810995,219.408867 L22.7953386,212.735074 Z" id="Path-31" fill-opacity="0.200000018" fill="#000000"></path>
                                    <polyline id="Fill-265" fill="#DEDFDB" points="83.9795177 229.578195 83.9924586 212.678617 8.8482793 212.620383 8.83404426 229.519961 83.9795177 229.578195"></polyline>
                                    <polyline id="Fill-265" fill-opacity="0.200000018" fill="#000000" points="83.9795177 242.578195 83.9924586 225.678617 8.8482793 225.620383 8.83404426 242.519961 83.9795177 242.578195"></polyline>
                                    <polyline id="Fill-266" fill="#394749" points="92.497247 227.61376 92.2850155 498.879239 0.105377556 498.879239 0.318903132 227.541291 92.497247 227.61376"></polyline>
                                    <path d="M92.2850155,374.118137 L0.105377556,374.118137 L3.70092066,361 C30.4240385,359.813616 60.0228139,315.351536 92.497247,227.61376 L92.2850155,374.118137 Z" id="Fill-266" fill-opacity="0.200000018" fill="#000000"></path>
                                </g>
                                <path d="M41.9939821,67.6156139 L36.8234976,115.023422 L36.8234976,160.036188 C36.0757609,169.664249 41.0944125,174.685622 51.8794521,175.100306 C62.6644918,175.514989 82.4952945,175.722331 111.37186,175.722331 L122.84423,167.094764 L41.9939821,67.6156139 Z" id="Path-5" fill="#000000" opacity="0.200000018"></path>
                                <g id="Group-32" transform="translate(40.821785, 3.930987)">
                                    <path d="M86.6237757,154.97542 C86.5901292,162.409992 80.1675387,168.406825 72.2826216,168.370591 L14.2593111,168.110478 C6.37309987,168.075537 0.00615544385,162.02047 0.0398018982,154.587191 L0.672614058,13.6797231 C0.706260512,6.24644484 7.12755691,0.248317313 15.0137682,0.284551957 L73.0357845,0.54466493 C80.9207017,0.579605479 87.2902343,6.63467316 87.2565878,14.0679514 L86.6237757,154.97542" id="Fill-267" fill="#535350"></path>
                                    <path d="M55.5512751,9.66544224 C55.5460988,10.8042453 54.7256429,11.7217582 53.7214257,11.7178759 L35.7736305,11.6376421 C34.7694132,11.6324657 33.958016,10.7071882 33.9631924,9.56967925 C33.9683688,8.42958209 34.7875305,7.50948097 35.7930419,7.51465735 L53.7408371,7.5948912 C54.7437602,7.59877349 55.5564515,8.52663917 55.5512751,9.66544224" id="Fill-268" fill="#E5E5E0"></path>
                                    <path d="M14.8856528,9.85567411 C14.8791823,11.1665917 13.7856726,12.226455 12.4436967,12.2199846 C11.1004267,12.2135141 10.0159756,11.1445921 10.021152,9.83367451 C10.0276225,8.5201687 11.1211322,7.46418767 12.4644022,7.47065814 C13.8063781,7.47583452 14.8908292,8.5421683 14.8856528,9.85567411" id="Fill-269" fill="#E5E5E0"></path>
                                    <path d="M24.155251,9.8595564 C24.1733683,10.5738965 23.593614,11.1691799 22.8598625,11.1872972 C22.1274051,11.2041205 21.5191807,10.6373071 21.5023575,9.92296702 C21.4855342,9.20603873 22.0652885,8.61334349 22.797746,8.59652027 C23.5314975,8.57840294 24.1384277,9.1426281 24.155251,9.8595564" id="Fill-270" fill="#E5E5E0"></path>
                                    <path d="M19.7346245,9.83885089 C19.7527418,10.5544851 19.1729875,11.1497685 18.439236,11.1678858 C17.7067786,11.1847091 17.0985542,10.6178957 17.081731,9.90226151 C17.0649078,9.18662731 17.6446621,8.59393208 18.3771195,8.57581475 C19.110871,8.55899153 19.7178013,9.12321668 19.7346245,9.83885089" id="Fill-271" fill="#E5E5E0"></path>
                                    <polyline id="Fill-272" fill="#DDDDDD" points="83.0624279 149.326698 3.65161936 148.969528 4.24431459 16.9926047 83.6551231 17.3497748 83.0624279 149.326698"></polyline>
                                    <path d="M52.5386234,162.016587 L34.0602495,161.933765 C32.6406279,161.927295 31.4837075,160.761316 31.490178,159.3404 L31.5005308,156.873856 C31.5070012,155.452941 32.6742744,154.29602 34.09519,154.302491 L52.5722698,154.385313 C53.9931855,154.391783 55.1501059,155.559056 55.1436354,156.979972 L55.1319885,159.446516 C55.1255181,160.867432 53.9582449,162.023058 52.5386234,162.016587" id="Fill-273" fill="#E5E5E0"></path>
                                </g>
                                <g id="Group-31" transform="translate(112.789079, 56.545731)">
                                    <path d="M3.18304047,26.4038046 L3.13386488,26.3559231 C-0.934767903,22.3584655 -0.994296246,15.7585841 3.00316135,11.6899513 L11.183132,3.36374793 C15.1805896,-0.704884855 21.780471,-0.764413198 25.8491038,3.23304439 L25.8982794,3.28221998 C29.9669122,7.27967757 30.0251464,13.8782649 26.0276888,17.9481918 L17.8490123,26.273101 C13.8515547,30.3430279 7.25167325,30.4012622 3.18304047,26.4038046" id="Fill-274" fill="#E5B97F"></path>
                                    <path d="M12.1102193,18.1748548 C9.69939662,14.7814456 5.67709305,13.649725 0.0433086267,14.7796929 C4.04076622,10.7110602 10.6406476,10.6515318 14.7092804,14.6489894 L14.758456,14.698165 C18.8270888,18.6956226 18.885323,25.2942099 14.8878654,29.3641368 C15.4469241,25.2980247 14.5210421,21.568264 12.1102193,18.1748548 Z" id="Fill-274" fill-opacity="0.1" fill="#000000" transform="translate(8.945831, 20.526637) scale(-1, -1) translate(-8.945831, -20.526637) "></path>
                                    <path d="M3.95561482,55.1223474 L3.90643923,55.0744659 C-0.162193549,51.0770083 -0.220427796,44.4771269 3.77702979,40.4084941 L11.9570005,32.0822908 C15.953164,28.013658 22.5530454,27.9541296 26.6229723,31.9515872 L26.6708538,32.0007628 C30.7407806,35.9982204 30.7990149,42.5968077 26.8015573,46.6667346 L18.6215866,54.9916439 C14.624129,59.0615708 8.0255417,59.119805 3.95561482,55.1223474" id="Fill-275" fill="#E5B97F"></path>
                                    <path d="M12.8834521,46.8933977 C10.4726294,43.4999885 6.45032582,42.3682679 0.816541395,43.4982358 C4.81399899,39.429603 11.4138804,39.3700747 15.4825132,43.3675323 L15.5316888,43.4167078 C19.6003216,47.4141654 19.6585558,54.0127528 15.6610982,58.0826796 C16.2201569,54.0165675 15.2942748,50.2868069 12.8834521,46.8933977 Z" id="Fill-274" fill-opacity="0.1" fill="#000000" transform="translate(9.719064, 49.245180) scale(-1, -1) translate(-9.719064, -49.245180) "></path>
                                    <path d="M4.98700805,83.5833655 L4.93783247,83.5341899 C0.869199685,79.5367323 0.810965438,72.938145 4.80842303,68.8682181 L12.9870996,60.5433088 C16.9845572,56.473382 23.5844386,56.4151477 27.6530714,60.4126053 L27.702247,60.4604868 C31.7721739,64.4579444 31.8304081,71.0578258 27.8329505,75.1264586 L19.6529798,83.4526619 C15.6555223,87.5212947 9.05564084,87.5808231 4.98700805,83.5833655" id="Fill-276" fill="#E5B97F"></path>
                                    <path d="M13.9148453,75.3539362 C11.5040226,71.960527 7.48171905,70.8288064 1.84793463,71.9587743 C5.84539222,67.8901416 12.4452736,67.8306132 16.5139064,71.8280708 L16.563082,71.8772464 C20.6317148,75.874704 20.689949,82.4732913 16.6924915,86.5432182 C17.2515501,82.4771061 16.3256681,78.7473454 13.9148453,75.3539362 Z" id="Fill-274" fill-opacity="0.1" fill="#000000" transform="translate(10.750457, 77.705718) scale(-1, -1) translate(-10.750457, -77.705718) "></path>
                                </g>
                            </g>
                            <circle id="Oval-4" fill="#6739B7" cx="85.0623821" cy="87.0906379" r="25.4856362"></circle>
                            <text id="jz" font-family="AbsolutPro-MediumIt, Absolut Pro reduced" font-size="32" font-style="italic" font-weight="500" fill="#FFFFFF">
                                <tspan x="77.1436222" y="93.576274">jz</tspan>
                            </text>
                        </g>
                        <g id="Group-35" stroke="none" stroke-width="1" fill-rule="evenodd" transform="translate(50.000000, 362.000000)">
                            <g id="Oval-5">
                                <use fill="black" fill-opacity="1" filter="url(#filter-5)" xlink:href="#path-4"></use>
                                <use fill="#8A66C8" fill-rule="evenodd" xlink:href="#path-4"></use>
                            </g>
                            <g id="invitevisitoricon" transform="translate(23.909344, 22.429769)">
                                <g id="invitevisitor" transform="translate(0.803489, -0.000000)">
                                    <path d="M22.5302877,1.26935657 C22.4037393,1.26935657 14.9358232,8.28340687 0.126539157,22.3115075 L0.126539157,55.9691538 L51.8588609,55.9691538 L51.8588609,22.4938 L29.0373025,1.26935657 C27.0075675,-0.237916016 24.8385626,-0.237916016 22.5302877,1.26935657 Z" id="Path-3" stroke="#55469B" fill="#D15E50" stroke-linecap="round" stroke-linejoin="round"></path>
                                    <g id="Rectangle-7">
                                        <use fill="#EAB9AE" fill-rule="evenodd" xlink:href="#path-6"></use>
                                        <rect stroke="#55469B" stroke-width="1" x="4.60304178" y="7.31773509" width="42.7793165" height="31.8344874"></rect>
                                    </g>
                                    <rect id="Rectangle" fill="#7D605A" x="10.8693218" y="14.6112291" width="30.2467565" height="1.40318322" rx="0.701591611"></rect>
                                    <rect id="Rectangle" fill="#7D605A" x="10.8693218" y="22.4168437" width="30.2467565" height="1.40318322" rx="0.701591611"></rect>
                                    <path d="M19.5400417,37.3753317 C19.4134934,37.3753317 12.9423258,32.3540569 0.126539157,22.3115075 L0.126539157,55.9691538 L51.8588609,55.9691538 L51.8588609,22.4938 L31.919063,37.1778764 C27.6898546,33.2713399 23.5635142,33.3371583 19.5400417,37.3753317 Z" id="Path-3" stroke="#55469B" fill="#E37B6D" stroke-linecap="round" stroke-linejoin="round"></path>
                                    <path d="M0.455661089,55.7253229 L19.9222129,37.0999808 C23.9812507,33.3831743 27.928308,33.3831743 31.7633849,37.0999808 C31.8293055,37.0999808 38.5809965,43.3084281 52.018458,55.7253229" id="Path-4" stroke="#55469B"></path>
                                    <circle id="Oval-18" fill="#FFFFFF" opacity="0.8" cx="25.5151515" cy="3.72206017" r="1.60697888"></circle>
                                </g>
                            </g>
                        </g>
                        <g id="Group-36" stroke="none" stroke-width="1" fill-rule="evenodd" transform="translate(0.000000, 204.000000)">
                            <g id="Oval-5">
                                <use fill="black" fill-opacity="1" filter="url(#filter-8)" xlink:href="#path-7"></use>
                                <use fill="#8A66C8" fill-rule="evenodd" xlink:href="#path-7"></use>
                            </g>
                            <g id="attendanceicon" transform="translate(21.302365, 23.654816)">
                                <g id="attendance">
                                    <g id="Group-13" transform="translate(8.900191, 0.000000)">
                                        <g id="Rectangle-3">
                                            <use fill="#A3DBE3" fill-rule="evenodd" xlink:href="#path-9"></use>
                                            <rect stroke="#55469B" stroke-width="1" x="0.937552311" y="3.16792658" width="47.0226784" height="41.6868253" rx="2"></rect>
                                        </g>
                                        <g id="Rectangle-3">
                                            <use fill="#60BECD" fill-rule="evenodd" xlink:href="#path-10"></use>
                                            <path stroke="#55469B" stroke-width="1" d="M0.937552311,12.8396329 L47.9602307,12.8396329 L47.9602307,4.66792658 C47.9602307,3.83949945 47.2886579,3.16792658 46.4602307,3.16792658 L2.43755231,3.16792658 C1.60912519,3.16792658 0.937552311,3.83949945 0.937552311,4.66792658 L0.937552311,12.8396329 Z"></path>
                                        </g>
                                        <circle id="Oval-19" fill="#FFFFFF" opacity="0.799999952" cx="4.77056179" cy="6.66981645" r="1.48336512"></circle>
                                        <rect id="Rectangle-3" fill="#569FAB" x="9.77529534" y="20.0094493" width="6.66981645" height="6.66981645"></rect>
                                        <g id="Rectangle-3">
                                            <use fill="#0C7B79" fill-rule="evenodd" xlink:href="#path-11"></use>
                                            <rect stroke="#55469B" stroke-width="1" x="10.2752953" y="0.5" width="1.66792658" height="5.66981645"></rect>
                                        </g>
                                        <g id="Rectangle-3">
                                            <use fill="#0C7B79" fill-rule="evenodd" xlink:href="#path-12"></use>
                                            <rect stroke="#55469B" stroke-width="1" x="36.9545611" y="0.5" width="1.66792658" height="5.66981645"></rect>
                                        </g>
                                        <rect id="Rectangle-3" fill="#569FAB" x="21.7809649" y="20.0094493" width="6.66981645" height="6.66981645"></rect>
                                        <rect id="Rectangle-3" fill="#569FAB" x="33.7866346" y="20.0094493" width="6.66981645" height="6.66981645"></rect>
                                        <rect id="Rectangle-3" fill="#36BEBC" x="9.77529534" y="32.015119" width="6.66981645" height="6.66981645"></rect>
                                        <rect id="Rectangle-3" fill="#569FAB" x="21.7809649" y="32.015119" width="6.66981645" height="6.66981645"></rect>
                                        <rect id="Rectangle-3" fill="#569FAB" x="33.7866346" y="32.015119" width="6.66981645" height="6.66981645"></rect>
                                    </g>
                                    <g id="Group-26" transform="translate(0.000000, 25.454613)">
                                        <circle id="Oval-11" stroke="#55469B" fill="#56B5B2" cx="13.3396329" cy="13.3396329" r="13.3396329"></circle>
                                        <path d="M12.9665098,13.2967141 L12.9665098,5.78553412 C12.9665098,5.3354665 12.5752139,4.97278315 12.1266929,4.97278315 C11.7052379,4.97278315 11.3294082,5.3354665 11.3294082,5.78553412 L11.3294082,13.4127109 C11.3294082,13.4266305 11.3580208,13.4854022 11.3580208,13.5275477 C11.3294082,13.7889272 11.4017129,14.0066145 11.5753215,14.1817697 L15.9101222,18.5165704 C16.2001142,18.8065625 16.7379527,18.8065625 17.0263981,18.5165704 C17.3600823,18.1824996 17.3392028,17.6991796 17.0263981,17.3852149 L12.9665098,13.2967141 Z" id="Fill-4" fill-opacity="0.799999952" fill="#FFFFFF"></path>
                                    </g>
                                </g>
                            </g>
                        </g>
                        <g id="Group-39" stroke="none" stroke-width="1" fill-rule="evenodd" transform="translate(69.368559, 60.000000)">
                            <g id="Oval-5">
                                <use fill="black" fill-opacity="1" filter="url(#filter-14)" xlink:href="#path-13"></use>
                                <use fill="#8A66C8" fill-rule="evenodd" xlink:href="#path-13"></use>
                            </g>
                            <g id="bookcabicon" transform="translate(17.170134, 30.357429)">
                                <g id="bookcab" transform="translate(0.000000, 0.248451)">
                                    <g id="Group-20" transform="translate(0.000000, -0.000000)">
                                        <path d="M3.31384921,14.3320373 C3.31104496,14.316895 4.11539814,14.316895 5.72690877,14.3320373 C7.12957193,14.3450075 8.28001378,13.627943 9.17823432,12.1808436 C9.15182708,12.2337267 15.1570407,1.8637822 15.1801078,1.83077301 C15.9266597,0.762450676 17.1302351,0.22828951 18.7908338,0.22828951 L39.446448,0.22828951 C41.4835137,0.22828951 43.0249498,0.924129512 44.0707565,2.31580952 C49.3556817,9.14222802 51.9825632,12.5342287 51.9514011,12.4918115 C53.2949638,13.9479861 54.6691421,14.5678798 56.0739358,14.3514927 L63.6106558,14.335877 C64.846102,14.6548811 65.4638251,15.5721219 65.4638251,17.0875995 C65.4638251,17.0118447 65.4638251,21.2505518 65.4638251,29.8037206 L0.020338523,29.8037206 L0.020338523,18.019729 C0.0285792756,15.5742381 1.12641617,14.3450075 3.31384921,14.3320373 Z" id="Path-2" stroke="#55469B" fill="#FAD799" stroke-linecap="round" stroke-linejoin="round"></path>
                                        <path d="M5.95326726,15.1628478 C7.62362106,14.8084799 8.90790823,13.9077463 9.80612877,12.4606469 C9.77972152,12.51353 15.7426458,2.32469073 15.7634388,2.29155218 C16.3566048,1.34620087 17.4847867,0.900363763 19.1479845,0.954040874 L38.837465,0.929783539 C40.7154826,0.828295774 42.1378685,1.28221866 43.1046227,2.29155218 C48.5629484,9.28594797 51.2765302,12.7619373 51.2453682,12.7195201 C52.5889309,14.1756947 53.9026046,14.9901372 55.1863892,15.1628478 L5.95326726,15.1628478 Z" id="Path-2" fill="#F5B64C"></path>
                                        <path d="M13.3107303,32.5110256 C12.0676685,32.5110256 11.0506541,31.4940112 11.0506541,30.2509494 C11.0506541,29.0078877 12.0676685,27.9908733 13.3107303,27.9908733 C14.553792,27.9908733 15.5708064,29.0078877 15.5708064,30.2509494 C15.5708064,31.4940112 14.553792,32.5110256 13.3107303,32.5110256 Z" id="Fill-2" fill="#777777"></path>
                                        <g id="Rectangle-4">
                                            <use fill="#FAD799" fill-rule="evenodd" xlink:href="#path-15"></use>
                                            <path stroke="#55469B" stroke-width="1" d="M19.1800505,3.94259369 C19.0018378,3.94259369 18.8370962,4.03744911 18.7476271,4.19157574 L13.9756174,12.4122175 C13.9313542,12.4884686 13.9080407,12.5750682 13.9080407,12.6632354 C13.9080407,12.9393778 14.1318984,13.1632354 14.4080407,13.1632354 L46.2869494,13.1632354 C46.4044925,13.1632354 46.518278,13.121824 46.6083248,13.0462731 C46.8198707,12.8687824 46.8474778,12.5534059 46.6699871,12.34186 L39.772723,4.12121829 C39.6777214,4.00798865 39.5374902,3.94259369 39.3896854,3.94259369 L19.1800505,3.94259369 Z"></path>
                                        </g>
                                        <path d="M30.2820582,4.21894078 L30.2820582,13.0558709" id="Path-8" stroke="#55469B"></path>
                                        <circle id="Oval-2" stroke="#55469B" fill="#F5B64C" cx="14.3770247" cy="31.2612979" r="7.26634553"></circle>
                                        <circle id="Oval-2" fill="#55469B" cx="14.3770247" cy="31.2612979" r="2.64230746"></circle>
                                        <circle id="Oval-2" stroke="#55469B" fill="#F5B64C" cx="51.4246035" cy="31.2612979" r="7.26634553"></circle>
                                        <circle id="Oval-2" fill="#55469B" cx="51.4246035" cy="31.2612979" r="2.64230746"></circle>
                                    </g>
                                    <path d="M0.434698936,19.7400223 L5.34395738,19.7400223" id="Path-9" stroke="#55469B" stroke-linecap="round" stroke-linejoin="round"></path>
                                    <path d="M60.5348904,19.7400223 L65.4441488,19.7400223" id="Path-9" stroke="#55469B" stroke-linecap="round" stroke-linejoin="round"></path>
                                    <path d="M33.7364593,18.4188685 L37.6999205,18.4188685" id="Path-9" stroke="#55469B" stroke-linecap="round" stroke-linejoin="round"></path>
                                    <path d="M33.7364593,18.4188685 L33.7364593,21.061176" id="Path-10" stroke="#55469B" stroke-linecap="round" stroke-linejoin="round"></path>
                                    <circle id="Oval-8" fill-opacity="0.799999952" fill="#FFFFFF" cx="54.0430469" cy="27.3762761" r="1.45757722"></circle>
                                    <path d="M20.4110981,10.0055883 L26.1489352,7.09043385" id="Line-6" stroke="#FFFFFF" opacity="0.799999952" stroke-linecap="round" stroke-linejoin="round"></path>
                                    <path d="M32.7671237,10.0055883 L38.5049608,7.09043385" id="Line-6" stroke="#FFFFFF" opacity="0.799999952" stroke-linecap="round" stroke-linejoin="round"></path>
                                </g>
                            </g>
                        </g>
                        <g id="Group-38" stroke="none" stroke-width="1" fill-rule="evenodd" transform="translate(384.239654, 60.000000)">
                            <g id="Oval-5">
                                <use fill="black" fill-opacity="1" filter="url(#filter-17)" xlink:href="#path-16"></use>
                                <use fill="#8A66C8" fill-rule="evenodd" xlink:href="#path-16"></use>
                            </g>
                            <g id="reportsicon" transform="translate(26.605396, 21.429769)">
                                <g id="reports" transform="translate(0.494780, 0.273917)">
                                    <g id="Group-24" transform="translate(5.870058, 0.000000)">
                                        <g id="Rectangle-10">
                                            <use fill="#9686D1" fill-rule="evenodd" xlink:href="#path-18"></use>
                                            <path stroke="#55469B" stroke-width="1" d="M38.4410155,51.0557107 L38.4410155,1 C38.4410155,0.723857625 38.2171579,0.5 37.9410155,0.5 L1.54846501,0.5 C1.27232263,0.5 1.04846501,0.723857625 1.04846501,1 L1.04846501,50.5557107 C1.04846501,50.8318531 1.27232263,51.0557107 1.54846501,51.0557107 L38.4410155,51.0557107 Z"></path>
                                        </g>
                                        <path d="M6.19617225,13.000103 L30.3286326,13.000103" id="Line-2" stroke="#55469B" stroke-linecap="round" stroke-linejoin="round"></path>
                                        <path d="M6.19617225,20.6786131 L30.3286326,20.6786131" id="Line-2" stroke="#55469B" stroke-linecap="round" stroke-linejoin="round"></path>
                                        <path d="M6.19617225,28.3571232 L30.3286326,28.3571232" id="Line-2" stroke="#55469B" stroke-linecap="round" stroke-linejoin="round"></path>
                                        <path d="M6.19617225,36.0356333 L30.3286326,36.0356333" id="Line-2" stroke="#55469B" stroke-linecap="round" stroke-linejoin="round"></path>
                                    </g>
                                    <g id="Group-24" transform="translate(0.000000, 4.773128)">
                                        <g id="Rectangle-10">
                                            <use fill="#BAAAF4" fill-rule="evenodd" xlink:href="#path-19"></use>
                                            <path stroke="#55469B" stroke-width="1" d="M30.2801009,51.0557107 L38.4410155,42.71947 L38.4410155,1 C38.4410155,0.723857625 38.2171579,0.5 37.9410155,0.5 L1.54846501,0.5 C1.27232263,0.5 1.04846501,0.723857625 1.04846501,1 L1.04846501,50.5557107 C1.04846501,50.8318531 1.27232263,51.0557107 1.54846501,51.0557107 L30.2801009,51.0557107 Z"></path>
                                        </g>
                                        <polygon id="Path-12" stroke="#55469B" fill="#E3DCF8" stroke-linecap="round" stroke-linejoin="round" points="30.0780552 50.7676635 38.1655771 42.5004225 30.0780552 42.1164529"></polygon>
                                        <path d="M7.67851011,11.2290431 L31.8109704,11.2290431" id="Line-2" stroke="#55469B" stroke-linecap="round" stroke-linejoin="round"></path>
                                        <path d="M7.67851011,18.1463527 L31.8109704,18.1463527" id="Line-2" stroke="#55469B" stroke-linecap="round" stroke-linejoin="round"></path>
                                        <path d="M7.67851011,25.0636623 L31.8109704,25.0636623" id="Line-2" stroke="#55469B" stroke-linecap="round" stroke-linejoin="round"></path>
                                        <circle id="Oval-19" fill="#FFFFFF" opacity="0.799999952" cx="5.52306622" cy="5.0311955" r="1.60697888"></circle>
                                    </g>
                                    <text id="₹" font-family="SourceSansPro-Regular, Source Sans Pro" font-size="22" font-weight="normal" fill="#FFFFFF">
                                        <tspan x="13.8263307" y="49.5268178">₹</tspan>
                                    </text>
                                </g>
                            </g>
                        </g>
                        <g id="Group-37" stroke="none" stroke-width="1" fill-rule="evenodd" transform="translate(402.000000, 362.000000)">
                            <g id="Oval-5">
                                <use fill="black" fill-opacity="1" filter="url(#filter-21)" xlink:href="#path-20"></use>
                                <use fill="#8A66C8" fill-rule="evenodd" xlink:href="#path-20"></use>
                            </g>
                            <g id="Group-10" transform="translate(24.793388, 21.429769)">
                                <g id="Group-9" transform="translate(0.198600, 16.333001)"></g>
                                <g id="Rectangle-13">
                                    <use fill="#508643" fill-rule="evenodd" xlink:href="#path-22"></use>
                                    <rect stroke="#55469B" stroke-width="1" x="8.10544315" y="0.5" width="41.6403534" height="52.861499" rx="2"></rect>
                                </g>
                                <path d="M44.0547697,4.54528365 L46.4511907,7.41645767 L46.965302,54.4570837 C47.1483496,52.5860388 47.7265748,51.8784095 48.6999776,52.3341956 C48.6155888,29.5485243 48.5733944,12.4813188 48.5733944,1.13257913 C48.5733944,1.09867162 47.5165943,1.09867162 45.4029939,1.13257913 L44.0547697,4.54528365 Z" id="Path-25" fill="#EEFCEB"></path>
                                <path d="M8.49522745,1.11228336 C9.17987217,2.71319774 8.45748714,3.81135592 6.32807234,4.40675789 C3.13395013,5.29986085 38.5646576,4.91619309 46.0014015,4.91619309 C44.7202975,2.61353601 45.4242598,1.34556609 48.1132884,1.11228336 L8.49522745,1.11228336 Z" id="Path-25" fill="#B8DBB0"></path>
                                <g id="Rectangle-13">
                                    <use fill="#84B673" fill-rule="evenodd" xlink:href="#path-23"></use>
                                    <rect stroke="#55469B" stroke-width="1" x="5.11313765" y="4.48974067" width="41.6403534" height="52.861499" rx="2"></rect>
                                </g>
                                <path d="M1.32071446,19.6993445 L10.297631,19.6993445" id="Line-5" stroke="#55469B" stroke-linecap="round" stroke-linejoin="round"></path>
                                <path d="M1.32071446,42.1416358 L10.297631,42.1416358" id="Line-5" stroke="#55469B" stroke-linecap="round" stroke-linejoin="round"></path>
                                <path d="M33.0640185,36.472154 C32.7464342,35.8755309 32.2156829,35.4380888 31.5700726,35.2402512 C30.9239068,35.0437466 30.2391954,35.1092852 29.642128,35.4273138 C29.1604752,35.6820256 28.6077296,35.7362337 28.0869757,35.5778304 C27.5732201,35.4203156 27.1336674,35.0576319 26.8811773,34.5837548 L23.6827844,28.5684257 C23.4228518,28.0806633 23.3686436,27.5209195 23.5304906,26.9923899 C23.6923375,26.4643046 24.0498004,26.0304171 24.5384514,25.7704845 C25.7564689,25.1222082 26.2203486,23.6039352 25.5728499,22.3859177 L24.4351449,20.2463614 C24.1287799,19.670955 23.6172458,19.2491755 22.9945184,19.058225 C22.3697915,18.8690518 21.7092961,18.9320355 21.1374444,19.2375118 L20.5264917,19.5612057 C19.4252217,20.1482757 18.5270102,21.0929196 17.9980362,22.2215159 C17.1397032,24.0530409 17.1940225,26.2122588 18.1429986,27.9973515 L24.2416395,39.4644892 C25.1931705,41.2539141 26.9588238,42.5092553 28.9630819,42.8216187 C29.254673,42.8667181 29.5492632,42.8897122 29.8444089,42.8897122 C30.7868312,42.8897122 31.7292535,42.6584388 32.5641481,42.2149982 L33.180766,41.8874165 C33.7565056,41.5810515 34.1778408,41.0695175 34.3679027,40.4459014 C34.5588531,39.8232851 34.4950919,39.1637894 34.1887269,38.5888274 L33.0640185,36.472154 Z M33.0084774,40.0306757 C32.9286092,40.2906083 32.7533213,40.5041085 32.5151608,40.6308534 L31.89721,40.9596571 C31.0702022,41.3984322 30.1064521,41.5623897 29.1813586,41.4166497 C27.6170976,41.1727129 26.2393437,40.1934113 25.4965363,38.7962181 L19.3983398,27.3290804 C18.6579762,25.937108 18.6159871,24.2535445 19.2850359,22.8246928 C19.6851543,21.9729137 20.3633118,21.2599874 21.1938742,20.8168801 L21.8048269,20.4936306 C21.9532329,20.4138735 22.115413,20.3734395 22.2803703,20.3734395 C22.3801222,20.3734395 22.4799852,20.3886578 22.5788484,20.41865 C22.8383367,20.4975184 23.0522812,20.6741393 23.1794705,20.9137439 L24.3180641,23.0541888 C24.5969918,23.5797192 24.396155,24.2357713 23.8694027,24.5151433 C23.046616,24.9525855 22.4426615,25.6850622 22.170621,26.5771642 C21.8984693,27.4688219 21.9892235,28.4134658 22.4274433,29.2361414 L25.6258361,35.2524703 C26.0610566,36.0677033 26.7865352,36.6665481 27.6717501,36.9377 C28.5578536,37.2067413 29.4928334,37.1160982 30.3108435,36.6817663 C30.8510368,36.3936188 31.5223072,36.6010095 31.8091217,37.1399808 L32.9338301,39.2553212 L32.9338301,39.2562099 C33.0614636,39.4957033 33.0879012,39.7711875 33.0084774,40.0306757 Z" id="Fill-1" fill="#FFFFFF"></path>
                                <path d="M31.8199275,8.76542817 L41.1545926,8.76542817 L41.1545926,8.76542817 C42.2591621,8.76542817 43.1545926,9.66085867 43.1545926,10.7654282 L43.1545926,19.1069986" id="Path-17" stroke="#FFFFFF" opacity="0.799999952" stroke-linecap="round" stroke-linejoin="round"></path>
                            </g>
                        </g>
                        <g id="Group-41" stroke="none" stroke-width="1" fill-rule="evenodd" transform="translate(231.000000, 0.000000)">
                            <g id="Oval-5">
                                <use fill="black" fill-opacity="1" filter="url(#filter-25)" xlink:href="#path-24"></use>
                                <use fill="#8A66C8" fill-rule="evenodd" xlink:href="#path-24"></use>
                            </g>
                            <g id="orderfoodicon" transform="translate(19.236250, 24.458185)">
                                <g id="orderfood" transform="translate(0.000000, 0.238611)">
                                    <path d="M5.63762299,42.6953898 C6.36397895,29.4304375 17.3503308,18.8979594 30.7966746,18.8979594 C44.2430185,18.8979594 55.2293703,29.4304375 55.9557263,42.6953898 L5.63762299,42.6953898 Z" id="Combined-Shape" stroke="#55469B" fill="#60BECD"></path>
                                    <g id="Rectangle-8">
                                        <use fill="#A3DBE3" fill-rule="evenodd" xlink:href="#path-26"></use>
                                        <rect stroke="#55469B" stroke-width="1" x="0.5" y="42.4954654" width="60.5933493" height="7.39909308" rx="3.69954654"></rect>
                                    </g>
                                    <circle id="Oval-8" stroke="#55469B" fill="#56B5B2" cx="30.7966746" cy="13.9984885" r="4.19954654"></circle>
                                    <circle id="Oval-8" fill-opacity="0.799999952" fill="#FFFFFF" cx="29.3968258" cy="12.5986396" r="1.39984885"></circle>
                                    <path d="M8.24659783,0.754155276 C10.8172626,3.46352309 11.1740574,6.1609624 9.3169824,8.84647322 C7.45990737,11.531984 7.73284093,14.4339401 10.1357831,17.5523414" id="Path-11" stroke="#FFFFFF" stroke-linecap="round" stroke-linejoin="round"></path>
                                    <path d="M15.2458421,0.754155276 C17.8165068,3.46352309 18.1733017,6.1609624 16.3162266,8.84647322 C14.4591516,11.531984 14.7320852,14.4339401 17.1350273,17.5523414" id="Path-11" stroke="#FFFFFF" stroke-linecap="round" stroke-linejoin="round"></path>
                                    <path d="M43.7750365,0.754155276 C46.3457012,3.46352309 46.7024961,6.1609624 44.8454211,8.84647322 C42.988346,11.531984 43.2612796,14.4339401 45.6642217,17.5523414" id="Path-11" stroke="#FFFFFF" stroke-linecap="round" stroke-linejoin="round"></path>
                                    <path d="M50.7742807,0.754155276 C53.3449455,3.46352309 53.7017403,6.1609624 51.8446653,8.84647322 C49.9875903,11.531984 50.2605238,14.4339401 52.663466,17.5523414" id="Path-11" stroke="#FFFFFF" stroke-linecap="round" stroke-linejoin="round"></path>
                                    <path d="M13.6324956,34.6060234 C15.1179386,29.7788092 18.4347464,26.4631901 23.582919,24.6591662" id="Path-13" stroke="#FFFFFF" opacity="0.799999952" stroke-linecap="round" stroke-linejoin="round"></path>
                                </g>
                            </g>
                        </g>
                        <g id="Group-40" stroke="none" stroke-width="1" fill-rule="evenodd" transform="translate(449.000000, 204.000000)">
                            <g id="Oval-5">
                                <use fill="black" fill-opacity="1" filter="url(#filter-28)" xlink:href="#path-27"></use>
                                <use fill="#8A66C8" fill-rule="evenodd" xlink:href="#path-27"></use>
                            </g>
                            <g id="offersicon" transform="translate(21.302365, 29.041774)">
                                <g id="offers" transform="translate(0.000000, 0.318642)">
                                    <g id="Rectangle-3">
                                        <use fill="#FAD799" fill-rule="evenodd" xlink:href="#path-29"></use>
                                        <rect stroke="#55469B" stroke-width="1" x="0.5" y="0.5" width="56.8512397" height="40.0951724" rx="4"></rect>
                                    </g>
                                    <path d="M1.28422414,1.28422414 L26.5371551,1.28422414 L26.5371551,1.28422414 C28.1940094,1.28422414 29.5371551,2.62736989 29.5371551,4.28422414 L29.5371551,36.8109482 L29.5371551,36.8109482 C29.5371551,38.4678025 28.1940094,39.8109482 26.5371551,39.8109482 L1.28422414,39.8109482 L1.28422414,1.28422414 Z" id="Rectangle-3" fill="#F5B64C" transform="translate(15.410690, 20.547586) scale(-1, 1) translate(-15.410690, -20.547586) "></path>
                                    <circle id="Oval-19" fill="#FFFFFF" opacity="0.799999952" cx="51.7616355" cy="34.855903" r="1.52240104"></circle>
                                    <g id="Group-2" transform="translate(5.259204, 10.108035)">
                                        <path d="M2.66787018,0.331256582 L17.910734,0.331256582 L17.910734,0.331256582 C19.0153035,0.331256582 19.910734,1.22668708 19.910734,2.33125658 L19.910734,5.9432618 L19.910734,5.9432618 C19.910734,7.0478313 19.0153035,7.9432618 17.910734,7.9432618 L2.66787018,7.9432618 L2.66787018,7.9432618 C1.56330068,7.9432618 0.667870178,7.0478313 0.667870178,5.9432618 L0.667870178,2.33125658 L0.667870178,2.33125658 C0.667870178,1.22668708 1.56330068,0.331256582 2.66787018,0.331256582 Z" id="Rectangle-3" fill="#FFFFFF" opacity="0.799999952"></path>
                                        <path d="M19.2315728,19.3132941 L2.67811194,19.3132941 C2.20205211,19.3132941 1.81594503,19.7497691 1.81594503,20.2875688 C1.81594503,20.8255308 2.20205211,21.2618435 2.67811194,21.2618435 L19.2315728,21.2618435 C19.7074889,21.2618435 20.0937397,20.8255308 20.0937397,20.2875688 C20.0937397,19.7497691 19.7074889,19.3132941 19.2315728,19.3132941 Z" id="Fill-4" fill="#89785C"></path>
                                        <path d="M3.10016917,15.0985827 C3.10016917,15.6363823 3.53526084,16.0728574 4.07171738,16.0728574 C4.60801199,16.0728574 5.04326559,15.6363823 5.04326559,15.0985827 L5.04326559,13.0199676 C5.04326559,12.482168 4.60801199,12.0456929 4.07171738,12.0456929 C3.53526084,12.0456929 3.10016917,12.482168 3.10016917,13.0199676 L3.10016917,15.0985827 Z" id="Fill-6" fill="#89785C"></path>
                                        <path d="M6.20896152,13.0199676 L6.20896152,15.0985827 C6.20896152,15.6363823 6.64421512,16.0728574 7.18050974,16.0728574 C7.71680435,16.0728574 8.15205795,15.6363823 8.15205795,15.0985827 L8.15205795,13.0199676 C8.15205795,12.482168 7.71680435,12.0456929 7.18050974,12.0456929 C6.64421512,12.0456929 6.20896152,12.482168 6.20896152,13.0199676 Z" id="Fill-7" fill="#89785C"></path>
                                        <path d="M9.31775388,13.0199676 L9.31775388,15.0985827 C9.31775388,15.6363823 9.75300748,16.0728574 10.2893021,16.0728574 C10.8257586,16.0728574 11.2608503,15.6363823 11.2608503,15.0985827 L11.2608503,13.0199676 C11.2608503,12.482168 10.8257586,12.0456929 10.2893021,12.0456929 C9.75300748,12.0456929 9.31775388,12.482168 9.31775388,13.0199676 Z" id="Fill-8" fill="#89785C"></path>
                                        <path d="M14.5845303,15.0985827 L14.5845303,13.0199676 C14.5845303,12.482168 14.1492768,12.0456929 13.6129821,12.0456929 C13.0766875,12.0456929 12.6414339,12.482168 12.6414339,13.0199676 L12.6414339,15.0985827 C12.6414339,15.6363823 13.0766875,16.0728574 13.6129821,16.0728574 C14.1492768,16.0728574 14.5845303,15.6363823 14.5845303,15.0985827 Z" id="Fill-10" fill="#89785C"></path>
                                        <path d="M17.6933227,15.0985827 L17.6933227,13.0199676 C17.6933227,12.482168 17.258231,12.0456929 16.7217745,12.0456929 C16.1854799,12.0456929 15.7502263,12.482168 15.7502263,13.0199676 L15.7502263,15.0985827 C15.7502263,15.6363823 16.1854799,16.0728574 16.7217745,16.0728574 C17.258231,16.0728574 17.6933227,15.6363823 17.6933227,15.0985827 Z" id="Fill-11" fill="#89785C"></path>
                                    </g>
                                    <g id="Group" transform="translate(33.158105, 10.273793)" fill="#89785C">
                                        <path d="M16.3078697,3.18231205 C15.9658412,2.8393237 15.4119418,2.8393237 15.0699133,3.18231205 L1.99549421,16.2934223 C1.6534657,16.6362644 1.6534657,17.1918645 1.99549421,17.5348529 C2.16650846,17.7063471 2.39049044,17.7920942 2.61447242,17.7920942 C2.83860032,17.7920942 3.06316596,17.7063471 3.23359655,17.5348529 L16.3078697,4.4237426 C16.6498983,4.08148587 16.6498983,3.52530041 16.3078697,3.18231205 Z" id="Fill-16"></path>
                                        <path d="M5.11113229,8.92179864 C7.39633214,8.92179864 9.25560145,7.05789691 9.25560145,4.76643035 C9.25560145,2.47496378 7.39633214,0.61033042 5.11113229,0.61033042 C2.82607834,0.61033042 0.967392704,2.47496378 0.967392704,4.76643035 C0.967392704,7.05789691 2.82607834,8.92179864 5.11113229,8.92179864 Z M5.11113229,2.3662435 C6.43065609,2.3662435 7.50460226,3.44320352 7.50460226,4.76643035 C7.50460226,6.08965718 6.43065609,7.16588557 5.11113229,7.16588557 C3.79160848,7.16588557 2.71839189,6.08965718 2.71839189,4.76643035 C2.71839189,3.44320352 3.79160848,2.3662435 5.11113229,2.3662435 Z" id="Fill-17"></path>
                                        <path d="M14.3700937,11.0401738 C12.0850398,11.0401738 10.2263542,12.9048072 10.2263542,15.1962738 C10.2263542,17.4877403 12.0850398,19.351642 14.3700937,19.351642 C16.6552936,19.351642 18.5145629,17.4877403 18.5145629,15.1962738 C18.5145629,12.9048072 16.6552936,11.0401738 14.3700937,11.0401738 Z M14.3700937,17.595729 C13.0505699,17.595729 11.9773534,16.5195006 11.9773534,15.1962738 C11.9773534,13.8730469 13.0505699,12.7960869 14.3700937,12.7960869 C15.6896176,12.7960869 16.7635637,13.8730469 16.7635637,15.1962738 C16.7635637,16.5195006 15.6896176,17.595729 14.3700937,17.595729 Z" id="Fill-18"></path>
                                    </g>
                                </g>
                            </g>
                        </g>
                    </g>
                </g>
            </g>
        </g>
    </g>
</svg>