<?xml version="1.0" encoding="UTF-8"?>
<svg width="565px" height="600px" viewBox="0 0 565 600" version="1.1" xmlns="http://www.w3.org/2000/svg" xmlns:xlink="http://www.w3.org/1999/xlink">
    <!-- Generator: Sketch 45.2 (43514) - http://www.bohemiancoding.com/sketch -->
    <title>banner3_image</title>
    <desc>Created with Sketch.</desc>
    <defs>
        <path d="M0.413737001,0.371661617 C1.08458826,0.330859082 1.7569709,0.294592706 2.43084814,0.262887656 C23.2501487,-0.716142102 44.2270305,1.57088532 63.2639404,8.76963992 L63.2639404,24.7593272 L0.413737001,24.7593272 L0.413737001,0.371661617 L0.413737001,0.371661617 Z" id="path-1"></path>
        <path d="M49.8237913,15.3142599 C47.3079641,11.744444 43.8624186,7.65454945 39.3771489,3.96611343 C26.8600152,1.04176091 13.802135,-0.121856663 0.722808353,0.067835323 C10.379265,1.2489867 26.0625813,6.14748234 34.6519065,24.7593272 L49.8237913,24.7593272 L49.8237913,15.3142599 L49.8237913,15.3142599 Z" id="path-3"></path>
    </defs>
    <g id="HomePage" stroke="none" stroke-width="1" fill="none" fill-rule="evenodd">
        <g id="banner3_image">
            <g id="Group-34" transform="translate(25.435475, 117.888083)">
                <path d="M248.700635,431.060523 C183.82186,431.060523 131.226833,423.620134 131.226833,414.442278 C131.226833,405.264423 183.82186,397.824033 248.700635,397.824033 C313.579411,397.824033 366.174438,405.264423 366.174438,414.442278 C366.174438,423.620134 313.579411,431.060523 248.700635,431.060523" id="Fill-34" fill="#000000" opacity="0.200000018"></path>
                <path d="M57.3042938,424.184008 C25.9725981,424.184008 0.573042938,419.822005 0.573042938,414.442278 C0.573042938,409.062551 25.9725981,404.700548 57.3042938,404.700548 C88.6359895,404.700548 114.035545,409.062551 114.035545,414.442278 C114.035545,419.822005 88.6359895,424.184008 57.3042938,424.184008" id="Fill-35" fill="#000000" opacity="0.200000018"></path>
                <path d="M459.580436,424.184008 C428.248741,424.184008 402.849186,419.822005 402.849186,414.442278 C402.849186,409.062551 428.248741,404.700548 459.580436,404.700548 C490.912132,404.700548 516.311687,409.062551 516.311687,414.442278 C516.311687,419.822005 490.912132,424.184008 459.580436,424.184008" id="Fill-36" fill="#000000" opacity="0.200000018"></path>
                <path d="M49.2782544,230.82213 C48.8989,242.555757 48.1619668,254.260732 48.1390451,266.003528 C48.1264381,271.667484 48.3888918,277.32571 48.8095053,282.973621 C49.2255345,288.557352 49.5556072,294.659113 51.1784648,300.041132 C51.6575287,301.631899 54.2648741,301.39466 54.1559959,299.63771 C53.8110241,294.075755 52.689006,288.545891 52.2523473,282.973621 C51.8111042,277.326856 51.6964956,271.6629 51.5601114,266.003528 C51.2781743,254.279069 51.3687151,242.54888 51.0271815,230.82213 C50.993945,229.694381 49.3149292,229.696673 49.2782544,230.82213" id="Fill-37" fill="#758F45"></path>
                <path d="M50.0025807,229.92016 C49.779094,229.767731 49.5475846,229.6302 49.312637,229.501839 C46.2709251,222.207002 39.6740548,218.562449 32.3219139,216.404369 C28.3220742,215.231923 24.2282554,214.423933 20.2421688,213.194183 C16.5231201,212.049243 12.6126751,209.106094 8.72859004,208.973148 C5.65707989,208.867708 8.2770322,219.630601 8.98645936,221.27065 C11.07692,226.107132 15.4755976,229.130507 20.446172,230.510394 C25.0660442,231.791718 29.9987978,232.020935 34.7596385,232.259321 C39.4540063,232.496561 45.1534914,233.651816 49.6931375,232.287973 C50.8128634,231.95217 50.9228877,230.544777 50.0025807,229.92016" id="Fill-38" fill="#758F45"></path>
                <path d="M18.2731932,220.140609 C22.3360676,222.331925 26.6121141,224.094605 31.0371516,225.398851 C33.857669,226.230909 36.620882,227.083597 39.3210603,228.264066 C41.5203991,229.22334 43.4206095,230.896625 45.7391412,231.477691 C46.4932658,231.667941 47.0158809,230.894333 46.6938308,230.235334 C44.7982047,226.356979 38.9394137,224.753605 35.1000261,223.609811 C29.6801859,221.998414 23.9039131,221.716477 18.7281893,219.364709 C18.2101585,219.128615 17.7551624,219.86211 18.2731932,220.140609" id="Fill-39" fill="#DEDDBB"></path>
                <path d="M49.5017412,232.287973 C54.0425334,233.651816 59.7408724,232.496561 64.4363862,232.259321 C69.197227,232.020935 74.1299806,231.791718 78.7487067,230.510394 C83.7192811,229.130507 88.1191048,226.107132 90.2084193,221.27065 C90.9189926,219.630601 93.5389449,208.867708 90.4674347,208.973148 C86.5833497,209.106094 82.6717586,212.049243 78.953856,213.194183 C74.9677694,214.423933 70.8728045,215.231923 66.8741109,216.404369 C59.52197,218.562449 52.9250997,222.207002 49.8822417,229.501839 C49.6484402,229.6302 49.4169308,229.767731 49.192298,229.92016 C48.2731371,230.544777 48.3820153,231.95217 49.5017412,232.287973" id="Fill-40" fill="#758F45"></path>
                <path d="M80.9216855,220.140609 C76.8599571,222.331925 72.5839107,224.094605 68.1588732,225.398851 C65.3383558,226.230909 62.5751428,227.083597 59.8749644,228.264066 C57.6756256,229.22334 55.7754153,230.896625 53.4568835,231.477691 C52.7016129,231.667941 52.1801439,230.894333 52.502194,230.235334 C54.39782,226.356979 60.256611,224.753605 64.0959987,223.609811 C69.5146928,221.998414 75.2909656,221.716477 80.4678355,219.364709 C80.9858663,219.128615 81.4408624,219.86211 80.9216855,220.140609" id="Fill-41" fill="#DEDDBB"></path>
                <path d="M171.740969,367.654468 C172.72431,380.657959 172.72431,393.661449 174.695578,405.219725 C184.546186,412.443504 202.278427,408.110154 214.100303,405.219725 C214.100303,392.215089 214.100303,377.76753 215.08479,364.76404 C202.278427,364.76404 190.457697,364.76404 177.651333,363.321118 C175.681212,366.209254 174.695578,369.099683 174.695578,373.434179" id="Fill-42" fill="#E38D8F"></path>
                <path d="M216.168988,367.654468 C217.153475,380.657959 217.153475,393.661449 219.123597,405.219725 C228.975351,412.443504 246.706446,408.110154 258.529468,405.219725 C258.529468,392.215089 258.529468,377.76753 259.513955,364.76404 C246.706446,364.76404 234.885716,364.76404 222.079352,363.321118 C220.109231,366.209254 219.123597,369.099683 219.123597,373.434179" id="Fill-43" fill="#E38D8F"></path>
                <path d="M329.513443,207.408741 C341.72728,219.245516 356.406348,229.65083 365.911984,243.95742 C368.402428,247.705121 372.849242,245.948171 374.434278,242.715063 C379.551552,235.077546 382.783514,225.848117 384.94847,216.988873 C386.624048,210.136426 389.975203,197.534065 384.163401,191.589318 C377.953908,185.235418 365.51773,189.11148 358.230916,191.102231 C349.0416,193.614452 340.080354,196.829222 331.134008,200.084106 C328.434976,201.065156 327.421836,205.382461 329.513443,207.408741" id="Fill-44" fill="#E2796F"></path>
                <path d="M342.515787,187.421003 C316.364399,160.39286 279.495963,152.127289 243.108882,153.838395 C173.830283,157.097863 120.348186,208.566288 122.632335,280.89806 C124.240293,331.768227 159.943161,374.488578 207.220349,390.314878 C247.889206,403.931525 296.756016,399.190167 331.10994,372.610144 C358.806251,351.182922 373.6813,316.58259 375.99754,282.248149 C378.327532,247.730334 366.695907,212.411406 342.515787,187.421003" id="Fill-45" fill="#EEA19A"></path>
                <path d="M335.602597,262.258119 C324.939414,252.50722 309.907351,249.525105 295.072416,250.143991 C266.824837,251.318729 245.019407,269.885321 245.951175,295.979404 C246.606736,314.329385 261.163173,329.741948 280.438045,335.450601 C297.019616,340.362725 316.945465,338.651619 330.952926,329.063465 C342.244164,321.334262 348.309251,308.85224 349.253626,296.46649 C350.202585,284.014267 345.460081,271.273231 335.602597,262.258119" id="Fill-46" fill="#E2796F"></path>
                <path d="M289.439404,279.796671 C282.358885,284.014267 283.603534,297.056724 283.286069,304.034095 C282.961726,311.128367 294.685039,311.0894 294.257549,304.034095 C294.035208,300.367767 293.615741,296.720921 293.354433,293.058031 C293.093126,289.422646 294.083344,285.909893 293.909139,282.361611 C293.802553,280.161126 291.454223,278.595573 289.439404,279.796671" id="Fill-47" fill="#722433"></path>
                <path d="M317.050905,282.361611 C316.899621,285.444582 317.732826,288.574543 317.672083,291.719403 C317.590711,295.826974 316.953487,299.932254 316.703641,304.034095 C316.275005,311.0894 327.999463,311.128367 327.675121,304.034095 C327.357655,297.056724 328.602304,284.014267 321.521786,279.796671 C319.506967,278.595573 317.158637,280.161126 317.050905,282.361611" id="Fill-48" fill="#722433"></path>
                <path d="M242.57366,248.084475 C246.136841,243.560874 250.866738,241.758081 256.532986,242.112221 C263.10235,242.521374 264.860446,248.058115 269.677445,251.004702 C270.432716,251.466574 271.386259,251.01387 271.636106,250.208172 C273.872119,242.983247 264.078815,237.744488 258.397668,236.698112 C250.850692,235.30791 242.925508,238.773673 239.283248,245.544749 C238.202489,247.552691 241.047074,250.022506 242.57366,248.084475" id="Fill-49" fill="#722433"></path>
                <path d="M352.557791,246.045588 C350.210607,239.995401 344.553527,235.521082 337.777868,236.566312 C332.20216,237.425876 323.34177,244.034207 326.62989,250.526784 C326.957671,251.174323 327.855056,251.354258 328.454459,251.004702 C332.267487,248.773273 332.895542,243.898969 337.555527,242.359776 C342.200613,240.822875 346.329961,243.952835 348.727572,247.661569 C349.958468,249.56178 353.452884,248.356097 352.557791,246.045588" id="Fill-50" fill="#722433"></path>
                <path d="M234.077726,200.084106 C225.131379,196.829222 216.17128,193.614452 206.980817,191.102231 C199.694003,189.11148 187.257825,185.235418 181.048332,191.589318 C175.236531,197.534065 178.587686,210.136426 180.263263,216.988873 C182.429365,225.848117 185.660182,235.077546 190.778601,242.715063 C192.362492,245.948171 196.809305,247.705121 199.29975,243.95742 C208.805386,229.65083 223.4856,219.245516 235.698291,207.408741 C237.791044,205.382461 236.775612,201.065156 234.077726,200.084106" id="Fill-51" fill="#E2796F"></path>
                <path d="M234.590026,384.222286 C235.329251,393.975477 235.329251,403.726375 236.806556,412.396515 C244.195372,417.814063 257.494552,414.562617 266.359526,412.396515 C266.359526,402.643324 266.359526,391.807082 267.098752,382.055037 C257.494552,382.055037 248.628432,382.055037 239.023086,380.97084 C237.545781,383.139235 236.806556,385.305337 236.806556,388.556783" id="Fill-52" fill="#EEA19A"></path>
                <path d="M231.390154,384.222286 C231.635416,391.062126 231.448605,397.885922 231.539145,404.724616 C231.618225,410.731252 230.703649,415.141391 236.465022,418.431803 C245.316244,423.488334 258.749516,420.768672 267.863191,417.846153 C270.143902,417.11495 272.187373,414.955725 272.012022,412.396515 C271.665904,407.369782 271.926065,402.261678 272.021191,397.225776 C272.116316,392.189875 271.802288,387.006128 272.402837,382.055037 C272.75927,379.111889 269.717558,376.836908 267.098752,376.750952 C257.736376,376.438071 248.339618,376.213438 239.023086,375.187691 C237.027751,374.969935 235.014078,376.454116 234.02959,378.052906 C232.334529,380.805804 231.604472,383.515151 231.41766,386.72763 C231.308782,388.611795 232.53624,390.540657 234.131592,391.45638 C240.178341,394.934751 241.726703,387.682319 244.016582,383.889921 C242.352466,384.84461 240.687203,385.800446 239.023086,386.755136 C248.403799,387.702949 257.688241,387.669712 267.098752,387.357977 C265.330341,385.590712 263.561931,383.823448 261.795812,382.055037 C261.693811,387.090939 260.971777,392.141739 260.884674,397.225776 C260.798718,402.270846 261.055441,407.36176 260.708177,412.396515 C262.091503,410.578823 263.474828,408.762277 264.858154,406.946877 C256.645302,408.341663 247.411289,412.021745 239.427654,407.914173 C240.223038,408.946796 241.017275,409.980566 241.812659,411.016628 C239.486105,402.19062 238.746879,393.284387 237.789898,384.222286 C237.365846,380.210985 231.240017,380.024173 231.390154,384.222286" id="Fill-53" fill="#EEA19A"></path>
                <path d="M280.102242,384.222286 C280.841468,393.975477 280.841468,403.726375 282.317626,412.396515 C289.706442,417.814063 303.006768,414.562617 311.871743,412.396515 C311.871743,402.643324 311.871743,391.807082 312.610968,382.055037 C303.006768,382.055037 294.140648,382.055037 284.535302,380.97084 C283.056852,383.139235 282.317626,385.305337 282.317626,388.556783" id="Fill-54" fill="#EEA19A"></path>
                <path d="M276.901224,384.222286 C277.147633,391.062126 276.959675,397.885922 277.050215,404.724616 C277.131588,410.731252 276.215865,415.141391 281.977239,418.431803 C290.82846,423.488334 304.261732,420.768672 313.375407,417.846153 C315.656118,417.11495 317.699589,414.955725 317.524238,412.396515 C317.17812,407.369782 317.438282,402.261678 317.533407,397.225776 C317.628532,392.189875 317.314504,387.006128 317.915053,382.055037 C318.271486,379.111889 315.228628,376.836908 312.610968,376.750952 C303.247446,376.438071 293.851834,376.213438 284.535302,375.187691 C282.539967,374.969935 280.526294,376.454116 279.54066,378.052906 C277.846745,380.805804 277.115542,383.515151 276.929876,386.72763 C276.820998,388.611795 278.046164,390.540657 279.642662,391.45638 C285.689411,394.934751 287.238919,387.682319 289.528798,383.889921 C287.864682,384.84461 286.199419,385.800446 284.535302,386.755136 C293.916015,387.702949 303.200457,387.669712 312.610968,387.357977 C310.842558,385.590712 309.074147,383.823448 307.306883,382.055037 C307.206027,387.090939 306.483993,392.141739 306.39689,397.225776 C306.310934,402.270846 306.566511,407.36176 306.220393,412.396515 C307.603719,410.578823 308.987044,408.762277 310.37037,406.946877 C302.157519,408.341663 292.923505,412.021745 284.938725,407.914173 C285.734108,408.946796 286.530638,409.980566 287.326021,411.016628 C284.998321,402.19062 284.25795,393.284387 283.302114,384.222286 C282.879208,380.210985 276.752233,380.024173 276.901224,384.222286" id="Fill-55" fill="#EEA19A"></path>
                <path d="M114.175367,158.11788 C108.490781,169.17417 104.672023,191.097647 119.227314,196.967899 C127.235016,200.197569 134.872532,195.656777 138.631694,188.686282 C141.13933,184.038904 143.277926,174.51493 136.228352,172.533348 C122.771011,168.751265 116.330009,181.548459 115.625166,193.024217 C114.817175,206.165238 120.869655,220.878688 132.697261,227.461806 C137.553227,230.16313 143.417748,230.757949 148.836442,230.00497 C154.375475,229.235947 163.788279,226.265292 166.160676,220.683854 C166.862081,219.036928 166.05409,217.310923 164.155026,217.188292 C160.560901,216.956783 156.779964,219.318866 153.385257,220.413378 C150.120059,221.465484 146.727644,221.933087 143.307724,221.745129 C138.070112,221.458608 133.493791,218.267905 130.158681,214.445708 C123.463247,206.768079 120.765361,193.743959 123.802489,184.06641 C125.084959,179.982906 128.075097,177.12686 132.253726,176.201969 C137.689611,174.999725 137.658667,180.335901 136.036955,183.755821 C134.492032,187.016435 131.723088,189.982505 128.480811,191.572127 C120.547605,195.461942 115.17017,187.988316 113.829249,181.321534 C112.414979,174.290298 113.698595,166.052232 116.609654,159.541318 C117.336272,157.915023 115.018886,156.476685 114.175367,158.11788" id="Fill-56" fill="#EEA19A"></path>
                <g id="Group-59" transform="translate(240.678034, 153.575507)">
                    <mask id="mask-2" fill="white">
                        <use xlink:href="#path-1"></use>
                    </mask>
                    <g id="Clip-58"></g>
                    <path d="M0.413737001,-0.164602376 C0.413737001,-0.164602376 29.6721633,-3.41490192 42.6745076,24.7593272 L63.2639404,24.7593272 C63.2639404,24.7593272 49.1762528,-9.9166471 12.3341762,-6.66634755 L0.413737001,-0.164602376" id="Fill-57" fill="#E38D8F" mask="url(#mask-2)"></path>
                </g>
                <g id="Group-62" transform="translate(248.700635, 153.575507)">
                    <mask id="mask-4" fill="white">
                        <use xlink:href="#path-3"></use>
                    </mask>
                    <g id="Clip-61"></g>
                    <path d="M-13.0264121,2.00264602 C-13.0264121,2.00264602 16.2308682,-1.24765353 29.2343585,26.9265756 L49.8237913,26.9265756 C49.8237913,26.9265756 35.7361037,-7.74939871 -1.10711896,-4.49909916 L-13.0264121,2.00264602" id="Fill-60" fill="#722433" mask="url(#mask-4)"></path>
                </g>
                <path d="M149.702883,218.031811 C140.457409,230.062275 136.961847,246.210625 136.072484,261.034099 C135.579667,269.232052 136.090821,277.443757 137.914244,285.454897 C139.29757,291.528006 141.930129,299.776386 148.265692,302.30809 C149.870212,302.949898 151.77386,301.329333 151.68905,299.699599 C151.396798,294.104407 148.361963,288.399192 147.206708,282.893395 C145.711066,275.760157 145.380993,268.299138 145.512793,261.034099 C145.752325,247.856404 147.15628,232.174511 154.768583,220.992151 C156.942708,217.79801 151.938897,215.120753 149.702883,218.031811" id="Fill-63" fill="#FFFFFE"></path>
                <path d="M149.338428,329.03252 C149.643287,329.152859 149.951584,329.307581 150.26905,329.388953 C152.1429,329.878332 154.131359,329.649115 155.810375,328.664627 C157.995961,327.384449 159.37241,324.991422 159.37241,322.455134 C159.37241,320.556069 158.607971,318.714309 157.265904,317.371097 C155.433313,315.539651 152.762933,314.872629 150.26905,315.521314 C149.951584,315.604978 149.643287,315.758554 149.338428,315.880039 C148.183173,316.203235 147.180348,316.788885 146.329953,317.63355 C145.056651,318.906852 144.332325,320.654633 144.332325,322.455134 C144.335763,323.687176 144.646352,324.833262 145.264093,325.896829 C145.619379,326.357556 145.974666,326.818283 146.329953,327.277863 C147.180348,328.122528 148.183173,328.707032 149.338428,329.03252" id="Fill-64" fill="#FFFFFE"></path>
                <path d="M95.3039171,411.685942 C95.2729728,409.508379 95.0804304,407.349153 95.1205434,405.169297 C95.1342964,404.389959 94.4787353,403.81577 93.7349256,403.782533 C69.23734,402.737303 44.6377527,403.380257 20.1218297,403.434123 C19.2737262,403.435269 18.2067202,404.070201 18.0783586,404.989362 C17.696712,407.739968 17.0915787,410.645296 18.6915146,413.065829 C18.9356309,413.434869 19.3000862,413.622827 19.6725641,413.64231 C23.0592478,415.587218 38.4465968,417.054208 56.9283777,417.054208 C77.8914344,417.054208 94.8855958,415.166604 94.8855958,412.837758 L94.8386063,412.62917 C95.1159591,412.444651 95.3107937,412.132915 95.3039171,411.685942" id="Fill-65" fill="#E68A3F"></path>
                <path d="M94.501657,404.017481 C94.501657,406.34862 77.5074957,408.236223 56.5444389,408.236223 C35.5825282,408.236223 18.5883668,406.34862 18.5883668,404.017481 C18.5883668,401.688635 35.5825282,399.801031 56.5444389,399.801031 C77.5074957,399.801031 94.501657,401.688635 94.501657,404.017481" id="Fill-66" fill="#F6C15F"></path>
                <path d="M102.622822,399.137447 C102.593023,396.96103 102.400481,394.800658 102.440594,392.621949 C102.454347,391.841465 101.79764,391.267276 101.05383,391.235185 C76.5562444,390.189955 51.9578032,390.831763 27.4418802,390.885629 C26.5926306,390.886775 25.5256246,391.522853 25.3984091,392.442014 C25.0167625,395.19262 24.4104831,398.096801 26.010419,400.518481 C26.2545353,400.887521 26.6201367,401.075479 26.9914685,401.094962 C30.3781522,403.03987 45.7666473,404.50686 64.2484282,404.50686 C85.2103388,404.50686 102.2045,402.619256 102.2045,400.289264 L102.157511,400.081822 C102.434863,399.897302 102.629698,399.585567 102.622822,399.137447" id="Fill-67" fill="#E68A3F"></path>
                <path d="M101.820561,391.471279 C101.820561,393.800125 84.8275461,395.688875 63.8644894,395.688875 C42.9025787,395.688875 25.9072712,393.800125 25.9072712,391.471279 C25.9072712,389.141286 42.9025787,387.253683 63.8644894,387.253683 C84.8275461,387.253683 101.820561,389.141286 101.820561,391.471279" id="Fill-68" fill="#F6C15F"></path>
                <path d="M93.2134565,385.544869 C93.1825122,383.368452 92.9899698,381.20808 93.0289367,379.029371 C93.0438358,378.248886 92.3871286,377.674697 91.6433189,377.642607 C67.1457332,376.597376 42.546146,377.239185 18.030223,377.293051 C17.1821195,377.293051 16.1151135,377.930274 15.987898,378.848289 C15.6051053,381.600041 14.999972,384.504223 16.5999078,386.924756 C16.8440241,387.294942 17.2096255,387.4829 17.5809573,387.501238 C20.9676411,389.444999 36.3561362,390.913135 54.837917,390.913135 C75.7998277,390.913135 92.7939891,389.024386 92.7939891,386.695539 L92.7469996,386.488098 C93.0243523,386.303578 93.2191869,385.992989 93.2134565,385.544869" id="Fill-69" fill="#E68A3F"></path>
                <path d="M92.4100503,377.877554 C92.4100503,380.206401 75.417035,382.094004 54.4539782,382.094004 C33.4909215,382.094004 16.4967601,380.206401 16.4967601,377.877554 C16.4967601,375.547562 33.4909215,373.659958 54.4539782,373.659958 C75.417035,373.659958 92.4100503,375.547562 92.4100503,377.877554" id="Fill-70" fill="#F6C15F"></path>
                <path d="M94.2586868,372.997521 C94.2277425,370.819958 94.0352001,368.660732 94.0753131,366.480876 C94.0890661,365.701538 93.4323589,365.127349 92.6885492,365.094113 C68.1909636,364.048882 43.5925224,364.691836 19.0765994,364.745702 C18.2273498,364.746849 17.1614899,365.38178 17.0331283,366.300941 C16.6514817,369.052693 16.0452023,371.956875 17.6451382,374.377408 C17.8892544,374.746448 18.2548558,374.934406 18.6261877,374.953889 C22.0128714,376.897651 37.4013665,378.364641 55.8831473,378.364641 C76.845058,378.364641 93.8392194,376.478184 93.8392194,374.148191 L93.7922299,373.940749 C94.0695827,373.75623 94.2655633,373.44564 94.2586868,372.997521" id="Fill-71" fill="#E68A3F"></path>
                <path d="M93.4552806,365.32906 C93.4552806,367.659053 76.4622653,369.546656 55.4992086,369.546656 C34.5372979,369.546656 17.5431365,367.659053 17.5431365,365.32906 C17.5431365,363.000214 34.5372979,361.11261 55.4992086,361.11261 C76.4622653,361.11261 93.4552806,363.000214 93.4552806,365.32906" id="Fill-72" fill="#F6C15F"></path>
                <path d="M95.3039171,360.450173 C95.2729728,358.272609 95.0804304,356.112238 95.1205434,353.933528 C95.1342964,353.153044 94.4787353,352.578855 93.7349256,352.546764 C69.23734,351.501534 44.6377527,352.144488 20.1218297,352.197208 C19.2737262,352.198354 18.2067202,352.834432 18.0783586,353.753593 C17.696712,356.504199 17.0915787,359.408381 18.6915146,361.83006 C18.9356309,362.1991 19.3000862,362.387058 19.6725641,362.406541 C23.0592478,364.350303 38.4465968,365.817293 56.9283777,365.817293 C77.8914344,365.817293 94.8855958,363.930835 94.8855958,361.600843 L94.8386063,361.393401 C95.1159591,361.208881 95.3107937,360.897146 95.3039171,360.450173" id="Fill-73" fill="#E68A3F"></path>
                <path d="M94.501657,352.781712 C94.501657,355.110558 77.5074957,356.999308 56.5444389,356.999308 C35.5825282,356.999308 18.5883668,355.110558 18.5883668,352.781712 C18.5883668,350.452865 35.5825282,348.565262 56.5444389,348.565262 C77.5074957,348.565262 94.501657,350.452865 94.501657,352.781712" id="Fill-74" fill="#F6C15F"></path>
                <path d="M86.9386363,348.948055 C86.9088381,346.770492 86.7162957,344.61012 86.7552626,342.43141 C86.7690156,341.650926 86.1134545,341.076737 85.3696448,341.044647 C60.8720592,340.000562 36.2724719,340.641224 11.7565489,340.69509 C10.9084454,340.696236 9.84143942,341.332314 9.71422389,342.251475 C9.33257729,345.002081 8.72629786,347.906263 10.3262337,350.327942 C10.57035,350.696982 10.9348053,350.88494 11.3072833,350.905569 C14.693967,352.849331 30.0824621,354.316321 48.5630968,354.316321 C69.5261536,354.316321 86.520315,352.428718 86.520315,350.098725 L86.4733255,349.892429 C86.7506782,349.706764 86.9455128,349.395028 86.9386363,348.948055" id="Fill-75" fill="#E68A3F"></path>
                <path d="M86.1363762,341.28074 C86.1363762,343.609587 69.1433609,345.498336 48.1803042,345.498336 C27.2172474,345.498336 10.223086,343.609587 10.223086,341.28074 C10.223086,338.951894 27.2172474,337.063144 48.1803042,337.063144 C69.1433609,337.063144 86.1363762,338.951894 86.1363762,341.28074" id="Fill-76" fill="#F6C15F"></path>
                <path d="M94.2586868,336.400707 C94.2277425,334.223143 94.0352001,332.062772 94.0753131,329.884062 C94.0890661,329.103578 93.4323589,328.529389 92.6885492,328.497298 C68.1909636,327.453214 43.5925224,328.093876 19.0765994,328.147742 C18.2273498,328.148888 17.1614899,328.784966 17.0331283,329.704127 C16.6514817,332.454733 16.0452023,335.358914 17.6451382,337.779448 C17.8892544,338.149634 18.2548558,338.337592 18.6261877,338.357075 C22.0128714,340.301983 37.4013665,341.768973 55.8831473,341.768973 C76.845058,341.768973 93.8392194,339.880223 93.8392194,337.551377 L93.7922299,337.343935 C94.0695827,337.158269 94.2655633,336.84768 94.2586868,336.400707" id="Fill-77" fill="#E68A3F"></path>
                <path d="M93.4552806,328.733392 C93.4552806,331.062239 76.4622653,332.950988 55.4992086,332.950988 C34.5372979,332.950988 17.5431365,331.062239 17.5431365,328.733392 C17.5431365,326.404546 34.5372979,324.515796 55.4992086,324.515796 C76.4622653,324.515796 93.4552806,326.404546 93.4552806,328.733392" id="Fill-78" fill="#F6C15F"></path>
                <path d="M84.8481757,322.806982 C84.8172314,320.630565 84.6246889,318.470193 84.664802,316.290338 C84.678555,315.510999 84.0218478,314.93681 83.278038,314.903574 C58.7804524,313.858343 34.1820113,314.501298 9.66608828,314.555164 C8.81683865,314.55631 7.7498327,315.191241 7.62261716,316.110402 C7.24097057,318.862154 6.63469114,321.766336 8.23462702,324.186869 C8.47874331,324.555909 8.84434471,324.743867 9.21567653,324.763351 C12.6023603,326.708258 27.9908554,328.175248 46.4726362,328.175248 C67.4345469,328.175248 84.4287083,326.287645 84.4287083,323.958798 L84.3817187,323.750211 C84.6590715,323.565691 84.8539061,323.255102 84.8481757,322.806982" id="Fill-79" fill="#E68A3F"></path>
                <path d="M84.0447695,315.138521 C84.0447695,317.46966 67.0517542,319.357263 46.0886974,319.357263 C25.1256407,319.357263 8.13147929,317.46966 8.13147929,315.138521 C8.13147929,312.809675 25.1256407,310.922071 46.0886974,310.922071 C67.0517542,310.922071 84.0447695,312.809675 84.0447695,315.138521" id="Fill-80" fill="#F6C15F"></path>
                <path d="M85.893406,310.259634 C85.8624617,308.082071 85.6699193,305.922845 85.7100323,303.742989 C85.7237853,302.962505 85.0682242,302.388316 84.3244144,302.356226 C59.8256828,301.310995 35.2272416,301.953949 10.7113186,302.006669 C9.86206897,302.007815 8.7962091,302.643893 8.66784748,303.563054 C8.28620089,306.31366 7.67992146,309.217842 9.27985734,311.639521 C9.52511972,312.008561 9.88957503,312.196519 10.2620529,312.216002 C13.6487367,314.16091 29.0360857,315.6279 47.5178665,315.6279 C68.4797772,315.6279 85.4739386,313.740297 85.4739386,311.41145 L85.4269491,311.202862 C85.7043018,311.018343 85.9002825,310.706607 85.893406,310.259634" id="Fill-81" fill="#E68A3F"></path>
                <path d="M85.0911459,302.591173 C85.0911459,304.921166 68.0969845,306.809915 47.1339278,306.809915 C26.1720171,306.809915 9.1778557,304.921166 9.1778557,302.591173 C9.1778557,300.262327 26.1720171,298.374723 47.1339278,298.374723 C68.0969845,298.374723 85.0911459,300.262327 85.0911459,302.591173" id="Fill-82" fill="#F6C15F"></path>
                <path d="M86.9386363,297.71114 C86.9088381,295.534722 86.7162957,293.374351 86.7552626,291.195641 C86.7690156,290.415157 86.1134545,289.840968 85.3696448,289.808877 C60.8720592,288.763647 36.2724719,289.405455 11.7565489,289.459321 C10.9084454,289.460467 9.84143942,290.096545 9.71422389,291.015706 C9.33257729,293.766312 8.72629786,296.670494 10.3262337,299.092173 C10.57035,299.461213 10.9348053,299.649171 11.3072833,299.667508 C14.693967,301.613562 30.0824621,303.080552 48.5630968,303.080552 C69.5261536,303.080552 86.520315,301.192948 86.520315,298.862956 L86.4733255,298.655514 C86.7506782,298.470994 86.9455128,298.159259 86.9386363,297.71114" id="Fill-83" fill="#E68A3F"></path>
                <path d="M86.1363762,290.044971 C86.1363762,292.373818 69.1433609,294.262567 48.1803042,294.262567 C27.2172474,294.262567 10.223086,292.373818 10.223086,290.044971 C10.223086,287.714979 27.2172474,285.827375 48.1803042,285.827375 C69.1433609,285.827375 86.1363762,287.714979 86.1363762,290.044971" id="Fill-84" fill="#F6C15F"></path>
                <path d="M456.138741,122.519306 C455.759386,134.252934 455.022453,145.957909 454.999531,157.700705 C454.986924,163.364661 455.249378,169.022887 455.669991,174.670798 C456.086021,180.254528 456.416093,186.35629 458.038951,191.738309 C458.518015,193.329076 461.12536,193.091836 461.016482,191.334887 C460.670364,185.772932 459.549492,180.243068 459.112833,174.670798 C458.67159,169.024033 458.556982,163.360077 458.420598,157.700705 C458.13866,145.976246 458.228055,134.246057 457.887668,122.519306 C457.854431,121.391558 456.175415,121.39385 456.138741,122.519306" id="Fill-85" fill="#758F45"></path>
                <path d="M456.863067,121.617337 C456.63958,121.464907 456.408071,121.327377 456.173123,121.199015 C453.131411,113.904179 446.534541,110.25848 439.1824,108.102692 C435.183706,106.927954 431.089888,106.119964 427.102655,104.891359 C423.384752,103.74642 419.473161,100.803271 415.58793,100.670325 C412.517566,100.564885 415.138664,111.326632 415.848092,112.967827 C417.937406,117.804309 422.33723,120.827684 427.306658,122.207571 C431.92653,123.488895 436.859284,123.718112 441.618979,123.956498 C446.315639,124.193738 452.013978,125.348992 456.553624,123.98515 C457.67335,123.649347 457.783374,122.241954 456.863067,121.617337" id="Fill-86" fill="#758F45"></path>
                <path d="M425.133679,111.837786 C429.195408,114.027956 433.4726,115.791782 437.897638,117.096028 C440.717009,117.928086 443.481368,118.780774 446.181546,119.961243 C448.382031,120.920517 450.281096,122.593802 452.598481,123.174867 C453.353752,123.365118 453.876367,122.59151 453.554317,121.93251 C451.658691,118.054156 445.801046,116.450782 441.960512,115.308134 C436.540672,113.694445 430.764399,113.412508 425.588675,111.061886 C425.070645,110.825792 424.615649,111.559287 425.133679,111.837786" id="Fill-87" fill="#DEDDBB"></path>
                <path d="M456.362227,123.98515 C460.90302,125.348992 466.602505,124.193738 471.296872,123.956498 C476.057713,123.718112 480.991613,123.488895 485.609193,122.207571 C490.580913,120.827684 494.979591,117.804309 497.070052,112.967827 C497.779479,111.326632 500.399431,100.564885 497.327921,100.670325 C493.443836,100.803271 489.533391,103.74642 485.814342,104.891359 C481.828256,106.119964 477.734437,106.927954 473.734597,108.102692 C466.383602,110.25848 459.785586,113.904179 456.742728,121.199015 C456.508926,121.327377 456.277417,121.464907 456.052784,121.617337 C455.133623,122.241954 455.242501,123.649347 456.362227,123.98515" id="Fill-88" fill="#758F45"></path>
                <path d="M487.782172,111.837786 C483.720443,114.027956 479.444397,115.791782 475.019359,117.096028 C472.198842,117.928086 469.435629,118.780774 466.735451,119.961243 C464.536112,120.920517 462.635901,122.593802 460.31737,123.174867 C459.562099,123.365118 459.04063,122.59151 459.36268,121.93251 C461.258306,118.054156 467.117097,116.450782 470.956485,115.308134 C476.375179,113.694445 482.151452,113.412508 487.328322,111.061886 C487.846352,110.825792 488.301349,111.559287 487.782172,111.837786" id="Fill-89" fill="#DEDDBB"></path>
                <path d="M501.018317,412.832028 C500.987373,410.654464 500.794831,408.495239 500.834944,406.315383 C500.848697,405.536045 500.193136,404.961856 499.449326,404.928619 C474.95174,403.883389 450.352153,404.526343 425.83623,404.580209 C424.98698,404.581355 423.921121,405.216287 423.792759,406.135448 C423.411112,408.886054 422.804833,411.791382 424.405915,414.211915 C424.648885,414.580955 425.014486,414.768913 425.385818,414.788396 C428.772502,416.733304 444.162143,418.200294 462.642778,418.200294 C483.605835,418.200294 500.599996,416.31269 500.599996,413.983844 L500.553007,413.775256 C500.830359,413.590736 501.025194,413.279001 501.018317,412.832028" id="Fill-90" fill="#E68A3F"></path>
                <path d="M500.214911,405.163567 C500.214911,407.494706 483.223042,409.382309 462.259985,409.382309 C441.296928,409.382309 424.302767,407.494706 424.302767,405.163567 C424.302767,402.83472 441.296928,400.947117 462.259985,400.947117 C483.223042,400.947117 500.214911,402.83472 500.214911,405.163567" id="Fill-91" fill="#F6C15F"></path>
                <path d="M508.338368,400.283533 C508.307424,398.107116 508.114881,395.946744 508.154994,393.768035 C508.168747,392.987551 507.51204,392.413362 506.76823,392.381271 C482.270645,391.336041 457.672203,391.977849 433.155134,392.031715 C432.307031,392.032861 431.238879,392.668939 431.111663,393.5881 C430.731163,396.338706 430.124883,399.242887 431.724819,401.664567 C431.968936,402.033606 432.334537,402.221565 432.705869,402.241048 C436.092553,404.185956 451.482194,405.652946 469.962828,405.652946 C490.925885,405.652946 507.9189,403.765342 507.9189,401.43535 L507.871911,401.227908 C508.149264,401.043388 508.345244,400.731653 508.338368,400.283533" id="Fill-92" fill="#E68A3F"></path>
                <path d="M507.534962,392.617365 C507.534962,394.946211 490.541946,396.834961 469.580036,396.834961 C448.616979,396.834961 431.621672,394.946211 431.621672,392.617365 C431.621672,390.287372 448.616979,388.399769 469.580036,388.399769 C490.541946,388.399769 507.534962,390.287372 507.534962,392.617365" id="Fill-93" fill="#F6C15F"></path>
                <path d="M498.927857,386.690955 C498.896912,384.514538 498.70437,382.354166 498.744483,380.175457 C498.758236,379.394972 498.101529,378.820783 497.357719,378.788693 C472.860134,377.743462 448.260546,378.38527 423.744623,378.439136 C422.89652,378.439136 421.829514,379.07636 421.701152,379.994375 C421.319506,382.746127 420.714372,385.650309 422.314308,388.070842 C422.558424,388.441028 422.924026,388.628986 423.295358,388.647323 C426.682041,390.591085 442.070536,392.059221 460.552317,392.059221 C481.515374,392.059221 498.508389,390.170472 498.508389,387.841625 L498.4614,387.634183 C498.738753,387.449664 498.933587,387.139074 498.927857,386.690955" id="Fill-94" fill="#E68A3F"></path>
                <path d="M498.124451,379.02364 C498.124451,381.352487 481.131435,383.24009 460.168379,383.24009 C439.206468,383.24009 422.212306,381.352487 422.212306,379.02364 C422.212306,376.693648 439.206468,374.806044 460.168379,374.806044 C481.131435,374.806044 498.124451,376.693648 498.124451,379.02364" id="Fill-95" fill="#F6C15F"></path>
                <path d="M499.973087,374.143607 C499.942143,371.966043 499.7496,369.806818 499.789713,367.626962 C499.803466,366.847624 499.146759,366.273435 498.402949,366.240198 C473.905364,365.194968 449.306923,365.837922 424.791,365.891788 C423.94175,365.892934 422.87589,366.527866 422.746382,367.447027 C422.365882,370.198779 421.759603,373.102961 423.359538,375.523494 C423.603655,375.892534 423.969256,376.080492 424.340588,376.099975 C427.727272,378.043737 443.116913,379.510727 461.597548,379.510727 C482.560604,379.510727 499.55362,377.624269 499.55362,375.294277 L499.50663,375.086835 C499.783983,374.902315 499.979964,374.591726 499.973087,374.143607" id="Fill-96" fill="#E68A3F"></path>
                <path d="M499.169681,366.475146 C499.169681,368.805139 482.176666,370.692742 461.214755,370.692742 C440.251698,370.692742 423.257537,368.805139 423.257537,366.475146 C423.257537,364.1463 440.251698,362.258696 461.214755,362.258696 C482.176666,362.258696 499.169681,364.1463 499.169681,366.475146" id="Fill-97" fill="#F6C15F"></path>
                <path d="M501.018317,361.596258 C500.987373,359.418695 500.794831,357.258323 500.834944,355.079614 C500.848697,354.29913 500.193136,353.724941 499.449326,353.69285 C474.95174,352.64762 450.352153,353.290574 425.83623,353.343294 C424.98698,353.34444 423.921121,353.980518 423.792759,354.899679 C423.411112,357.650285 422.804833,360.554466 424.405915,362.976146 C424.648885,363.345186 425.014486,363.533144 425.385818,363.552627 C428.772502,365.496389 444.162143,366.963379 462.642778,366.963379 C483.605835,366.963379 500.599996,365.076921 500.599996,362.746929 L500.553007,362.539487 C500.830359,362.354967 501.025194,362.043232 501.018317,361.596258" id="Fill-98" fill="#E68A3F"></path>
                <path d="M500.214911,353.927798 C500.214911,356.256644 483.223042,358.145394 462.259985,358.145394 C441.296928,358.145394 424.302767,356.256644 424.302767,353.927798 C424.302767,351.598951 441.296928,349.711348 462.259985,349.711348 C483.223042,349.711348 500.214911,351.598951 500.214911,353.927798" id="Fill-99" fill="#F6C15F"></path>
                <path d="M492.653037,350.094141 C492.622092,347.916577 492.42955,345.756206 492.469663,343.577496 C492.483416,342.797012 491.827855,342.222823 491.084045,342.190732 C466.586459,341.146648 441.986872,341.78731 417.470949,341.841176 C416.622846,341.842322 415.55584,342.4784 415.428624,343.397561 C415.046978,346.148167 414.439552,349.052349 416.040634,351.474028 C416.28475,351.843068 416.649206,352.031026 417.020537,352.051655 C420.407221,353.995417 435.796862,355.462407 454.277497,355.462407 C475.240554,355.462407 492.234715,353.574803 492.234715,351.244811 L492.187726,351.038515 C492.465079,350.852849 492.659913,350.541114 492.653037,350.094141" id="Fill-100" fill="#E68A3F"></path>
                <path d="M491.84963,342.426826 C491.84963,344.755673 474.857761,346.644422 453.894704,346.644422 C432.931648,346.644422 415.937486,344.755673 415.937486,342.426826 C415.937486,340.09798 432.931648,338.20923 453.894704,338.20923 C474.857761,338.20923 491.84963,340.09798 491.84963,342.426826" id="Fill-101" fill="#F6C15F"></path>
                <path d="M499.973087,337.546792 C499.942143,335.369229 499.7496,333.208857 499.789713,331.030148 C499.803466,330.249664 499.146759,329.675475 498.402949,329.643384 C473.905364,328.5993 449.306923,329.239962 424.791,329.293828 C423.94175,329.294974 422.87589,329.931052 422.746382,330.850213 C422.365882,333.600819 421.759603,336.505 423.359538,338.925534 C423.603655,339.295719 423.969256,339.483678 424.340588,339.503161 C427.727272,341.448069 443.116913,342.915059 461.597548,342.915059 C482.560604,342.915059 499.55362,341.026309 499.55362,338.697463 L499.50663,338.490021 C499.783983,338.304355 499.979964,337.993766 499.973087,337.546792" id="Fill-102" fill="#E68A3F"></path>
                <path d="M499.169681,329.879478 C499.169681,332.208324 482.176666,334.097074 461.214755,334.097074 C440.251698,334.097074 423.257537,332.208324 423.257537,329.879478 C423.257537,327.550631 440.251698,325.661882 461.214755,325.661882 C482.176666,325.661882 499.169681,327.550631 499.169681,329.879478" id="Fill-103" fill="#F6C15F"></path>
                <path d="M490.562576,323.953068 C490.531632,321.776651 490.339089,319.616279 490.379202,317.436424 C490.392955,316.657085 489.737394,316.082896 488.992438,316.04966 C464.494853,315.004429 439.895265,315.647383 415.380489,315.70125 C414.531239,315.702396 413.464233,316.337327 413.335871,317.256488 C412.955371,320.00824 412.349091,322.912422 413.950173,325.332955 C414.193144,325.701995 414.558745,325.889953 414.930077,325.909436 C418.316761,327.854344 433.705256,329.321334 452.187036,329.321334 C473.150093,329.321334 490.143109,327.433731 490.143109,325.104884 L490.096119,324.896297 C490.373472,324.711777 490.568306,324.401187 490.562576,323.953068" id="Fill-104" fill="#E68A3F"></path>
                <path d="M489.75917,316.284607 C489.75917,318.615746 472.766154,320.503349 451.803098,320.503349 C430.841187,320.503349 413.847026,318.615746 413.847026,316.284607 C413.847026,313.955761 430.841187,312.068157 451.803098,312.068157 C472.766154,312.068157 489.75917,313.955761 489.75917,316.284607" id="Fill-105" fill="#F6C15F"></path>
                <path d="M491.607806,311.40572 C491.576862,309.228156 491.38432,307.068931 491.424433,304.889075 C491.438186,304.108591 490.782624,303.534402 490.038815,303.502311 C465.540083,302.457081 440.941642,303.100035 416.425719,303.152755 C415.576469,303.153901 414.510609,303.789979 414.382248,304.70914 C414.000601,307.459746 413.394322,310.363928 414.995404,312.785607 C415.23952,313.154647 415.603975,313.342605 415.975307,313.362088 C419.361991,315.306996 434.751632,316.773986 453.232267,316.773986 C474.195324,316.773986 491.188339,314.886382 491.188339,312.557536 L491.141349,312.348948 C491.418702,312.164429 491.614683,311.852693 491.607806,311.40572" id="Fill-106" fill="#E68A3F"></path>
                <path d="M490.8044,303.737259 C490.8044,306.067252 473.811385,307.956001 452.849474,307.956001 C431.886417,307.956001 414.892256,306.067252 414.892256,303.737259 C414.892256,301.408413 431.886417,299.520809 452.849474,299.520809 C473.811385,299.520809 490.8044,301.408413 490.8044,303.737259" id="Fill-107" fill="#F6C15F"></path>
                <path d="M492.653037,298.857225 C492.622092,296.680808 492.42955,294.520436 492.469663,292.341727 C492.483416,291.561243 491.827855,290.987054 491.084045,290.954963 C466.586459,289.909733 441.986872,290.551541 417.470949,290.605407 C416.622846,290.606553 415.55584,291.242631 415.428624,292.161792 C415.046978,294.912398 414.439552,297.816579 416.040634,300.238259 C416.28475,300.607299 416.649206,300.795257 417.020537,300.813594 C420.407221,302.759648 435.796862,304.226638 454.277497,304.226638 C475.240554,304.226638 492.234715,302.339034 492.234715,300.009042 L492.187726,299.8016 C492.465079,299.61708 492.659913,299.305345 492.653037,298.857225" id="Fill-108" fill="#E68A3F"></path>
                <path d="M491.84963,291.191057 C491.84963,293.519903 474.857761,295.408653 453.894704,295.408653 C432.931648,295.408653 415.937486,293.519903 415.937486,291.191057 C415.937486,288.861064 432.931648,286.973461 453.894704,286.973461 C474.857761,286.973461 491.84963,288.861064 491.84963,291.191057" id="Fill-109" fill="#F6C15F"></path>
                <path d="M415.994791,286.40271 C416.025735,284.227439 416.218277,282.067067 416.178164,279.887212 C416.164411,279.107874 416.819972,278.532538 417.563782,278.501594 C442.061368,277.456364 466.660955,278.098172 491.176878,278.152038 C492.026128,278.152038 493.091988,278.788116 493.220349,279.707276 C493.601996,282.459029 494.208275,285.362064 492.607193,287.783744 C492.363077,288.153929 491.998622,288.341887 491.62729,288.359079 C488.240606,290.305133 472.850965,291.773269 454.37033,291.773269 C433.407273,291.773269 416.413112,289.883373 416.413112,287.555673 L416.460101,287.347085 C416.182749,287.161419 415.987914,286.85083 415.994791,286.40271" id="Fill-110" fill="#E68A3F"></path>
                <path d="M416.798197,278.736542 C416.798197,281.066534 433.790066,282.952992 454.753123,282.952992 C475.71618,282.952992 492.710341,281.066534 492.710341,278.736542 C492.710341,276.406549 475.71618,274.518946 454.753123,274.518946 C433.790066,274.518946 416.798197,276.406549 416.798197,278.736542" id="Fill-111" fill="#F6C15F"></path>
                <path d="M408.67474,273.856508 C408.705684,271.678945 408.898227,269.518573 408.858114,267.339864 C408.844361,266.559379 409.501068,265.986336 410.244878,265.9531 C434.742463,264.906723 459.340905,265.549678 483.857974,265.603544 C484.706077,265.605836 485.773083,266.240767 485.901445,267.158782 C486.281945,269.910534 486.888225,272.815862 485.288289,275.235249 C485.044172,275.604289 484.678571,275.792247 484.307239,275.812877 C480.920555,277.757784 465.530914,279.224774 447.05028,279.224774 C426.087223,279.224774 409.094208,277.337171 409.094208,275.007178 L409.141197,274.798591 C408.863844,274.615217 408.667864,274.304628 408.67474,273.856508" id="Fill-112" fill="#E68A3F"></path>
                <path d="M409.478146,266.19034 C409.478146,268.51804 426.471162,270.40679 447.433072,270.40679 C468.396129,270.40679 485.391436,268.51804 485.391436,266.19034 C485.391436,263.859201 468.396129,261.972744 447.433072,261.972744 C426.471162,261.972744 409.478146,263.859201 409.478146,266.19034" id="Fill-113" fill="#F6C15F"></path>
                <path d="M418.085251,260.262784 C418.116196,258.086366 418.308738,255.925995 418.268625,253.746139 C418.254872,252.966801 418.911579,252.391466 419.655389,252.360521 C444.152974,251.315291 468.752562,251.958245 493.268485,252.010965 C494.116588,252.010965 495.183594,252.647043 495.311956,253.56735 C495.693602,256.317956 496.298736,259.220991 494.6988,261.643817 C494.454684,262.012857 494.089082,262.200815 493.71775,262.219152 C490.331067,264.16406 474.942572,265.629904 456.460791,265.629904 C435.497734,265.629904 418.504719,263.743446 418.504719,261.413454 L418.551708,261.207158 C418.274355,261.021492 418.079521,260.709757 418.085251,260.262784" id="Fill-114" fill="#E68A3F"></path>
                <path d="M418.888657,252.595469 C418.888657,254.923169 435.881673,256.813065 456.844729,256.813065 C477.80664,256.813065 494.800802,254.923169 494.800802,252.595469 C494.800802,250.265476 477.80664,248.379019 456.844729,248.379019 C435.881673,248.379019 418.888657,250.265476 418.888657,252.595469" id="Fill-115" fill="#F6C15F"></path>
                <path d="M417.040021,247.715435 C417.070965,245.537872 417.263508,243.3775 417.223395,241.199937 C417.209642,240.418307 417.866349,239.845264 418.610159,239.812027 C443.107744,238.766797 467.706185,239.408605 492.222108,239.462471 C493.071358,239.464763 494.137218,240.100841 494.266726,241.018856 C494.647226,243.769462 495.253505,246.674789 493.652423,249.095323 C493.409453,249.464362 493.043852,249.65232 492.67252,249.671804 C489.285836,251.615566 473.896195,253.083702 455.41556,253.083702 C434.452504,253.083702 417.459488,251.197244 417.459488,248.866106 L417.506478,248.658664 C417.229125,248.47529 417.033144,248.163555 417.040021,247.715435" id="Fill-116" fill="#E68A3F"></path>
                <path d="M417.843427,240.046975 C417.843427,242.376967 434.836442,244.264571 455.798353,244.264571 C476.76141,244.264571 493.755571,242.376967 493.755571,240.046975 C493.755571,237.719274 476.76141,235.829379 455.798353,235.829379 C434.836442,235.829379 417.843427,237.719274 417.843427,240.046975" id="Fill-117" fill="#F6C15F"></path>
                <path d="M415.994791,235.166941 C416.025735,232.99167 416.218277,230.831298 416.178164,228.651443 C416.164411,227.872104 416.819972,227.296769 417.563782,227.265825 C442.061368,226.220595 466.660955,226.862403 491.176878,226.916269 C492.026128,226.916269 493.091988,227.552347 493.220349,228.471507 C493.601996,231.22326 494.208275,234.126295 492.607193,236.547975 C492.363077,236.91816 491.998622,237.106118 491.62729,237.12331 C488.240606,239.068217 472.850965,240.535207 454.37033,240.535207 C433.407273,240.535207 416.413112,238.647604 416.413112,236.317611 L416.460101,236.111316 C416.182749,235.92565 415.987914,235.615061 415.994791,235.166941" id="Fill-118" fill="#E68A3F"></path>
                <path d="M416.798197,227.500773 C416.798197,229.828473 433.790066,231.717223 454.753123,231.717223 C475.71618,231.717223 492.710341,229.828473 492.710341,227.500773 C492.710341,225.17078 475.71618,223.283177 454.753123,223.283177 C433.790066,223.283177 416.798197,225.17078 416.798197,227.500773" id="Fill-119" fill="#F6C15F"></path>
                <path d="M424.360071,223.665969 C424.391016,221.488406 424.583558,219.328034 424.543445,217.149325 C424.529692,216.368841 425.185253,215.795798 425.929063,215.762561 C450.426649,214.718477 475.026236,215.359139 499.542159,215.413005 C500.390262,215.415297 501.457268,216.050229 501.584484,216.968243 C501.96613,219.719996 502.573556,222.625323 500.972474,225.044711 C500.728358,225.41375 500.363902,225.601708 499.992571,225.622338 C496.605887,227.567246 481.216246,229.034236 462.735611,229.034236 C441.772554,229.034236 424.778393,227.146632 424.778393,224.81664 L424.825382,224.610344 C424.548029,224.424678 424.353195,224.114089 424.360071,223.665969" id="Fill-120" fill="#E68A3F"></path>
                <path d="M425.163478,215.999801 C425.163478,218.327501 442.155347,220.216251 463.118404,220.216251 C484.08146,220.216251 501.075622,218.327501 501.075622,215.999801 C501.075622,213.668662 484.08146,211.782205 463.118404,211.782205 C442.155347,211.782205 425.163478,213.668662 425.163478,215.999801" id="Fill-121" fill="#F6C15F"></path>
                <path d="M417.040021,211.119767 C417.070965,208.941058 417.263508,206.781832 417.223395,204.600831 C417.209642,203.822638 417.866349,203.247303 418.610159,203.215213 C443.107744,202.169983 467.706185,202.812937 492.222108,202.866803 C493.071358,202.866803 494.137218,203.501734 494.266726,204.422041 C494.647226,207.172647 495.253505,210.076829 493.652423,212.498509 C493.409453,212.867548 493.043852,213.055506 492.67252,213.076136 C489.285836,215.018751 473.896195,216.486887 455.41556,216.486887 C434.452504,216.486887 417.459488,214.598138 417.459488,212.270437 L417.506478,212.06185 C417.229125,211.876184 417.033144,211.564449 417.040021,211.119767" id="Fill-122" fill="#E68A3F"></path>
                <path d="M417.843427,203.450161 C417.843427,205.781299 434.836442,207.667757 455.798353,207.667757 C476.76141,207.667757 493.755571,205.781299 493.755571,203.450161 C493.755571,201.12246 476.76141,199.233711 455.798353,199.233711 C434.836442,199.233711 417.843427,201.12246 417.843427,203.450161" id="Fill-123" fill="#F6C15F"></path>
                <path d="M426.450532,197.524897 C426.481476,195.347333 426.674019,193.188108 426.633906,191.008252 C426.620153,190.228914 427.275714,189.654725 428.02067,189.621488 C452.518255,188.576258 477.117843,189.219212 501.632619,189.273078 C502.481869,189.274224 503.548875,189.909156 503.677237,190.828317 C504.057737,193.580069 504.664017,196.484251 503.062935,198.904784 C502.819964,199.273824 502.454363,199.461782 502.083031,199.481265 C498.696347,201.427319 483.307852,202.893163 464.826072,202.893163 C443.863015,202.893163 426.869999,201.006705 426.869999,198.675567 L426.916989,198.468125 C426.639636,198.284751 426.444802,197.973016 426.450532,197.524897" id="Fill-124" fill="#E68A3F"></path>
                <path d="M427.253938,189.857582 C427.253938,192.187575 444.246954,194.076324 465.21001,194.076324 C486.171921,194.076324 503.166082,192.187575 503.166082,189.857582 C503.166082,187.527589 486.171921,185.639986 465.21001,185.639986 C444.246954,185.639986 427.253938,187.527589 427.253938,189.857582" id="Fill-125" fill="#F6C15F"></path>
                <path d="M299.511206,110.330683 C299.511206,127.918517 285.253898,142.175825 267.666064,142.175825 C250.07823,142.175825 235.819776,127.918517 235.819776,110.330683 C235.819776,92.7439953 250.07823,78.4855409 267.666064,78.4855409 C285.253898,78.4855409 299.511206,92.7439953 299.511206,110.330683" id="Fill-126" fill="#E68A3F"></path>
                <path d="M295.911351,112.84978 C295.911351,130.437614 281.655188,144.694922 264.066209,144.694922 C246.479521,144.694922 232.222212,130.437614 232.222212,112.84978 C232.222212,95.261946 246.479521,81.0046377 264.066209,81.0046377 C281.655188,81.0046377 295.911351,95.261946 295.911351,112.84978" id="Fill-127" fill="#F6C15F"></path>
                <path d="M289.434819,112.84978 C289.434819,126.86068 278.077108,138.218391 264.066209,138.218391 C250.056455,138.218391 238.698744,126.86068 238.698744,112.84978 C238.698744,98.83888 250.056455,87.482315 264.066209,87.482315 C278.077108,87.482315 289.434819,98.83888 289.434819,112.84978" id="Fill-128" fill="#EFA046"></path>
                <text id="$" font-family="Quicksand-Bold, Quicksand" font-size="37.7119" font-weight="bold" fill="#F1E794">
                    <tspan x="250.169917" y="121.563131">$</tspan>
                </text>
                <path d="M246.544848,54.3615793 C246.544848,69.6549492 234.147637,82.0533062 218.854267,82.0533062 C203.559751,82.0533062 191.161394,69.6549492 191.161394,54.3615793 C191.161394,39.0682093 203.559751,26.6698523 218.854267,26.6698523 C234.147637,26.6698523 246.544848,39.0682093 246.544848,54.3615793" id="Fill-129" fill="#E68A3F"></path>
                <path d="M243.416033,56.5517494 C243.416033,71.8451193 231.018822,84.2434763 215.724306,84.2434763 C200.42979,84.2434763 188.032579,71.8451193 188.032579,56.5517494 C188.032579,41.2583795 200.42979,28.8600224 215.724306,28.8600224 C231.018822,28.8600224 243.416033,41.2583795 243.416033,56.5517494" id="Fill-130" fill="#F6C15F"></path>
                <path d="M237.784167,56.5517494 C237.784167,68.7346423 227.907199,78.6116103 215.724306,78.6116103 C203.541413,78.6116103 193.664445,68.7346423 193.664445,56.5517494 C193.664445,44.3688565 203.541413,34.4930345 215.724306,34.4930345 C227.907199,34.4930345 237.784167,44.3688565 237.784167,56.5517494" id="Fill-131" fill="#EFA046"></path>
                <text id="$" font-family="Quicksand-Bold, Quicksand" font-size="32.793" font-weight="bold" fill="#F1E794">
                    <tspan x="204.935054" y="63.988877">$</tspan>
                </text>
                <path d="M255.792615,11.9174349 C255.829289,26.5621203 254.865431,41.6308574 256.719798,56.1758332 C256.950161,57.9889411 259.309952,57.9889411 259.540315,56.1758332 C261.393536,41.6308574 260.430824,26.5621203 260.467499,11.9174349 C260.474375,8.90322908 255.785738,8.90322908 255.792615,11.9174349" id="Fill-132" fill="#ECA750"></path>
                <path d="M268.916444,1.12245206 C268.272344,12.0423583 267.425386,22.9267359 268.993232,33.7858995 C269.138785,34.7898708 270.869374,34.7898708 271.014927,33.7858995 C272.582773,22.9267359 271.735815,12.0423583 271.091715,1.12245206 C271.009197,-0.279210964 268.998962,-0.279210964 268.916444,1.12245206" id="Fill-133" fill="#ECA750"></path>
                <path d="M292.2221,44.3023835 C292.19001,50.2391084 292.159066,56.1758332 292.128121,62.1137042 C292.096031,68.0836655 291.464538,74.3527552 292.664489,80.2252993 C292.885684,81.3060582 294.619712,81.3060582 294.840907,80.2252993 C295.901036,75.0415528 295.417388,69.6091058 295.388736,64.3394029 C295.354353,57.6600144 295.318824,50.981772 295.284442,44.3023835 C295.274127,42.3265315 292.231269,42.3265315 292.2221,44.3023835" id="Fill-134" fill="#ECA750"></path>
                <path d="M221.490264,93.9588463 C221.266778,101.335055 220.854187,108.710118 220.834703,116.088619 C220.81522,123.26197 219.695494,131.788849 222.031217,138.647027 C222.553832,140.18049 224.617933,140.18049 225.139402,138.647027 C227.264245,132.408881 226.361129,124.800017 226.343938,118.274204 C226.322162,110.163355 225.926763,102.066258 225.6815,93.9588463 C225.598982,91.2575219 221.572783,91.2575219 221.490264,93.9588463" id="Fill-135" fill="#ECA750"></path>
                <path d="M211.50098,104.753829 C211.547969,108.98747 210.934813,113.802177 212.130181,117.890266 C212.321577,118.543534 213.260222,118.543534 213.451618,117.890266 C214.646986,113.802177 214.03383,108.98747 214.079673,104.753829 C214.099157,103.090859 211.482642,103.090859 211.50098,104.753829" id="Fill-136" fill="#ECA750"></path>
                <path d="M198.811517,104.097122 C194.68217,101.866839 191.312677,97.9552478 189.050304,94.0688706 C187.844621,91.9990395 187.467559,89.4719201 186.627478,87.2794578 C186.183943,86.1161807 183.733611,81.330126 184.219552,80.2562436 C182.994386,82.9655906 182.751416,85.8949861 181.444878,88.5309836 C180.145216,91.1566663 178.56018,93.5130189 176.482326,95.5931648 C174.569509,97.5071282 172.232639,98.9340051 170.353059,100.850261 C168.433365,102.807775 166.247779,103.478236 163.729828,104.306856 C166.551492,105.629439 169.185197,106.39044 171.507167,108.537059 C174.405618,111.216607 176.951075,114.181532 178.917758,117.614059 C180.683877,120.693592 181.254627,124.678532 182.438534,128.052609 C182.872901,121.225375 187.475582,115.717287 192.97794,111.891652 C194.638618,110.737544 196.191565,109.445905 198.032179,108.656252 C200.044705,107.793249 202.208516,107.310747 203.904723,105.828858 C202.10766,105.566404 200.402284,104.956686 198.811517,104.097122" id="Fill-137" fill="#FFFFFE"></path>
                <path d="M307.428368,18.5303504 C305.43074,17.4507375 303.798714,15.5562576 302.704202,13.6766768 C302.120844,12.6738516 301.93747,11.450978 301.531756,10.3897025 C301.316292,9.8269743 300.131239,7.50958865 300.366187,6.99041175 C299.77366,8.30153399 299.654467,9.71924222 299.022974,10.9948358 C298.393773,12.265845 297.625895,13.4062005 296.621924,14.41361 C295.69474,15.3407934 294.5647,16.0307371 293.654708,16.9590667 C292.725232,17.9057336 291.666249,18.231222 290.447959,18.6323521 C291.814094,19.271868 293.088541,19.6397616 294.212851,20.6792615 C295.616807,21.9766307 296.847703,23.4115302 297.8001,25.0722086 C298.65508,26.5632663 298.930141,28.4921289 299.503184,30.1253013 C299.71521,26.8211357 301.942055,24.1541938 304.604412,22.3032651 C305.408964,21.7439752 306.160797,21.1182124 307.051305,20.7365658 C308.026625,20.3182444 309.074147,20.085589 309.894744,19.3681392 C309.024865,19.2409237 308.198537,18.9452335 307.428368,18.5303504" id="Fill-138" fill="#FFFFFE"></path>
                <path d="M324.422529,139.778214 C321.943545,138.439585 319.919558,136.088963 318.5603,133.755532 C317.83712,132.512029 317.609049,130.994611 317.105917,129.677759 C316.837733,128.978646 315.368451,126.104263 315.659556,125.460163 C314.923769,127.086459 314.775924,128.8457 313.993148,130.429591 C313.211517,132.006605 312.25912,133.420875 311.012178,134.671255 C309.861508,135.820779 308.459845,136.678051 307.33095,137.828721 C306.177988,139.004606 304.864574,139.406882 303.352886,139.905429 C305.046801,140.698521 306.629546,141.155809 308.024332,142.445155 C309.765237,144.05426 311.292969,145.835277 312.47573,147.897086 C313.535859,149.745722 313.877393,152.139896 314.587966,154.166176 C314.851566,150.066626 317.614779,146.757877 320.918945,144.459974 C321.917185,143.766592 322.848953,142.990692 323.954926,142.517359 C325.164047,141.997036 326.464854,141.708222 327.481432,140.817713 C326.404112,140.6607 325.378365,140.293952 324.422529,139.778214" id="Fill-139" fill="#FFFFFE"></path>
            </g>
        </g>
    </g>
</svg>